<svg xmlns="http://www.w3.org/2000/svg" xmlns:xlink="http://www.w3.org/1999/xlink" viewBox="0 0 331.15 754.76"><defs><style>.cls-1{fill:none;}.cls-2{fill:#c9b86d;}.cls-3{opacity:0.1;}.cls-4{clip-path:url(#clip-path);}</style><clipPath id="clip-path"><rect class="cls-1" x="8.36" y="13.1" width="314.43" height="728.56" rx="72.55"/></clipPath></defs><title>Asset 60</title><g id="Layer_2" data-name="Layer 2"><g id="Layer_1-2" data-name="Layer 1"><rect class="cls-2" x="7.98" y="13.1" width="314.43" height="728.56" rx="72.55"/><g class="cls-3"><g class="cls-4"><path d="M331.15,38.17V19.61H317.39V0H298.82V19.61H284.54V0H266V19.61H255.72V0H237.16V19.61H222.88V0H204.31V19.61h-12.1V0H173.65V19.61H159.36V0H140.8V19.61H128.45V0H109.88V19.61H95.6V0H77V19.61H64.94V0H46.37V19.61H32.09V0H13.53V19.61H0V38.17H13.53V52.45H0V71H13.53v12.1H0v18.56H13.53V116H0v18.57H13.53V147H0v18.56H13.53v14.28H0v18.57H13.53v12.1H0v18.56H13.53v14.29H0v18.56H13.53v11.21H0v18.57H13.53V306H0v18.56H13.53v12.11H0v18.56H13.53V369.5H0v18.57H13.53v12.48H0v18.56H13.53v14.28H0V452H13.53v12.1H0v18.56H13.53V496.9H0v18.57H13.53v14.28H0v18.56H13.53v14.28H0v18.57H13.53v12.1H0v18.56H13.53V626.1H0v18.57H13.53v12.48H0v18.56H13.53V690H0v18.57H13.53v12.1H0v18.56H13.53v15.54H32.09V739.22H46.37v15.54H64.94V739.22H77v15.54H95.6V739.22h14.28v15.54h18.57V739.22H140.8v15.54h18.56V739.22h14.29v15.54h18.56V739.22h12.1v15.54h18.57V739.22h14.28v15.54h18.56V739.22H266v15.54h18.56V739.22h14.28v15.54h18.57V739.22h13.76V720.66H317.39v-12.1h13.76V690H317.39V675.71h13.76V657.15H317.39V644.67h13.76V626.1H317.39V611.82h13.76V593.26H317.39v-12.1h13.76V562.59H317.39V548.31h13.76V529.75H317.39V515.47h13.76V496.9H317.39V482.62h13.76V464.06H317.39V452h13.76V433.39H317.39V419.11h13.76V400.55H317.39V388.07h13.76V369.5H317.39V355.22h13.76V336.66H317.39V324.55h13.76V306H317.39V291.71h13.76V273.14H317.39V261.93h13.76V243.37H317.39V229.08h13.76V210.52H317.39v-12.1h13.76V179.85H317.39V165.57h13.76V147H317.39V134.53h13.76V116H317.39V101.68h13.76V83.12H317.39V71h13.76V52.45H317.39V38.17Zm-65.17,0V52.45H255.72V38.17ZM159.36,562.59V548.31h14.29v14.28Zm14.29,18.57v12.1H159.36v-12.1Zm-14.29-51.41V515.47h14.29v14.28Zm0-32.85V482.62h14.29V496.9Zm0-32.84V452h14.29v12.1Zm0-30.67V419.11h14.29v14.28Zm0-32.84V388.07h14.29v12.48Zm0-31.05V355.22h14.29V369.5Zm0-32.84V324.55h14.29v12.11Zm0-30.67V291.71h14.29V306Zm0-32.85V261.93h14.29v11.21Zm0-29.77V229.08h14.29v14.29Zm0-32.85v-12.1h14.29v12.1Zm0-30.67V165.57h14.29v14.28Zm0-32.84V134.53h14.29V147Zm-18.56,0H128.45V134.53H140.8Zm0,18.56v14.28H128.45V165.57Zm0,32.85v12.1H128.45v-12.1Zm0,30.66v14.29H128.45V229.08Zm0,32.85v11.21H128.45V261.93Zm0,29.78V306H128.45V291.71Zm0,32.84v12.11H128.45V324.55Zm0,30.67V369.5H128.45V355.22Zm0,32.85v12.48H128.45V388.07Zm0,31v14.28H128.45V419.11Zm0,32.85v12.1H128.45V452Zm0,30.66V496.9H128.45V482.62Zm0,32.85v14.28H128.45V515.47Zm0,32.84v14.28H128.45V548.31Zm0,32.85v12.1H128.45v-12.1Zm0,30.66V626.1H128.45V611.82Zm18.56,0h14.29V626.1H159.36Zm32.85,0h12.1V626.1h-12.1Zm0-18.56v-12.1h12.1v12.1Zm0-30.67V548.31h12.1v14.28Zm0-32.84V515.47h12.1v14.28Zm0-32.85V482.62h12.1V496.9Zm0-32.84V452h12.1v12.1Zm0-30.67V419.11h12.1v14.28Zm0-32.84V388.07h12.1v12.48Zm0-31.05V355.22h12.1V369.5Zm0-32.84V324.55h12.1v12.11Zm0-30.67V291.71h12.1V306Zm0-32.85V261.93h12.1v11.21Zm0-29.77V229.08h12.1v14.29Zm0-32.85v-12.1h12.1v12.1Zm0-30.67V165.57h12.1v14.28Zm0-32.84V134.53h12.1V147Zm0-31V101.68h12.1V116Zm-18.56,0H159.36V101.68h14.29Zm-32.85,0H128.45V101.68H140.8Zm-30.92,0H95.6V101.68h14.28Zm0,18.57V147H95.6V134.53Zm0,31v14.28H95.6V165.57Zm0,32.85v12.1H95.6v-12.1Zm0,30.66v14.29H95.6V229.08Zm0,32.85v11.21H95.6V261.93Zm0,29.78V306H95.6V291.71Zm0,32.84v12.11H95.6V324.55Zm0,30.67V369.5H95.6V355.22Zm0,32.85v12.48H95.6V388.07Zm0,31v14.28H95.6V419.11Zm0,32.85v12.1H95.6V452Zm0,30.66V496.9H95.6V482.62Zm0,32.85v14.28H95.6V515.47Zm0,32.84v14.28H95.6V548.31Zm0,32.85v12.1H95.6v-12.1Zm0,30.66V626.1H95.6V611.82Zm0,32.85v12.48H95.6V644.67Zm18.57,0H140.8v12.48H128.45Zm30.91,0h14.29v12.48H159.36Zm32.85,0h12.1v12.48h-12.1Zm30.67,0h14.28v12.48H222.88Zm0-18.57V611.82h14.28V626.1Zm0-32.84v-12.1h14.28v12.1Zm0-30.67V548.31h14.28v14.28Zm0-32.84V515.47h14.28v14.28Zm0-32.85V482.62h14.28V496.9Zm0-32.84V452h14.28v12.1Zm0-30.67V419.11h14.28v14.28Zm0-32.84V388.07h14.28v12.48Zm0-31.05V355.22h14.28V369.5Zm0-32.84V324.55h14.28v12.11Zm0-30.67V291.71h14.28V306Zm0-32.85V261.93h14.28v11.21Zm0-29.77V229.08h14.28v14.29Zm0-32.85v-12.1h14.28v12.1Zm0-30.67V165.57h14.28v14.28Zm0-32.84V134.53h14.28V147Zm0-31V101.68h14.28V116Zm0-32.84V71h14.28v12.1Zm-18.57,0h-12.1V71h12.1Zm-30.66,0H159.36V71h14.29Zm-32.85,0H128.45V71H140.8Zm-30.92,0H95.6V71h14.28ZM77,83.12H64.94V71H77Zm0,18.56V116H64.94V101.68Zm0,32.85V147H64.94V134.53Zm0,31v14.28H64.94V165.57Zm0,32.85v12.1H64.94v-12.1Zm0,30.66v14.29H64.94V229.08Zm0,32.85v11.21H64.94V261.93Zm0,29.78V306H64.94V291.71Zm0,32.84v12.11H64.94V324.55Zm0,30.67V369.5H64.94V355.22Zm0,32.85v12.48H64.94V388.07Zm0,31v14.28H64.94V419.11ZM77,452v12.1H64.94V452Zm0,30.66V496.9H64.94V482.62Zm0,32.85v14.28H64.94V515.47Zm0,32.84v14.28H64.94V548.31Zm0,32.85v12.1H64.94v-12.1Zm0,30.66V626.1H64.94V611.82Zm0,32.85v12.48H64.94V644.67Zm0,31V690H64.94V675.71Zm18.56,0h14.28V690H95.6Zm32.85,0H140.8V690H128.45Zm30.91,0h14.29V690H159.36Zm32.85,0h12.1V690h-12.1Zm30.67,0h14.28V690H222.88Zm32.84,0H266V690H255.72Zm0-18.56V644.67H266v12.48Zm0-31V611.82H266V626.1Zm0-32.84v-12.1H266v12.1Zm0-30.67V548.31H266v14.28Zm0-32.84V515.47H266v14.28Zm0-32.85V482.62H266V496.9Zm0-32.84V452H266v12.1Zm0-30.67V419.11H266v14.28Zm0-32.84V388.07H266v12.48Zm0-31.05V355.22H266V369.5Zm0-32.84V324.55H266v12.11Zm0-30.67V291.71H266V306Zm0-32.85V261.93H266v11.21Zm0-29.77V229.08H266v14.29Zm0-32.85v-12.1H266v12.1Zm0-30.67V165.57H266v14.28Zm0-32.84V134.53H266V147Zm0-31V101.68H266V116Zm0-32.84V71H266v12.1ZM237.16,38.17V52.45H222.88V38.17Zm-32.85,0V52.45h-12.1V38.17Zm-30.66,0V52.45H159.36V38.17Zm-32.85,0V52.45H128.45V38.17Zm-30.92,0V52.45H95.6V38.17ZM77,38.17V52.45H64.94V38.17Zm-44.95,0H46.37V52.45H32.09Zm0,32.85H46.37v12.1H32.09Zm0,30.66H46.37V116H32.09Zm0,32.85H46.37V147H32.09Zm0,31H46.37v14.28H32.09Zm0,32.85H46.37v12.1H32.09Zm0,30.66H46.37v14.29H32.09Zm0,32.85H46.37v11.21H32.09Zm0,29.78H46.37V306H32.09Zm0,32.84H46.37v12.11H32.09Zm0,30.67H46.37V369.5H32.09Zm0,32.85H46.37v12.48H32.09Zm0,31H46.37v14.28H32.09Zm0,32.85H46.37v12.1H32.09Zm0,30.66H46.37V496.9H32.09Zm0,32.85H46.37v14.28H32.09Zm0,32.84H46.37v14.28H32.09Zm0,32.85H46.37v12.1H32.09Zm0,30.66H46.37V626.1H32.09Zm0,32.85H46.37v12.48H32.09Zm0,31H46.37V690H32.09Zm0,44.95v-12.1H46.37v12.1Zm32.85,0v-12.1H77v12.1Zm30.66,0v-12.1h14.28v12.1Zm32.85,0v-12.1H140.8v12.1Zm30.91,0v-12.1h14.29v12.1Zm32.85,0v-12.1h12.1v12.1Zm30.67,0v-12.1h14.28v12.1Zm32.84,0v-12.1H266v12.1Zm43.1,0H284.54v-12.1h14.28Zm0-30.67H284.54V675.71h14.28Zm0-32.84H284.54V644.67h14.28Zm0-31H284.54V611.82h14.28Zm0-32.84H284.54v-12.1h14.28Zm0-30.67H284.54V548.31h14.28Zm0-32.84H284.54V515.47h14.28Zm0-32.85H284.54V482.62h14.28Zm0-32.84H284.54V452h14.28Zm0-30.67H284.54V419.11h14.28Zm0-32.84H284.54V388.07h14.28Zm0-31.05H284.54V355.22h14.28Zm0-32.84H284.54V324.55h14.28Zm0-30.67H284.54V291.71h14.28Zm0-32.85H284.54V261.93h14.28Zm0-29.77H284.54V229.08h14.28Zm0-32.85H284.54v-12.1h14.28Zm0-30.67H284.54V165.57h14.28Zm0-32.84H284.54V134.53h14.28Zm0-31H284.54V101.68h14.28Zm0-32.84H284.54V71h14.28Zm0-30.67H284.54V38.17h14.28Z"/></g></g></g></g></svg>