<svg xmlns="http://www.w3.org/2000/svg" viewBox="0 0 2922.05 1263.64"><defs><style>.cls-1{fill:#1b3310;}.cls-2,.cls-30{fill:#aff29c;}.cls-3,.cls-7{fill:#fff;}.cls-3{opacity:0.4;}.cls-4{fill:#112b08;}.cls-5{fill:#26631a;}.cls-6,.cls-8{fill:#37a56e;}.cls-24,.cls-26,.cls-28,.cls-8{opacity:0.2;}.cls-9{fill:#106620;}.cls-10{fill:#ffff7b;}.cls-11{fill:#188420;}.cls-12,.cls-15,.cls-21{fill:#e5e165;}.cls-12{opacity:0.62;}.cls-13{fill:#2bbf7c;}.cls-14,.cls-21,.cls-29{opacity:0.5;}.cls-16{fill:#14420a;}.cls-17{fill:#135615;}.cls-18{opacity:0.25;}.cls-19{fill:#538e3d;}.cls-20{opacity:0.15;}.cls-22,.cls-26{fill:#42705b;}.cls-23,.cls-29{fill:#86eabf;}.cls-24,.cls-27{fill:#264235;}.cls-25{fill:#292d2b;stroke:#000;stroke-miterlimit:10;}.cls-30{opacity:0.23;}</style></defs><title>Asset 21</title><g id="Layer_2" data-name="Layer 2"><g id="Layer_1-2" data-name="Layer 1"><path class="cls-1" d="M2402.65,1263.64a513.32,513.32,0,0,0,201.78-41A524.1,524.1,0,0,0,2881,946a516.85,516.85,0,0,0-4.56-414V264A113.41,113.41,0,0,0,2763.2,150.67h-755A113.41,113.41,0,0,0,1895,264V532.05a516.85,516.85,0,0,0-4.56,414A524.12,524.12,0,0,0,2167,1222.63a513.36,513.36,0,0,0,201.79,41Z"/><path class="cls-2" d="M1933.94,540.1V262.94a72.22,72.22,0,0,1,72-72h755a72.22,72.22,0,0,1,72,72V540.1a473.84,473.84,0,0,1,45.57,203.11h0c0,263-215.16,478.14-478.14,478.14H2366.5c-263,0-478.13-215.16-478.13-478.14h0A473.7,473.7,0,0,1,1933.94,540.1Z"/><rect class="cls-3" x="2674.29" y="173.64" width="53.25" height="169.98" rx="25.8" transform="translate(2442.28 2959.55) rotate(-90)"/><circle class="cls-3" cx="2546.15" cy="258.63" r="29.24"/><path class="cls-4" d="M2373,455.12l-.17-.17,6.73,6.71c-6.68-6.65-14.7-12.09-22.8-16.83l8.34,4.83a145,145,0,0,0-35.3-14.58l9.63,2.56a144.38,144.38,0,0,0-37-4.55l10-.08a161.19,161.19,0,0,0-40.31,5.86l9.27-2.6a211.52,211.52,0,0,0-49.13,21.37l8.19-4.81c-8.36,5-16.42,10.37-24.26,16.14-15.66,11.52-40.31,10-52.11-6.6-11.4-16.08-10.12-39.82,6.6-52.12,44.38-32.65,96.39-54.37,152.24-50.54,32.28,2.21,64.08,14.58,90.27,33.42a139.26,139.26,0,0,1,18.53,16.48c6.19,6.38,8.55,19,7.49,27.42-1.14,9-6.53,19.33-14.09,24.69-7.84,5.56-17.67,9.18-27.43,7.5l-9.63-2.56A37.11,37.11,0,0,1,2373,455.12Z"/><path class="cls-4" d="M2545.4,451.13a81.38,81.38,0,0,1,9.39-8.8c10.41-8.66,21.21-16.68,33.3-22.83,38.89-19.82,81.79-24.82,124.49-16,30.93,6.41,60.56,20.64,86.79,38,8.29,5.48,14.75,12.63,17.44,22.45,2.41,8.79,1.39,20.36-3.54,28.21-10.11,16.12-33.34,25.34-50.66,13.91a265.5,265.5,0,0,0-44.08-23.82l8.79,3.61a188,188,0,0,0-46.25-12.62l9.55,1.26a152.6,152.6,0,0,0-38.2-.05l9.87-1.33a143.57,143.57,0,0,0-36.51,10l9.17-3.89a143.84,143.84,0,0,0-32,18.92l7.57-6a90.17,90.17,0,0,0-12,10.89c-12.84,14.63-39.31,14.68-52.53.6-14.4-15.34-14.31-36.92-.6-52.54Z"/><path class="cls-5" d="M2304.7,905.5H2478a25.17,25.17,0,0,1,25.1,25.1v110.8a25.18,25.18,0,0,1-25.1,25.1H2354.76c-32.31,6.24-75-103.59-76.27-134.67S2304.7,905.5,2304.7,905.5Z"/><path class="cls-6" d="M2495.7,1059.19s-36.28-82.24-114.62-91.64-93.34,3.4-93.34,3.4,33.91,101,67,95.55H2478S2489,1066.67,2495.7,1059.19Z"/><path class="cls-7" d="M2310.24,913.86h168.88c3,0,5.36,1.22,5.36,2.7v10.28c0,1.48-2.41,2.7-5.36,2.7H2310.24c-2.95,0-5.36-1.22-5.36-2.7V916.56C2304.88,915.08,2307.29,913.86,2310.24,913.86Z"/><path class="cls-8" d="M2421.31,1203.78h-33.85A474.39,474.39,0,0,1,2134,1130.57,200.59,200.59,0,0,0,2262.3,943.45c0-94.94-66-174.47-154.58-195.24V609.13c0-130.72-59.54-248.2-152.83-326.71V245.37a71.62,71.62,0,0,1,16.9-46.2,72.2,72.2,0,0,0-38.93,63.89v2c-.92-.68-1.85-1.37-2.78-2V514.5a473.7,473.7,0,0,0-45.57,203.11h0a477.56,477.56,0,0,0,4.34,64.32c19.82,245.11,226.59,439.54,476.58,439.54h33.85c117.68,0,225.78-43.09,309.32-114.27A475.18,475.18,0,0,1,2421.31,1203.78Z"/><path class="cls-9" d="M457.71,1251.42a419.23,419.23,0,0,1-164.82-33.5A427.93,427.93,0,0,1,67,992.05a419.18,419.18,0,0,1-33.5-164.81V668.83a421.3,421.3,0,0,1,83.89-252.59L104,408.5A208.64,208.64,0,0,1,27.82,124.19c37-64.11,106.27-103.94,180.73-103.94A207.43,207.43,0,0,1,312.14,48l100.22,57.86A207.88,207.88,0,0,1,486,43.28,205.19,205.19,0,0,1,579.47,21,209.81,209.81,0,0,1,687.29,50.85a207.06,207.06,0,0,1,78.4,84.21l80.07,158.3A427.66,427.66,0,0,1,1006.3,441a421.47,421.47,0,0,1,66.81,227.86V827.24a419.18,419.18,0,0,1-33.5,164.81,427.93,427.93,0,0,1-225.87,225.87,419.23,419.23,0,0,1-164.82,33.5Z"/><path class="cls-10" d="M816,320.21l-86-170C688.22,67.7,586.56,34.34,504,76.08h0a167.19,167.19,0,0,0-77.36,81.36L292.1,79.75C212,33.51,108.67,61.2,62.43,141.29h0C16.19,221.37,43.89,324.73,124,371l54.67,31.57c-65.1,68.9-105.15,161.7-105.15,263.4V824.34c0,211.3,172.88,384.18,384.18,384.18H648.89c211.3,0,384.19-172.88,384.19-384.18V665.93C1033.08,514.4,944.17,382.64,816,320.21Z"/><rect class="cls-11" x="286.66" y="609.32" width="161.31" height="149.81" rx="56.36"/><rect class="cls-11" x="560.16" y="609.32" width="181.65" height="149.81" rx="50.83"/><rect class="cls-12" x="750.34" y="668.67" width="55.95" height="15.66" rx="7.83" transform="translate(-86.27 114.44) rotate(-7.97)"/><rect class="cls-12" x="750.34" y="703.62" width="55.95" height="15.66" rx="7.83" transform="matrix(0.99, 0.14, -0.14, 0.99, 106.15, -101.04)"/><rect class="cls-12" x="141.85" y="672.4" width="55.95" height="15.66" rx="7.83" transform="translate(243.69 1377.43) rotate(-172.03)"/><rect class="cls-12" x="141.85" y="707.34" width="55.95" height="15.66" rx="7.83" transform="matrix(-0.99, 0.14, -0.14, -0.99, 437.15, 1399.89)"/><circle class="cls-13" cx="597.11" cy="656.87" r="19.03"/><circle class="cls-13" cx="618.25" cy="694.53" r="10.31"/><circle class="cls-13" cx="320.64" cy="656.87" r="19.03"/><circle class="cls-13" cx="341.78" cy="694.53" r="10.31"/><g class="cls-14"><path class="cls-15" d="M106,323.47a163.33,163.33,0,0,1-63.08-113C37.17,265.36,59.19,322.05,106,357.92L192.23,424a164.16,164.16,0,0,1-22.13-51.4Z"/></g><rect class="cls-3" x="276.23" y="91.11" width="51.61" height="164.74" rx="25.8" transform="translate(0.78 348.31) rotate(-60)"/><circle class="cls-3" cx="616.47" cy="126.95" r="28.34"/><path class="cls-16" d="M568.61,520.83l.19-.15-7.28,5.63c7.23-5.58,15.6-9.83,24-13.4l-8.6,3.63a140,140,0,0,1,35.71-9.72L603,508.1a140.18,140.18,0,0,1,36.09.13l-9.57-1.29a156.19,156.19,0,0,1,38.05,10.55l-8.6-3.63a205,205,0,0,1,44.64,26.53l-7.29-5.63q11.14,8.7,21.36,18.47c13.65,13,37.53,14.57,50.91,0,12.92-14.07,14.58-37.05,0-50.91-38.7-36.8-86.06-64-140.23-67.13-31.31-1.81-63.38,6.21-90.86,21.14a135.53,135.53,0,0,0-19.82,13.58c-6.73,5.39-10.54,17.25-10.54,25.46,0,8.83,3.92,19.38,10.54,25.46,6.86,6.29,15.87,11,25.46,10.54l9.57-1.29a35.93,35.93,0,0,0,15.88-9.25Z"/><path class="cls-16" d="M412.14,507.36a79.55,79.55,0,0,1-8.13,9.46c-9.13,9.42-18.7,18.28-29.71,25.47-35.4,23.14-76.22,32.44-118.28,28.35-30.47-3-60.51-13.59-87.59-27.55-8.55-4.41-15.52-10.63-19.14-19.81-3.24-8.22-3.46-19.47.47-27.55,8.06-16.59,29.49-27.9,47.36-18.68a257.93,257.93,0,0,0,45,18.36l-8.85-2.57a182.6,182.6,0,0,0,45.88,7.35l-9.33-.23A147.58,147.58,0,0,0,306.59,496l-9.37,2.31a139.19,139.19,0,0,0,34.14-13.42l-8.43,4.71a139.67,139.67,0,0,0,28.88-21.57l-6.67,6.53a87.09,87.09,0,0,0,10.39-11.74c10.86-15.44,36.35-18.24,50.56-6.05,15.48,13.28,17.64,34.08,6.05,50.56Z"/><path class="cls-17" d="M417.18,894.54c13.54,4.73,27.84,7.79,42,10.14,29.73,4.94,60.41,6.19,90-.41,18-4,35.53-11.35,50.38-22.41,4.32-3.22,6.52-8.65,3.58-13.68-2.49-4.26-9.32-6.83-13.68-3.59-43.61,32.48-104.25,27.71-153.16,14.75-4.62-1.22-9.26-2.51-13.77-4.08-5.1-1.78-10.94,2-12.3,7-1.52,5.51,1.86,10.51,7,12.3Z"/><g class="cls-18"><path class="cls-19" d="M610.77,829.52s17.09-2.18,24.33,20.32"/><path class="cls-19" d="M611.48,837.41c.5-.06,2.35.06.76-.07a15.61,15.61,0,0,1,4.16.89c6.18,2.26,9.22,8.48,11.26,14.3,3.38,9.63,18.26,4.24,14.89-5.38-4.77-13.61-16.56-27.28-32.49-25.51-10.12,1.13-8.73,16.9,1.42,15.77Z"/></g><g class="cls-20"><path class="cls-19" d="M491,961.23s18.09-19.51,49,0"/><path class="cls-19" d="M499.65,969.88c.54-.56,2.85-2.26.84-.84A24.28,24.28,0,0,1,506.3,966c9.56-3.44,19.33.93,27.51,5.81,13.55,8.08,25.86-13.06,12.34-21.12-19.14-11.42-46.65-16-63.79,1.91-10.89,11.37,6.38,28.69,17.29,17.3Z"/></g><path class="cls-21" d="M1013.15,540.56A387.63,387.63,0,0,0,804.4,312.2,387.79,387.79,0,0,1,873.48,367a423.44,423.44,0,0,0-58,214.19v176.1c0,101.4,35.82,194.83,95.42,268.28-70.18,94.33-182.45,155.72-308.36,155.72H411.31a380.59,380.59,0,0,1-155.14-32.92A381.1,381.1,0,0,0,458,1206.06H649.26c119.52,0,226.74-55.31,297.34-141.6.45.44.9.89,1.36,1.32A382,382,0,0,0,1034.16,824V665.58A380.81,380.81,0,0,0,1013.15,540.56Z"/><path class="cls-22" d="M1361,1230.06a466,466,0,0,1-183.22-37.24,475.71,475.71,0,0,1-251.09-251.1,466,466,0,0,1-37.24-183.21V582.41a468.26,468.26,0,0,1,69.63-245.92,193.46,193.46,0,0,1-35.66-41.34,190.85,190.85,0,0,1-30.29-103.23C893.13,86.1,979.23,0,1085.05,0h434.72a192.5,192.5,0,0,1,181,128.42,474.83,474.83,0,0,1,316,293.59,467.2,467.2,0,0,1,28.25,160.4V689A245,245,0,0,1,2199.7,916.72a245.06,245.06,0,0,1-348.26,222.21,469,469,0,0,1-277.87,91.13Z"/><path class="cls-23" d="M2007.65,722.58V583.5c0-203.62-144.41-375.15-335.87-417.22-12.67-68.45-73-120.73-145-120.73H1092.05C1011,45.55,944.6,111.91,944.6,193h0c0,58.2,34.17,108.8,83.45,132.74A424.4,424.4,0,0,0,940.92,583.5V759.59c0,234.9,192.19,427.09,427.08,427.09h212.57c103.79,0,199.24-37.53,273.46-99.68a199.59,199.59,0,0,0,107.68,31.34c110.75,0,200.53-89.78,200.53-200.53C2162.24,822.87,2096.26,743.35,2007.65,722.58Z"/><path class="cls-24" d="M1463,789.9a104.38,104.38,0,0,1-104.26-104.26v-34.7a96.51,96.51,0,0,0-19.3-2,90.77,90.77,0,0,0-16.1,1.44v35.23A104.37,104.37,0,0,1,1219,789.9H1093.59A104.38,104.38,0,0,1,989.33,685.64V631.17a104.37,104.37,0,0,1,104.26-104.25H1219A103.89,103.89,0,0,1,1314.4,589a106.12,106.12,0,0,1,26.25-3.32,99.59,99.59,0,0,1,26.81,3.65,105.55,105.55,0,0,1,33.13-41.7A103.33,103.33,0,0,1,1463,526.92H1588.4a104.37,104.37,0,0,1,104.25,104.25v54.47A104.37,104.37,0,0,1,1588.4,789.9Zm0-212.74a54.07,54.07,0,0,0-54,54v54.47a54.08,54.08,0,0,0,54,54H1588.4a54.07,54.07,0,0,0,54-54V631.17a54.07,54.07,0,0,0-54-54Zm-369.36,0a54.07,54.07,0,0,0-54,54v54.47a54.08,54.08,0,0,0,54,54H1219a54.07,54.07,0,0,0,54-54V631.17a54.07,54.07,0,0,0-54-54Z"/><rect class="cls-25" x="1124.31" y="581.67" width="132.5" height="132.5" rx="43.56"/><rect class="cls-25" x="1455.11" y="580.61" width="132.5" height="132.5" rx="43.56"/><path class="cls-26" d="M1961.71,1092.84A199.59,199.59,0,0,1,1854,1061.5c-74.22,62.15-169.67,99.68-273.46,99.68H1368c-234.9,0-427.08-192.19-427.08-427.08v27.54c0,234.9,192.18,427.08,427.08,427.08h212.57c103.79,0,199.24-37.53,273.46-99.68a199.59,199.59,0,0,0,107.68,31.34c110.75,0,200.53-89.77,200.53-200.52,0-4.65-.17-9.27-.48-13.84C2154.72,1010.37,2067.85,1092.84,1961.71,1092.84Z"/><circle class="cls-3" cx="2079.83" cy="849.51" r="31.5"/><rect class="cls-3" x="1127.63" y="18.73" width="57.37" height="183.14" rx="25.8" transform="translate(1046.02 1266.6) rotate(-90)"/><circle class="cls-3" cx="1323.05" cy="110.29" r="31.5"/><path class="cls-27" d="M1445,778.34a104.37,104.37,0,0,1-104.26-104.25V639.38a97.23,97.23,0,0,0-19.3-2,89.85,89.85,0,0,0-16.1,1.44v35.23A104.37,104.37,0,0,1,1201.1,778.34H1075.65A104.37,104.37,0,0,1,971.39,674.09V619.62a104.38,104.38,0,0,1,104.26-104.26H1201.1a103.89,103.89,0,0,1,95.36,62.12,106.13,106.13,0,0,1,26.25-3.33,99.6,99.6,0,0,1,26.81,3.66,105.55,105.55,0,0,1,33.13-41.7A103.34,103.34,0,0,1,1445,515.36h125.45a104.37,104.37,0,0,1,104.25,104.26v54.47a104.37,104.37,0,0,1-104.25,104.25Zm0-212.73a54.07,54.07,0,0,0-54,54v54.47a54.07,54.07,0,0,0,54,54h125.45a54.07,54.07,0,0,0,54-54V619.62a54.07,54.07,0,0,0-54-54Zm-369.36,0a54.07,54.07,0,0,0-54,54v54.47a54.07,54.07,0,0,0,54,54H1201.1a54.07,54.07,0,0,0,54-54V619.62a54.07,54.07,0,0,0-54-54Z"/><g class="cls-28"><path class="cls-22" d="M989.4,270.66c-28.07-23.92-44.37-58.82-47.8-95.28-4.37,46.3,12.32,94.08,47.8,124.31l65.34,55.67A146.68,146.68,0,0,1,1038,312Z"/></g><circle class="cls-29" cx="1154.5" cy="614.13" r="10.04"/><circle class="cls-29" cx="1175.3" cy="622.7" r="5.44"/><circle class="cls-29" cx="1488.9" cy="616.18" r="10.04"/><circle class="cls-29" cx="1509.7" cy="624.75" r="5.44"/><path class="cls-4" d="M1420.67,353.37l.16-.17-6.52,6.5c6.47-6.44,14.24-11.72,22.09-16.3l-8.07,4.68a140.29,140.29,0,0,1,34.2-14.14l-9.33,2.48A140.49,140.49,0,0,1,1489,332l-9.65-.07a156,156,0,0,1,39.07,5.68l-9-2.52a205.1,205.1,0,0,1,47.61,20.71l-7.93-4.67c8.1,4.82,15.92,10.06,23.51,15.65,15.18,11.16,39.07,9.74,50.51-6.4,11-15.59,9.81-38.59-6.4-50.51-43-31.65-93.42-52.69-147.55-49-31.29,2.14-62.1,14.13-87.48,32.39a134.67,134.67,0,0,0-18,16c-6,6.18-8.29,18.43-7.26,26.58,1.11,8.75,6.32,18.73,13.66,23.92,7.59,5.39,17.12,8.9,26.58,7.27l9.33-2.48a36,36,0,0,0,14.6-11.18Z"/><path class="cls-4" d="M1253.59,349.5a80.61,80.61,0,0,0-9.1-8.53c-10.1-8.39-20.57-16.16-32.28-22.13-37.69-19.2-79.27-24-120.65-15.47-30,6.22-58.69,20-84.11,36.81-8,5.31-14.3,12.24-16.91,21.76-2.34,8.51-1.35,19.72,3.43,27.34,9.8,15.62,32.32,24.56,49.1,13.47a257.75,257.75,0,0,1,42.72-23.08l-8.52,3.5a182.29,182.29,0,0,1,44.82-12.24l-9.25,1.23a147.47,147.47,0,0,1,37-.05l-9.56-1.29a139.16,139.16,0,0,1,35.38,9.67l-8.88-3.77a139.4,139.4,0,0,1,31,18.34l-7.33-5.77a88.36,88.36,0,0,1,11.59,10.54c12.45,14.19,38.09,14.24,50.91.58,14-14.86,13.87-35.77.59-50.91Z"/><path class="cls-27" d="M1275,877.74s199.06,37.5,171.8,0"/><path class="cls-27" d="M1276.6,872c20.7,3.9,41.55,7.16,62.43,10,17.07,2.34,34.21,4.32,51.41,5.51,7.92.55,15.86.93,23.81.94,3.44,0,6.88-.07,10.31-.26,1.4-.08,2.79-.18,4.18-.31.71-.06,1.42-.13,2.12-.21a11.29,11.29,0,0,0,1.28-.16,55.57,55.57,0,0,0,7.75-1.72c.53-.16,1-.37,1.56-.57-1.57.63,0,0,.3-.19l1.2-.7c1.38-.8-.83.56.16-.13.69-.48.28-.83.39-.35.06.25.08-.08-.09.16-.74,1,.3-.13.06-.42.79,1-.85.59-.12.23.29-.15.07.64,0,.12,0-.31-.57-1.63-.2-.72s-.29-.51-.46-.8c-.34-.55-.69-1.09-1.07-1.61-4.48-6.31,5.92-12.31,10.37-6.06,6.7,9.41,2,18.69-8.1,22.33-12.19,4.38-26.74,3.63-39.46,3.18C1369.17,899,1334,893.71,1299.2,888c-8.61-1.42-17.22-2.87-25.79-4.49-7.58-1.42-4.37-13,3.19-11.57Z"/><rect class="cls-26" x="1334.21" y="938.34" width="55.95" height="15.66" rx="7.83" transform="translate(2533.44 2120.45) rotate(-169.71)"/><path class="cls-1" d="M2364.19,871.7A96.88,96.88,0,0,0,2461,774.93V742.72a89.27,89.27,0,0,1,17.92-1.83,83.4,83.4,0,0,1,14.93,1.34v32.7a96.88,96.88,0,0,0,96.77,96.77H2707a96.88,96.88,0,0,0,96.77-96.77V724.37A96.88,96.88,0,0,0,2707,627.6H2590.58a96.44,96.44,0,0,0-88.52,57.66,98.42,98.42,0,0,0-24.36-3.09,92.63,92.63,0,0,0-24.88,3.39,98,98,0,0,0-30.75-38.7,95.9,95.9,0,0,0-57.88-19.26H2247.75A96.88,96.88,0,0,0,2151,724.37v50.56a96.88,96.88,0,0,0,96.77,96.77Zm0-197.46a50.19,50.19,0,0,1,50.14,50.13v50.56a50.19,50.19,0,0,1-50.14,50.13H2247.75a50.19,50.19,0,0,1-50.14-50.13V724.37a50.19,50.19,0,0,1,50.14-50.13Zm342.83,0a50.19,50.19,0,0,1,50.14,50.13v50.56A50.19,50.19,0,0,1,2707,825.06H2590.58a50.19,50.19,0,0,1-50.13-50.13V724.37a50.19,50.19,0,0,1,50.13-50.13Z"/><rect class="cls-27" x="2540.45" y="674.24" width="216.71" height="150.83" rx="50.14"/><path class="cls-30" d="M2652.65,825.06h-32.31l-41.29-149.42a49.83,49.83,0,0,1,11.73-1.4H2611Z"/><path class="cls-30" d="M2733.63,817.52a49.79,49.79,0,0,1-26.41,7.54h-42.49l-41.68-150.82h71Z"/><rect class="cls-27" x="2197.61" y="674.24" width="216.71" height="150.83" rx="50.14"/><path class="cls-30" d="M2309.82,825.06h-32.31l-41.29-149.42a49.83,49.83,0,0,1,11.73-1.4h20.19Z"/><path class="cls-30" d="M2390.79,817.52a49.76,49.76,0,0,1-26.4,7.54h-42.5l-41.67-150.82h71Z"/></g></g></svg>