<svg xmlns="http://www.w3.org/2000/svg" xmlns:xlink="http://www.w3.org/1999/xlink" viewBox="0 0 331.15 728.56"><defs><style>.cls-1{fill:none;}.cls-2{fill:#70654e;}.cls-3{opacity:0.1;}.cls-4{clip-path:url(#clip-path);}</style><clipPath id="clip-path"><rect class="cls-1" x="8.36" width="314.43" height="728.56" rx="72.55"/></clipPath></defs><title>Asset 52</title><g id="Layer_2" data-name="Layer 2"><g id="Layer_1-2" data-name="Layer 1"><rect class="cls-2" x="8.36" width="314.43" height="728.56" rx="72.55"/><g class="cls-3"><g class="cls-4"><rect y="4.71" width="331.15" height="18.56"/><rect y="37.55" width="331.15" height="18.56"/><rect y="68.22" width="331.15" height="18.56"/><rect y="101.06" width="331.15" height="18.56"/><rect y="132.11" width="331.15" height="18.56"/><rect y="164.95" width="331.15" height="18.56"/><rect y="195.62" width="331.15" height="18.56"/><rect y="228.46" width="331.15" height="18.56"/><rect y="258.24" width="331.15" height="18.56"/><rect y="291.09" width="331.15" height="18.56"/><rect y="321.75" width="331.15" height="18.56"/><rect y="354.6" width="331.15" height="18.56"/><rect y="385.64" width="331.15" height="18.56"/><rect y="418.49" width="331.15" height="18.56"/><rect y="449.16" width="331.15" height="18.56"/><rect y="482" width="331.15" height="18.56"/><rect y="514.85" width="331.15" height="18.56"/><rect y="547.69" width="331.15" height="18.56"/><rect y="578.36" width="331.15" height="18.56"/><rect y="611.2" width="331.15" height="18.56"/><rect y="642.25" width="331.15" height="18.56"/><rect y="675.09" width="331.15" height="18.56"/><rect y="705.76" width="331.15" height="18.56"/></g></g></g></g></svg>