<svg xmlns="http://www.w3.org/2000/svg" viewBox="0 0 427.44 490.39"><defs><style>.cls-1{fill:#106620;}.cls-2{fill:#ffff7b;}.cls-3{fill:#188420;}.cls-4,.cls-7{fill:#e5e165;}.cls-4,.cls-6{opacity:0.62;}.cls-5{fill:#2bbf7c;}.cls-8{opacity:0.5;}.cls-12,.cls-9{fill:#fff;}.cls-9{opacity:0.4;}.cls-10{fill:#14420a;}.cls-11{fill:#37a56e;}.cls-13{fill:#26631a;}</style></defs><title>Asset 15</title><g id="Layer_2" data-name="Layer 2"><g id="Layer_1-2" data-name="Layer 1"><path class="cls-1" d="M182.31,490.39a166.87,166.87,0,0,1-65.65-13.34,170.45,170.45,0,0,1-90-90,167,167,0,0,1-13.34-65.65V258.34A167.78,167.78,0,0,1,46.77,157.73l-5.34-3.08A83.11,83.11,0,0,1,11.08,41.4,83,83,0,0,1,124.33,11.06l39.92,23A82.86,82.86,0,0,1,193.59,9.17,81.78,81.78,0,0,1,230.81.29a83.62,83.62,0,0,1,42.95,11.9A82.52,82.52,0,0,1,305,45.73l31.89,63.06a170.31,170.31,0,0,1,63.95,58.79,168,168,0,0,1,26.61,90.76v63.09a166.88,166.88,0,0,1-13.35,65.65,170.35,170.35,0,0,1-90,90,166.82,166.82,0,0,1-65.64,13.34Z"/><path class="cls-2" d="M325,119.48,290.75,51.77a67.15,67.15,0,0,0-90-29.53h0A66.63,66.63,0,0,0,170,54.65L116.35,23.7A67.16,67.16,0,0,0,24.87,48.21h0a67.16,67.16,0,0,0,24.51,91.48l21.78,12.58A152.4,152.4,0,0,0,29.27,257.18v63.1c0,84.17,68.86,153,153,153h76.16c84.17,0,153-68.86,153-153v-63.1C411.49,196.83,376.08,144.34,325,119.48Z"/><rect class="cls-3" x="77.53" y="234.63" width="64.25" height="59.67" rx="29.84"/><rect class="cls-3" x="186.47" y="234.63" width="72.35" height="59.67" rx="29.84"/><rect class="cls-4" x="276.57" y="258.28" width="22.28" height="6.24" rx="3.12" transform="translate(-33.46 42.41) rotate(-7.97)"/><rect class="cls-4" x="276.57" y="272.2" width="22.28" height="6.24" rx="3.12" transform="translate(40.95 -37.23) rotate(7.97)"/><rect class="cls-4" x="40.97" y="259.76" width="22.28" height="6.24" rx="3.12" transform="translate(67.27 530.44) rotate(-172.03)"/><rect class="cls-4" x="40.97" y="273.68" width="22.28" height="6.24" rx="3.12" transform="translate(142.09 543.7) rotate(172.03)"/><circle class="cls-5" cx="201.19" cy="253.58" r="7.58"/><circle class="cls-5" cx="209.61" cy="268.58" r="4.11"/><circle class="cls-5" cx="91.07" cy="253.58" r="7.58"/><circle class="cls-5" cx="99.49" cy="268.58" r="4.11"/><g class="cls-6"><path class="cls-7" d="M320.4,116.29c43.51,27.06,72.62,75.32,72.62,130v63.1c0,84.16-68.86,153-153,153H163.83A151.49,151.49,0,0,1,102,449.34a151.78,151.78,0,0,0,80.41,23h76.16c84.16,0,153-68.86,153-153V256.2C411.64,194,374,140.15,320.4,116.29Z"/></g><g class="cls-8"><path class="cls-7" d="M42.22,120.78a65.09,65.09,0,0,1-25.12-45A65.35,65.35,0,0,0,42.22,134.5l34.35,26.31a65.45,65.45,0,0,1-8.82-20.48Z"/></g><rect class="cls-9" x="110.03" y="28.23" width="20.56" height="65.62" rx="10.28" transform="matrix(0.5, -0.87, 0.87, 0.5, 7.3, 134.7)"/><circle class="cls-9" cx="245.55" cy="42.5" r="11.29"/><path class="cls-10" d="M210.79,199.39l.07-.06-2.9,2.24a43.58,43.58,0,0,1,9.54-5.34l-3.42,1.45a55.72,55.72,0,0,1,14.22-3.87l-3.81.51a55.82,55.82,0,0,1,14.38.05l-3.81-.51a61.89,61.89,0,0,1,15.15,4.2l-3.43-1.45a81.46,81.46,0,0,1,17.78,10.57l-2.9-2.24c3,2.31,5.79,4.77,8.51,7.35,5.44,5.18,14.95,5.81,20.28,0,5.14-5.6,5.8-14.75,0-20.27-15.42-14.66-34.28-25.5-55.86-26.74a68.53,68.53,0,0,0-36.19,8.42,53.52,53.52,0,0,0-7.89,5.41c-2.69,2.14-4.2,6.87-4.2,10.14a14.59,14.59,0,0,0,4.2,10.14c2.73,2.51,6.32,4.37,10.14,4.2l3.81-.52a14.38,14.38,0,0,0,6.33-3.68Z"/><path class="cls-10" d="M143.48,174.47a30.74,30.74,0,0,0-4.4-2.31,70,70,0,0,0-14.73-5.1,72.18,72.18,0,0,0-48,6.78c-10.86,5.54-20.44,13.87-28.43,23A15.19,15.19,0,0,0,43.75,207,14.58,14.58,0,0,0,48,217.12c5.41,5,15,6,20.28,0a102.15,102.15,0,0,1,14-13.37L79.3,206a72.65,72.65,0,0,1,15.93-9.42L91.81,198A59.34,59.34,0,0,1,106,194.09l-3.81.52a55.4,55.4,0,0,1,14.61,0l-3.81-.51a55.42,55.42,0,0,1,13.85,3.77l-3.42-1.44a34.2,34.2,0,0,1,5.56,2.83c6.28,4.13,16.14,1.45,19.62-5.15,3.8-7.18,1.56-15.2-5.14-19.62Z"/><path class="cls-11" d="M203.58,315.11H136.67A9.72,9.72,0,0,0,127,324.8v42.77a9.72,9.72,0,0,0,9.69,9.69h47.59c12.47,2.41,29-40,29.44-52S203.58,315.11,203.58,315.11Z"/><path class="cls-12" d="M201.66,318.2H136.47A2,2,0,0,0,134.4,320v6.78a2,2,0,0,0,2.07,1.78h65.19a2,2,0,0,0,2.07-1.78V320A2,2,0,0,0,201.66,318.2Z"/><path class="cls-13" d="M129.85,374.44s14-31.74,44.25-35.37,36,1.31,36,1.31-13.09,39-25.87,36.88H136.67S132.44,377.33,129.85,374.44Z"/></g></g></svg>