<svg xmlns="http://www.w3.org/2000/svg" viewBox="0 0 427.44 490.39"><defs><style>.cls-1{fill:#106620;}.cls-2{fill:#ffff7b;}.cls-3{fill:#188420;}.cls-4,.cls-7{fill:#e5e165;}.cls-4,.cls-6{opacity:0.62;}.cls-5{fill:#2bbf7c;}.cls-8{opacity:0.5;}.cls-9{fill:#fff;opacity:0.4;}.cls-10{fill:#14420a;}.cls-11{fill:#135615;}</style></defs><title>Asset 16</title><g id="Layer_2" data-name="Layer 2"><g id="Layer_1-2" data-name="Layer 1"><path class="cls-1" d="M182.31,490.39a166.87,166.87,0,0,1-65.65-13.34,170.45,170.45,0,0,1-90-90,167,167,0,0,1-13.34-65.65V258.34A167.78,167.78,0,0,1,46.77,157.73l-5.34-3.08A83.11,83.11,0,0,1,11.08,41.4,83,83,0,0,1,124.33,11.06l39.92,23A82.86,82.86,0,0,1,193.59,9.17,81.78,81.78,0,0,1,230.81.29a83.62,83.62,0,0,1,42.95,11.9A82.52,82.52,0,0,1,305,45.73l31.89,63.06a170.31,170.31,0,0,1,63.95,58.79,168,168,0,0,1,26.61,90.76v63.09a166.88,166.88,0,0,1-13.35,65.65,170.35,170.35,0,0,1-90,90,166.82,166.82,0,0,1-65.64,13.34Z"/><path class="cls-2" d="M325,119.45,290.75,51.74a67.15,67.15,0,0,0-90-29.53h0A66.63,66.63,0,0,0,170,54.62l-53.6-30.95A67.17,67.17,0,0,0,24.87,48.18h0a67.17,67.17,0,0,0,24.51,91.49l21.78,12.57A152.43,152.43,0,0,0,29.27,257.16v63.09c0,84.17,68.86,153,153,153h76.16c84.17,0,153-68.86,153-153V257.16C411.49,196.8,376.08,144.32,325,119.45Z"/><rect class="cls-3" x="77.53" y="255.28" width="64.25" height="25.85" rx="12.93"/><rect class="cls-3" x="186.47" y="255.28" width="72.35" height="25.85" rx="12.93"/><rect class="cls-4" x="276.57" y="258.25" width="22.28" height="6.24" rx="3.12" transform="translate(-33.46 42.41) rotate(-7.97)"/><rect class="cls-4" x="276.57" y="272.17" width="22.28" height="6.24" rx="3.12" transform="translate(40.94 -37.23) rotate(7.97)"/><rect class="cls-4" x="40.97" y="259.73" width="22.28" height="6.24" rx="3.12" transform="translate(67.27 530.39) rotate(-172.03)"/><rect class="cls-4" x="40.97" y="273.65" width="22.28" height="6.24" rx="3.12" transform="translate(142.08 543.65) rotate(172.03)"/><circle class="cls-5" cx="86.82" cy="264.53" r="3.6"/><circle class="cls-5" cx="94.27" cy="267.6" r="1.95"/><circle class="cls-5" cx="195.13" cy="264.94" r="3.6"/><circle class="cls-5" cx="202.58" cy="268.01" r="1.95"/><g class="cls-6"><path class="cls-7" d="M320.17,117.24c43.5,27.06,72.62,75.32,72.62,130v63.1c0,84.17-68.87,153-153,153H163.6a151.66,151.66,0,0,1-61.8-13.11,151.86,151.86,0,0,0,80.41,23h76.16c84.17,0,153-68.86,153-153V257.16C411.4,195,373.78,141.1,320.17,117.24Z"/></g><g class="cls-8"><path class="cls-7" d="M41.43,120a65,65,0,0,1-25.12-45,65.3,65.3,0,0,0,25.12,58.74L75.77,160A65.24,65.24,0,0,1,67,139.52Z"/></g><rect class="cls-9" x="108.32" y="27.63" width="20.56" height="65.62" rx="10.28" transform="translate(6.95 132.93) rotate(-60)"/><circle class="cls-9" cx="247.54" cy="49.16" r="11.29"/><path class="cls-10" d="M76.17,246.42c6.07-.34,12.13-1.18,18.15-2a167.39,167.39,0,0,0,30.57-7,99.46,99.46,0,0,0,19.85-8.94c6.39-3.92,9.4-13,5.14-19.62-4.13-6.41-12.77-9.33-19.61-5.14a74.05,74.05,0,0,1-9.81,5l3.43-1.44c-12.29,5.12-25.5,7.9-38.64,9.68l3.81-.51c-4.28.57-8.58,1.08-12.89,1.32A15.15,15.15,0,0,0,66,221.94a14.57,14.57,0,0,0-4.2,10.14c.33,7.41,6.32,14.79,14.34,14.34Z"/><path class="cls-10" d="M250.91,220.75a183.42,183.42,0,0,1-33.7-1.51l3.81.51c-9.08-1.22-18.15-3.12-26.62-6.68l3.43,1.44c-.8-.34-1.59-.7-2.38-1.07-3.55-1.67-7.14-2.52-11-1.44a14.63,14.63,0,0,0-8.57,6.59c-1.76,3.33-2.64,7.36-1.44,11,1.09,3.37,3.25,7,6.59,8.57,12.15,5.74,24.85,8.34,38.12,9.95a201,201,0,0,0,26.64,1.41c1.72,0,3.45,0,5.17-.14a15.09,15.09,0,0,0,10.14-4.2,14.55,14.55,0,0,0,4.2-10.14c-.33-7.43-6.31-14.76-14.34-14.34Z"/><rect class="cls-4" x="151.72" y="212.97" width="22.28" height="6.24" rx="3.12" transform="translate(-53.23 378.95) rotate(-90)"/><path class="cls-11" d="M180.22,360.08c1.54-1.62,3.19-3.14,4.86-4.62A85.93,85.93,0,0,1,197,346.31c10.76-7.06,24.19-13.51,37.44-11.46,5.33.82,10.75-1.35,12.3-7,1.3-4.73-1.62-11.47-7-12.3-27.45-4.24-55.1,10.83-73.67,30.37-8.86,9.33,5.26,23.5,14.14,14.15Z"/></g></g></svg>