<svg xmlns="http://www.w3.org/2000/svg" xmlns:xlink="http://www.w3.org/1999/xlink" viewBox="0 0 347.76 788.32"><defs><style>.cls-1{fill:none;}.cls-2{fill:#9b9b9b;}.cls-3{opacity:0.1;}.cls-4{clip-path:url(#clip-path);}</style><clipPath id="clip-path"><rect class="cls-1" x="18.47" y="11.76" width="314.43" height="728.56" rx="72.55"/></clipPath></defs><title>Asset 70</title><g id="Layer_2" data-name="Layer 2"><g id="Layer_1-2" data-name="Layer 1"><rect class="cls-2" x="18.83" y="11.84" width="314.43" height="728.56" rx="72.55"/><g class="cls-3"><g class="cls-4"><rect x="34.68" width="14.99" height="14.99" rx="5.43"/><rect x="12.99" width="14.99" height="14.99" rx="5.43"/><rect x="79" width="14.99" height="14.99" rx="5.43"/><rect x="57.31" width="14.99" height="14.99" rx="5.43"/><rect x="122.94" width="14.99" height="14.99" rx="5.43"/><rect x="101.24" width="14.99" height="14.99" rx="5.43"/><rect x="167.26" width="14.99" height="14.99" rx="5.43"/><rect x="145.57" width="14.99" height="14.99" rx="5.43"/><rect x="188.64" width="14.99" height="14.99" rx="5.43"/><rect x="232.97" width="14.99" height="14.99" rx="5.43"/><rect x="211.28" width="14.99" height="14.99" rx="5.43"/><rect x="276.9" width="14.99" height="14.99" rx="5.43"/><rect x="255.21" width="14.99" height="14.99" rx="5.43"/><rect x="321.23" width="14.99" height="14.99" rx="5.43"/><rect x="299.53" width="14.99" height="14.99" rx="5.43"/><rect x="45.95" y="19.83" width="14.99" height="14.99" rx="5.43"/><rect x="24.26" y="19.83" width="14.99" height="14.99" rx="5.43"/><rect x="2.88" y="19.83" width="14.99" height="14.99" rx="5.43"/><rect x="90.28" y="19.83" width="14.99" height="14.99" rx="5.43"/><rect x="68.59" y="19.83" width="14.99" height="14.99" rx="5.43"/><rect x="134.21" y="19.83" width="14.99" height="14.99" rx="5.43"/><rect x="112.52" y="19.83" width="14.99" height="14.99" rx="5.43"/><rect x="178.54" y="19.83" width="14.99" height="14.99" rx="5.43"/><rect x="156.84" y="19.83" width="14.99" height="14.99" rx="5.43"/><rect x="199.92" y="19.83" width="14.99" height="14.99" rx="5.43"/><rect x="244.24" y="19.83" width="14.99" height="14.99" rx="5.43"/><rect x="222.55" y="19.83" width="14.99" height="14.99" rx="5.43"/><rect x="288.18" y="19.83" width="14.99" height="14.99" rx="5.43"/><rect x="266.49" y="19.83" width="14.99" height="14.99" rx="5.43"/><rect x="332.5" y="19.83" width="14.99" height="14.99" rx="5.43"/><rect x="310.81" y="19.83" width="14.99" height="14.99" rx="5.43"/><rect x="34.25" y="39.66" width="14.99" height="14.99" rx="5.43"/><rect x="12.56" y="39.66" width="14.99" height="14.99" rx="5.43"/><rect x="78.57" y="39.66" width="14.99" height="14.99" rx="5.43"/><rect x="56.88" y="39.66" width="14.99" height="14.99" rx="5.43"/><rect x="122.51" y="39.66" width="14.99" height="14.99" rx="5.43"/><rect x="100.82" y="39.66" width="14.99" height="14.99" rx="5.43"/><rect x="166.83" y="39.66" width="14.99" height="14.99" rx="5.43"/><rect x="145.14" y="39.66" width="14.99" height="14.99" rx="5.43"/><rect x="188.22" y="39.66" width="14.99" height="14.99" rx="5.43"/><rect x="232.54" y="39.66" width="14.99" height="14.99" rx="5.43"/><rect x="210.85" y="39.66" width="14.99" height="14.99" rx="5.43"/><rect x="276.47" y="39.66" width="14.99" height="14.99" rx="5.43"/><rect x="254.78" y="39.66" width="14.99" height="14.99" rx="5.43"/><rect x="320.8" y="39.66" width="14.99" height="14.99" rx="5.43"/><rect x="299.1" y="39.66" width="14.99" height="14.99" rx="5.43"/><rect x="45.52" y="59.49" width="14.99" height="14.99" rx="5.43"/><rect x="23.83" y="59.49" width="14.99" height="14.99" rx="5.43"/><rect x="2.45" y="59.49" width="14.99" height="14.99" rx="5.43"/><rect x="89.85" y="59.49" width="14.99" height="14.99" rx="5.43"/><rect x="68.16" y="59.49" width="14.99" height="14.99" rx="5.43"/><rect x="133.78" y="59.49" width="14.99" height="14.99" rx="5.43"/><rect x="112.09" y="59.49" width="14.99" height="14.99" rx="5.43"/><rect x="178.11" y="59.49" width="14.99" height="14.99" rx="5.43"/><rect x="156.41" y="59.49" width="14.99" height="14.99" rx="5.43"/><rect x="199.49" y="59.49" width="14.99" height="14.99" rx="5.43"/><rect x="243.81" y="59.49" width="14.99" height="14.99" rx="5.43"/><rect x="222.12" y="59.49" width="14.99" height="14.99" rx="5.43"/><rect x="287.75" y="59.49" width="14.99" height="14.99" rx="5.43"/><rect x="266.06" y="59.49" width="14.99" height="14.99" rx="5.43"/><rect x="332.07" y="59.49" width="14.99" height="14.99" rx="5.43"/><rect x="310.38" y="59.49" width="14.99" height="14.99" rx="5.43"/><rect x="34.03" y="79.32" width="14.99" height="14.99" rx="5.43"/><rect x="12.34" y="79.32" width="14.99" height="14.99" rx="5.43"/><rect x="78.36" y="79.32" width="14.99" height="14.99" rx="5.43"/><rect x="56.67" y="79.32" width="14.99" height="14.99" rx="5.43"/><rect x="122.29" y="79.32" width="14.99" height="14.99" rx="5.43"/><rect x="100.6" y="79.32" width="14.99" height="14.99" rx="5.43"/><rect x="166.62" y="79.32" width="14.99" height="14.99" rx="5.43"/><rect x="144.92" y="79.32" width="14.99" height="14.99" rx="5.43"/><rect x="188" y="79.32" width="14.99" height="14.99" rx="5.43"/><rect x="232.32" y="79.32" width="14.99" height="14.99" rx="5.43"/><rect x="210.63" y="79.32" width="14.99" height="14.99" rx="5.43"/><rect x="276.26" y="79.32" width="14.99" height="14.99" rx="5.43"/><rect x="254.57" y="79.32" width="14.99" height="14.99" rx="5.43"/><rect x="320.58" y="79.32" width="14.99" height="14.99" rx="5.43"/><rect x="298.89" y="79.32" width="14.99" height="14.99" rx="5.43"/><rect x="45.31" y="99.14" width="14.99" height="14.99" rx="5.43"/><rect x="23.62" y="99.14" width="14.99" height="14.99" rx="5.43"/><rect x="2.23" y="99.14" width="14.99" height="14.99" rx="5.43"/><rect x="89.63" y="99.14" width="14.99" height="14.99" rx="5.43"/><rect x="67.94" y="99.14" width="14.99" height="14.99" rx="5.43"/><rect x="133.57" y="99.14" width="14.99" height="14.99" rx="5.43"/><rect x="111.88" y="99.14" width="14.99" height="14.99" rx="5.43"/><rect x="177.89" y="99.14" width="14.99" height="14.99" rx="5.43"/><rect x="156.2" y="99.14" width="14.99" height="14.99" rx="5.43"/><rect x="199.28" y="99.14" width="14.99" height="14.99" rx="5.43"/><rect x="243.6" y="99.14" width="14.99" height="14.99" rx="5.43"/><rect x="221.91" y="99.14" width="14.99" height="14.99" rx="5.43"/><rect x="287.53" y="99.14" width="14.99" height="14.99" rx="5.43"/><rect x="265.84" y="99.14" width="14.99" height="14.99" rx="5.43"/><rect x="331.86" y="99.14" width="14.99" height="14.99" rx="5.43"/><rect x="310.17" y="99.14" width="14.99" height="14.99" rx="5.43"/><rect x="33.61" y="118.97" width="14.99" height="14.99" rx="5.43"/><rect x="11.91" y="118.97" width="14.99" height="14.99" rx="5.43"/><rect x="77.93" y="118.97" width="14.99" height="14.99" rx="5.43"/><rect x="56.24" y="118.97" width="14.99" height="14.99" rx="5.43"/><rect x="121.86" y="118.97" width="14.99" height="14.99" rx="5.43"/><rect x="100.17" y="118.97" width="14.99" height="14.99" rx="5.43"/><rect x="166.19" y="118.97" width="14.99" height="14.99" rx="5.43"/><rect x="144.5" y="118.97" width="14.99" height="14.99" rx="5.43"/><rect x="187.57" y="118.97" width="14.99" height="14.99" rx="5.43"/><rect x="231.89" y="118.97" width="14.99" height="14.99" rx="5.43"/><rect x="210.2" y="118.97" width="14.99" height="14.99" rx="5.43"/><rect x="275.83" y="118.97" width="14.99" height="14.99" rx="5.43"/><rect x="254.14" y="118.97" width="14.99" height="14.99" rx="5.43"/><rect x="320.15" y="118.97" width="14.99" height="14.99" rx="5.43"/><rect x="298.46" y="118.97" width="14.99" height="14.99" rx="5.43"/><rect x="44.88" y="138.8" width="14.99" height="14.99" rx="5.43"/><rect x="23.19" y="138.8" width="14.99" height="14.99" rx="5.43"/><rect x="1.8" y="138.8" width="14.99" height="14.99" rx="5.43"/><rect x="89.2" y="138.8" width="14.99" height="14.99" rx="5.43"/><rect x="67.51" y="138.8" width="14.99" height="14.99" rx="5.43"/><rect x="133.14" y="138.8" width="14.99" height="14.99" rx="5.43"/><rect x="111.45" y="138.8" width="14.99" height="14.99" rx="5.43"/><rect x="177.46" y="138.8" width="14.99" height="14.99" rx="5.43"/><rect x="155.77" y="138.8" width="14.99" height="14.99" rx="5.43"/><rect x="198.85" y="138.8" width="14.99" height="14.99" rx="5.43"/><rect x="243.17" y="138.8" width="14.99" height="14.99" rx="5.43"/><rect x="221.48" y="138.8" width="14.99" height="14.99" rx="5.43"/><rect x="287.1" y="138.8" width="14.99" height="14.99" rx="5.43"/><rect x="265.41" y="138.8" width="14.99" height="14.99" rx="5.43"/><rect x="331.43" y="138.8" width="14.99" height="14.99" rx="5.43"/><rect x="309.74" y="138.8" width="14.99" height="14.99" rx="5.43"/><rect x="34.79" y="158.63" width="14.99" height="14.99" rx="5.43"/><rect x="13.09" y="158.63" width="14.99" height="14.99" rx="5.43"/><rect x="79.11" y="158.63" width="14.99" height="14.99" rx="5.43"/><rect x="57.42" y="158.63" width="14.99" height="14.99" rx="5.43"/><rect x="123.04" y="158.63" width="14.99" height="14.99" rx="5.43"/><rect x="101.35" y="158.63" width="14.99" height="14.99" rx="5.43"/><rect x="167.37" y="158.63" width="14.99" height="14.99" rx="5.43"/><rect x="145.68" y="158.63" width="14.99" height="14.99" rx="5.43"/><rect x="188.75" y="158.63" width="14.99" height="14.99" rx="5.43"/><rect x="233.08" y="158.63" width="14.99" height="14.99" rx="5.43"/><rect x="211.38" y="158.63" width="14.99" height="14.99" rx="5.43"/><rect x="277.01" y="158.63" width="14.99" height="14.99" rx="5.43"/><rect x="255.32" y="158.63" width="14.99" height="14.99" rx="5.43"/><rect x="321.33" y="158.63" width="14.99" height="14.99" rx="5.43"/><rect x="299.64" y="158.63" width="14.99" height="14.99" rx="5.43"/><rect x="46.06" y="178.46" width="14.99" height="14.99" rx="5.43"/><rect x="24.37" y="178.46" width="14.99" height="14.99" rx="5.43"/><rect x="2.98" y="178.46" width="14.99" height="14.99" rx="5.43"/><rect x="90.38" y="178.46" width="14.99" height="14.99" rx="5.43"/><rect x="68.69" y="178.46" width="14.99" height="14.99" rx="5.43"/><rect x="134.32" y="178.46" width="14.99" height="14.99" rx="5.43"/><rect x="112.63" y="178.46" width="14.99" height="14.99" rx="5.43"/><rect x="178.64" y="178.46" width="14.99" height="14.99" rx="5.43"/><rect x="156.95" y="178.46" width="14.99" height="14.99" rx="5.43"/><rect x="200.03" y="178.46" width="14.99" height="14.99" rx="5.43"/><rect x="244.35" y="178.46" width="14.99" height="14.99" rx="5.43"/><rect x="222.66" y="178.46" width="14.99" height="14.99" rx="5.43"/><rect x="288.29" y="178.46" width="14.99" height="14.99" rx="5.43"/><rect x="266.59" y="178.46" width="14.99" height="14.99" rx="5.43"/><rect x="332.61" y="178.46" width="14.99" height="14.99" rx="5.43"/><rect x="310.92" y="178.46" width="14.99" height="14.99" rx="5.43"/><rect x="34.36" y="198.29" width="14.99" height="14.99" rx="5.43"/><rect x="12.66" y="198.29" width="14.99" height="14.99" rx="5.43"/><rect x="78.68" y="198.29" width="14.99" height="14.99" rx="5.43"/><rect x="56.99" y="198.29" width="14.99" height="14.99" rx="5.43"/><rect x="122.61" y="198.29" width="14.99" height="14.99" rx="5.43"/><rect x="100.92" y="198.29" width="14.99" height="14.99" rx="5.43"/><rect x="166.94" y="198.29" width="14.99" height="14.99" rx="5.43"/><rect x="145.25" y="198.29" width="14.99" height="14.99" rx="5.43"/><rect x="188.32" y="198.29" width="14.99" height="14.99" rx="5.43"/><rect x="232.65" y="198.29" width="14.99" height="14.99" rx="5.43"/><rect x="210.95" y="198.29" width="14.99" height="14.99" rx="5.43"/><rect x="276.58" y="198.29" width="14.99" height="14.99" rx="5.43"/><rect x="254.89" y="198.29" width="14.99" height="14.99" rx="5.43"/><rect x="320.9" y="198.29" width="14.99" height="14.99" rx="5.43"/><rect x="299.21" y="198.29" width="14.99" height="14.99" rx="5.43"/><rect x="45.63" y="218.12" width="14.99" height="14.99" rx="5.43"/><rect x="23.94" y="218.12" width="14.99" height="14.99" rx="5.43"/><rect x="2.56" y="218.12" width="14.99" height="14.99" rx="5.43"/><rect x="89.96" y="218.12" width="14.99" height="14.99" rx="5.43"/><rect x="68.26" y="218.12" width="14.99" height="14.99" rx="5.43"/><rect x="133.89" y="218.12" width="14.99" height="14.99" rx="5.43"/><rect x="112.2" y="218.12" width="14.99" height="14.99" rx="5.43"/><rect x="178.21" y="218.12" width="14.99" height="14.99" rx="5.43"/><rect x="156.52" y="218.12" width="14.99" height="14.99" rx="5.43"/><rect x="199.6" y="218.12" width="14.99" height="14.99" rx="5.43"/><rect x="243.92" y="218.12" width="14.99" height="14.99" rx="5.43"/><rect x="222.23" y="218.12" width="14.99" height="14.99" rx="5.43"/><rect x="287.86" y="218.12" width="14.99" height="14.99" rx="5.43"/><rect x="266.16" y="218.12" width="14.99" height="14.99" rx="5.43"/><rect x="332.18" y="218.12" width="14.99" height="14.99" rx="5.43"/><rect x="310.49" y="218.12" width="14.99" height="14.99" rx="5.43"/><rect x="34.14" y="237.95" width="14.99" height="14.99" rx="5.43"/><rect x="12.45" y="237.95" width="14.99" height="14.99" rx="5.43"/><rect x="78.47" y="237.95" width="14.99" height="14.99" rx="5.43"/><rect x="56.77" y="237.95" width="14.99" height="14.99" rx="5.43"/><rect x="122.4" y="237.95" width="14.99" height="14.99" rx="5.43"/><rect x="100.71" y="237.95" width="14.99" height="14.99" rx="5.43"/><rect x="166.72" y="237.95" width="14.99" height="14.99" rx="5.43"/><rect x="145.03" y="237.95" width="14.99" height="14.99" rx="5.43"/><rect x="188.11" y="237.95" width="14.99" height="14.99" rx="5.43"/><rect x="232.43" y="237.95" width="14.99" height="14.99" rx="5.43"/><rect x="210.74" y="237.95" width="14.99" height="14.99" rx="5.43"/><rect x="276.37" y="237.95" width="14.99" height="14.99" rx="5.43"/><rect x="254.67" y="237.95" width="14.99" height="14.99" rx="5.43"/><rect x="320.69" y="237.95" width="14.99" height="14.99" rx="5.43"/><rect x="299" y="237.95" width="14.99" height="14.99" rx="5.43"/><rect x="45.42" y="257.78" width="14.99" height="14.99" rx="5.43"/><rect x="23.73" y="257.78" width="14.99" height="14.99" rx="5.43"/><rect x="2.34" y="257.78" width="14.99" height="14.99" rx="5.43"/><rect x="89.74" y="257.78" width="14.99" height="14.99" rx="5.43"/><rect x="68.05" y="257.78" width="14.99" height="14.99" rx="5.43"/><rect x="133.68" y="257.78" width="14.99" height="14.99" rx="5.43"/><rect x="111.98" y="257.78" width="14.99" height="14.99" rx="5.43"/><rect x="178" y="257.78" width="14.99" height="14.99" rx="5.43"/><rect x="156.31" y="257.78" width="14.99" height="14.99" rx="5.43"/><rect x="199.38" y="257.78" width="14.99" height="14.99" rx="5.43"/><rect x="243.71" y="257.78" width="14.99" height="14.99" rx="5.43"/><rect x="222.01" y="257.78" width="14.99" height="14.99" rx="5.43"/><rect x="287.64" y="257.78" width="14.99" height="14.99" rx="5.43"/><rect x="265.95" y="257.78" width="14.99" height="14.99" rx="5.43"/><rect x="331.96" y="257.78" width="14.99" height="14.99" rx="5.43"/><rect x="310.27" y="257.78" width="14.99" height="14.99" rx="5.43"/><rect x="33.71" y="277.6" width="14.99" height="14.99" rx="5.43"/><rect x="12.02" y="277.6" width="14.99" height="14.99" rx="5.43"/><rect x="78.04" y="277.6" width="14.99" height="14.99" rx="5.43"/><rect x="56.34" y="277.6" width="14.99" height="14.99" rx="5.43"/><rect x="121.97" y="277.6" width="14.99" height="14.99" rx="5.43"/><rect x="100.28" y="277.6" width="14.99" height="14.99" rx="5.43"/><rect x="166.29" y="277.6" width="14.99" height="14.99" rx="5.43"/><rect x="144.6" y="277.6" width="14.99" height="14.99" rx="5.43"/><rect x="187.68" y="277.6" width="14.99" height="14.99" rx="5.43"/><rect x="232" y="277.6" width="14.99" height="14.99" rx="5.43"/><rect x="210.31" y="277.6" width="14.99" height="14.99" rx="5.43"/><rect x="275.94" y="277.6" width="14.99" height="14.99" rx="5.43"/><rect x="254.24" y="277.6" width="14.99" height="14.99" rx="5.43"/><rect x="320.26" y="277.6" width="14.99" height="14.99" rx="5.43"/><rect x="298.57" y="277.6" width="14.99" height="14.99" rx="5.43"/><rect x="44.99" y="297.43" width="14.99" height="14.99" rx="5.43"/><rect x="23.3" y="297.43" width="14.99" height="14.99" rx="5.43"/><rect x="1.91" y="297.43" width="14.99" height="14.99" rx="5.43"/><rect x="89.31" y="297.43" width="14.99" height="14.99" rx="5.43"/><rect x="67.62" y="297.43" width="14.99" height="14.99" rx="5.43"/><rect x="133.25" y="297.43" width="14.99" height="14.99" rx="5.43"/><rect x="111.55" y="297.43" width="14.99" height="14.99" rx="5.43"/><rect x="177.57" y="297.43" width="14.99" height="14.99" rx="5.43"/><rect x="155.88" y="297.43" width="14.99" height="14.99" rx="5.43"/><rect x="198.95" y="297.43" width="14.99" height="14.99" rx="5.43"/><rect x="243.28" y="297.43" width="14.99" height="14.99" rx="5.43"/><rect x="221.59" y="297.43" width="14.99" height="14.99" rx="5.43"/><rect x="287.21" y="297.43" width="14.99" height="14.99" rx="5.43"/><rect x="265.52" y="297.43" width="14.99" height="14.99" rx="5.43"/><rect x="331.54" y="297.43" width="14.99" height="14.99" rx="5.43"/><rect x="309.84" y="297.43" width="14.99" height="14.99" rx="5.43"/><rect x="34.84" y="317.26" width="14.99" height="14.99" rx="5.43"/><rect x="13.15" y="317.26" width="14.99" height="14.99" rx="5.43"/><rect x="79.16" y="317.26" width="14.99" height="14.99" rx="5.43"/><rect x="57.47" y="317.26" width="14.99" height="14.99" rx="5.43"/><rect x="123.1" y="317.26" width="14.99" height="14.99" rx="5.43"/><rect x="101.41" y="317.26" width="14.99" height="14.99" rx="5.43"/><rect x="167.42" y="317.26" width="14.99" height="14.99" rx="5.43"/><rect x="145.73" y="317.26" width="14.99" height="14.99" rx="5.43"/><rect x="188.81" y="317.26" width="14.99" height="14.99" rx="5.43"/><rect x="233.13" y="317.26" width="14.99" height="14.99" rx="5.43"/><rect x="211.44" y="317.26" width="14.99" height="14.99" rx="5.43"/><rect x="277.06" y="317.26" width="14.99" height="14.99" rx="5.43"/><rect x="255.37" y="317.26" width="14.99" height="14.99" rx="5.43"/><rect x="321.39" y="317.26" width="14.99" height="14.99" rx="5.43"/><rect x="299.69" y="317.26" width="14.99" height="14.99" rx="5.43"/><rect x="46.11" y="337.09" width="14.99" height="14.99" rx="5.43"/><rect x="24.42" y="337.09" width="14.99" height="14.99" rx="5.43"/><rect x="3.04" y="337.09" width="14.99" height="14.99" rx="5.43"/><rect x="90.44" y="337.09" width="14.99" height="14.99" rx="5.43"/><rect x="68.75" y="337.09" width="14.99" height="14.99" rx="5.43"/><rect x="134.37" y="337.09" width="14.99" height="14.99" rx="5.43"/><rect x="112.68" y="337.09" width="14.99" height="14.99" rx="5.43"/><rect x="178.7" y="337.09" width="14.99" height="14.99" rx="5.43"/><rect x="157" y="337.09" width="14.99" height="14.99" rx="5.43"/><rect x="200.08" y="337.09" width="14.99" height="14.99" rx="5.43"/><rect x="244.4" y="337.09" width="14.99" height="14.99" rx="5.43"/><rect x="222.71" y="337.09" width="14.99" height="14.99" rx="5.43"/><rect x="288.34" y="337.09" width="14.99" height="14.99" rx="5.43"/><rect x="266.65" y="337.09" width="14.99" height="14.99" rx="5.43"/><rect x="332.66" y="337.09" width="14.99" height="14.99" rx="5.43"/><rect x="310.97" y="337.09" width="14.99" height="14.99" rx="5.43"/><rect x="34.41" y="356.92" width="14.99" height="14.99" rx="5.43"/><rect x="12.72" y="356.92" width="14.99" height="14.99" rx="5.43"/><rect x="78.73" y="356.92" width="14.99" height="14.99" rx="5.43"/><rect x="57.04" y="356.92" width="14.99" height="14.99" rx="5.43"/><rect x="122.67" y="356.92" width="14.99" height="14.99" rx="5.43"/><rect x="100.98" y="356.92" width="14.99" height="14.99" rx="5.43"/><rect x="166.99" y="356.92" width="14.99" height="14.99" rx="5.43"/><rect x="145.3" y="356.92" width="14.99" height="14.99" rx="5.43"/><rect x="188.38" y="356.92" width="14.99" height="14.99" rx="5.43"/><rect x="232.7" y="356.92" width="14.99" height="14.99" rx="5.43"/><rect x="211.01" y="356.92" width="14.99" height="14.99" rx="5.43"/><rect x="276.63" y="356.92" width="14.99" height="14.99" rx="5.43"/><rect x="254.94" y="356.92" width="14.99" height="14.99" rx="5.43"/><rect x="320.96" y="356.92" width="14.99" height="14.99" rx="5.43"/><rect x="299.27" y="356.92" width="14.99" height="14.99" rx="5.43"/><rect x="45.69" y="376.75" width="14.99" height="14.99" rx="5.43"/><rect x="23.99" y="376.75" width="14.99" height="14.99" rx="5.43"/><rect x="2.61" y="376.75" width="14.99" height="14.99" rx="5.43"/><rect x="90.01" y="376.75" width="14.99" height="14.99" rx="5.43"/><rect x="68.32" y="376.75" width="14.99" height="14.99" rx="5.43"/><rect x="133.94" y="376.75" width="14.99" height="14.99" rx="5.43"/><rect x="112.25" y="376.75" width="14.99" height="14.99" rx="5.43"/><rect x="178.27" y="376.75" width="14.99" height="14.99" rx="5.43"/><rect x="156.58" y="376.75" width="14.99" height="14.99" rx="5.43"/><rect x="199.65" y="376.75" width="14.99" height="14.99" rx="5.43"/><rect x="243.97" y="376.75" width="14.99" height="14.99" rx="5.43"/><rect x="222.28" y="376.75" width="14.99" height="14.99" rx="5.43"/><rect x="287.91" y="376.75" width="14.99" height="14.99" rx="5.43"/><rect x="266.22" y="376.75" width="14.99" height="14.99" rx="5.43"/><rect x="332.23" y="376.75" width="14.99" height="14.99" rx="5.43"/><rect x="310.54" y="376.75" width="14.99" height="14.99" rx="5.43"/><rect x="34.2" y="396.58" width="14.99" height="14.99" rx="5.43"/><rect x="12.5" y="396.58" width="14.99" height="14.99" rx="5.43"/><rect x="78.52" y="396.58" width="14.99" height="14.99" rx="5.43"/><rect x="56.83" y="396.58" width="14.99" height="14.99" rx="5.43"/><rect x="122.45" y="396.58" width="14.99" height="14.99" rx="5.43"/><rect x="100.76" y="396.58" width="14.99" height="14.99" rx="5.43"/><rect x="166.78" y="396.58" width="14.99" height="14.99" rx="5.43"/><rect x="145.09" y="396.58" width="14.99" height="14.99" rx="5.43"/><rect x="188.16" y="396.58" width="14.99" height="14.99" rx="5.43"/><rect x="232.49" y="396.58" width="14.99" height="14.99" rx="5.43"/><rect x="210.79" y="396.58" width="14.99" height="14.99" rx="5.43"/><rect x="276.42" y="396.58" width="14.99" height="14.99" rx="5.43"/><rect x="254.73" y="396.58" width="14.99" height="14.99" rx="5.43"/><rect x="320.74" y="396.58" width="14.99" height="14.99" rx="5.43"/><rect x="299.05" y="396.58" width="14.99" height="14.99" rx="5.43"/><rect x="45.47" y="416.41" width="14.99" height="14.99" rx="5.43"/><rect x="23.78" y="416.41" width="14.99" height="14.99" rx="5.43"/><rect x="2.39" y="416.41" width="14.99" height="14.99" rx="5.43"/><rect x="89.79" y="416.41" width="14.99" height="14.99" rx="5.43"/><rect x="68.1" y="416.41" width="14.99" height="14.99" rx="5.43"/><rect x="133.73" y="416.41" width="14.99" height="14.99" rx="5.43"/><rect x="112.04" y="416.41" width="14.99" height="14.99" rx="5.43"/><rect x="178.05" y="416.41" width="14.99" height="14.99" rx="5.43"/><rect x="156.36" y="416.41" width="14.99" height="14.99" rx="5.43"/><rect x="199.44" y="416.41" width="14.99" height="14.99" rx="5.43"/><rect x="243.76" y="416.41" width="14.99" height="14.99" rx="5.43"/><rect x="222.07" y="416.41" width="14.99" height="14.99" rx="5.43"/><rect x="287.69" y="416.41" width="14.99" height="14.99" rx="5.43"/><rect x="266" y="416.41" width="14.99" height="14.99" rx="5.43"/><rect x="332.02" y="416.41" width="14.99" height="14.99" rx="5.43"/><rect x="310.33" y="416.41" width="14.99" height="14.99" rx="5.43"/><rect x="33.77" y="436.24" width="14.99" height="14.99" rx="5.43"/><rect x="12.07" y="436.24" width="14.99" height="14.99" rx="5.43"/><rect x="78.09" y="436.24" width="14.99" height="14.99" rx="5.43"/><rect x="56.4" y="436.24" width="14.99" height="14.99" rx="5.43"/><rect x="122.02" y="436.24" width="14.99" height="14.99" rx="5.43"/><rect x="100.33" y="436.24" width="14.99" height="14.99" rx="5.43"/><rect x="166.35" y="436.24" width="14.99" height="14.99" rx="5.43"/><rect x="144.66" y="436.24" width="14.99" height="14.99" rx="5.43"/><rect x="187.73" y="436.24" width="14.99" height="14.99" rx="5.43"/><rect x="232.06" y="436.24" width="14.99" height="14.99" rx="5.43"/><rect x="210.36" y="436.24" width="14.99" height="14.99" rx="5.43"/><rect x="275.99" y="436.24" width="14.99" height="14.99" rx="5.43"/><rect x="254.3" y="436.24" width="14.99" height="14.99" rx="5.43"/><rect x="320.31" y="436.24" width="14.99" height="14.99" rx="5.43"/><rect x="298.62" y="436.24" width="14.99" height="14.99" rx="5.43"/><rect x="45.04" y="456.07" width="14.99" height="14.99" rx="5.43"/><rect x="23.35" y="456.07" width="14.99" height="14.99" rx="5.43"/><rect x="1.97" y="456.07" width="14.99" height="14.99" rx="5.43"/><rect x="89.37" y="456.07" width="14.99" height="14.99" rx="5.43"/><rect x="67.67" y="456.07" width="14.99" height="14.99" rx="5.43"/><rect x="133.3" y="456.07" width="14.99" height="14.99" rx="5.43"/><rect x="111.61" y="456.07" width="14.99" height="14.99" rx="5.43"/><rect x="177.62" y="456.07" width="14.99" height="14.99" rx="5.43"/><rect x="155.93" y="456.07" width="14.99" height="14.99" rx="5.43"/><rect x="199.01" y="456.07" width="14.99" height="14.99" rx="5.43"/><rect x="243.33" y="456.07" width="14.99" height="14.99" rx="5.43"/><rect x="221.64" y="456.07" width="14.99" height="14.99" rx="5.43"/><rect x="287.27" y="456.07" width="14.99" height="14.99" rx="5.43"/><rect x="265.57" y="456.07" width="14.99" height="14.99" rx="5.43"/><rect x="331.59" y="456.07" width="14.99" height="14.99" rx="5.43"/><rect x="309.9" y="456.07" width="14.99" height="14.99" rx="5.43"/><rect x="34.95" y="475.89" width="14.99" height="14.99" rx="5.43"/><rect x="13.25" y="475.89" width="14.99" height="14.99" rx="5.43"/><rect x="79.27" y="475.89" width="14.99" height="14.99" rx="5.43"/><rect x="57.58" y="475.89" width="14.99" height="14.99" rx="5.43"/><rect x="123.21" y="475.89" width="14.99" height="14.99" rx="5.43"/><rect x="101.51" y="475.89" width="14.99" height="14.99" rx="5.43"/><rect x="167.53" y="475.89" width="14.99" height="14.99" rx="5.43"/><rect x="145.84" y="475.89" width="14.99" height="14.99" rx="5.43"/><rect x="188.91" y="475.89" width="14.99" height="14.99" rx="5.43"/><rect x="233.24" y="475.89" width="14.99" height="14.99" rx="5.43"/><rect x="211.54" y="475.89" width="14.99" height="14.99" rx="5.43"/><rect x="277.17" y="475.89" width="14.99" height="14.99" rx="5.43"/><rect x="255.48" y="475.89" width="14.99" height="14.99" rx="5.43"/><rect x="321.49" y="475.89" width="14.99" height="14.99" rx="5.43"/><rect x="299.8" y="475.89" width="14.99" height="14.99" rx="5.43"/><rect x="46.22" y="495.72" width="14.99" height="14.99" rx="5.43"/><rect x="24.53" y="495.72" width="14.99" height="14.99" rx="5.43"/><rect x="3.15" y="495.72" width="14.99" height="14.99" rx="5.43"/><rect x="90.55" y="495.72" width="14.99" height="14.99" rx="5.43"/><rect x="68.85" y="495.72" width="14.99" height="14.99" rx="5.43"/><rect x="134.48" y="495.72" width="14.99" height="14.99" rx="5.43"/><rect x="112.79" y="495.72" width="14.99" height="14.99" rx="5.43"/><rect x="178.8" y="495.72" width="14.99" height="14.99" rx="5.43"/><rect x="157.11" y="495.72" width="14.99" height="14.99" rx="5.43"/><rect x="200.19" y="495.72" width="14.99" height="14.99" rx="5.43"/><rect x="244.51" y="495.72" width="14.99" height="14.99" rx="5.43"/><rect x="222.82" y="495.72" width="14.99" height="14.99" rx="5.43"/><rect x="288.45" y="495.72" width="14.99" height="14.99" rx="5.43"/><rect x="266.75" y="495.72" width="14.99" height="14.99" rx="5.43"/><rect x="332.77" y="495.72" width="14.99" height="14.99" rx="5.43"/><rect x="311.08" y="495.72" width="14.99" height="14.99" rx="5.43"/><rect x="34.52" y="515.55" width="14.99" height="14.99" rx="5.43"/><rect x="12.83" y="515.55" width="14.99" height="14.99" rx="5.43"/><rect x="78.84" y="515.55" width="14.99" height="14.99" rx="5.43"/><rect x="57.15" y="515.55" width="14.99" height="14.99" rx="5.43"/><rect x="122.78" y="515.55" width="14.99" height="14.99" rx="5.43"/><rect x="101.08" y="515.55" width="14.99" height="14.99" rx="5.43"/><rect x="167.1" y="515.55" width="14.99" height="14.99" rx="5.43"/><rect x="145.41" y="515.55" width="14.99" height="14.99" rx="5.43"/><rect x="188.48" y="515.55" width="14.99" height="14.99" rx="5.43"/><rect x="232.81" y="515.55" width="14.99" height="14.99" rx="5.43"/><rect x="211.11" y="515.55" width="14.99" height="14.99" rx="5.43"/><rect x="276.74" y="515.55" width="14.99" height="14.99" rx="5.43"/><rect x="255.05" y="515.55" width="14.99" height="14.99" rx="5.43"/><rect x="321.07" y="515.55" width="14.99" height="14.99" rx="5.43"/><rect x="299.37" y="515.55" width="14.99" height="14.99" rx="5.43"/><rect x="45.79" y="535.38" width="14.99" height="14.99" rx="5.43"/><rect x="24.1" y="535.38" width="14.99" height="14.99" rx="5.43"/><rect x="2.72" y="535.38" width="14.99" height="14.99" rx="5.43"/><rect x="90.12" y="535.38" width="14.99" height="14.99" rx="5.43"/><rect x="68.42" y="535.38" width="14.99" height="14.99" rx="5.43"/><rect x="134.05" y="535.38" width="14.99" height="14.99" rx="5.43"/><rect x="112.36" y="535.38" width="14.99" height="14.99" rx="5.43"/><rect x="178.37" y="535.38" width="14.99" height="14.99" rx="5.43"/><rect x="156.68" y="535.38" width="14.99" height="14.99" rx="5.43"/><rect x="199.76" y="535.38" width="14.99" height="14.99" rx="5.43"/><rect x="244.08" y="535.38" width="14.99" height="14.99" rx="5.43"/><rect x="222.39" y="535.38" width="14.99" height="14.99" rx="5.43"/><rect x="288.02" y="535.38" width="14.99" height="14.99" rx="5.43"/><rect x="266.32" y="535.38" width="14.99" height="14.99" rx="5.43"/><rect x="332.34" y="535.38" width="14.99" height="14.99" rx="5.43"/><rect x="310.65" y="535.38" width="14.99" height="14.99" rx="5.43"/><rect x="34.3" y="555.21" width="14.99" height="14.99" rx="5.43"/><rect x="12.61" y="555.21" width="14.99" height="14.99" rx="5.43"/><rect x="78.63" y="555.21" width="14.99" height="14.99" rx="5.43"/><rect x="56.93" y="555.21" width="14.99" height="14.99" rx="5.43"/><rect x="122.56" y="555.21" width="14.99" height="14.99" rx="5.43"/><rect x="100.87" y="555.21" width="14.99" height="14.99" rx="5.43"/><rect x="166.88" y="555.21" width="14.99" height="14.99" rx="5.43"/><rect x="145.19" y="555.21" width="14.99" height="14.99" rx="5.43"/><rect x="188.27" y="555.21" width="14.99" height="14.99" rx="5.43"/><rect x="232.59" y="555.21" width="14.99" height="14.99" rx="5.43"/><rect x="210.9" y="555.21" width="14.99" height="14.99" rx="5.43"/><rect x="276.53" y="555.21" width="14.99" height="14.99" rx="5.43"/><rect x="254.83" y="555.21" width="14.99" height="14.99" rx="5.43"/><rect x="320.85" y="555.21" width="14.99" height="14.99" rx="5.43"/><rect x="299.16" y="555.21" width="14.99" height="14.99" rx="5.43"/><rect x="45.58" y="575.04" width="14.99" height="14.99" rx="5.43"/><rect x="23.89" y="575.04" width="14.99" height="14.99" rx="5.43"/><rect x="2.5" y="575.04" width="14.99" height="14.99" rx="5.43"/><rect x="89.9" y="575.04" width="14.99" height="14.99" rx="5.43"/><rect x="68.21" y="575.04" width="14.99" height="14.99" rx="5.43"/><rect x="133.84" y="575.04" width="14.99" height="14.99" rx="5.43"/><rect x="112.14" y="575.04" width="14.99" height="14.99" rx="5.43"/><rect x="178.16" y="575.04" width="14.99" height="14.99" rx="5.43"/><rect x="156.47" y="575.04" width="14.99" height="14.99" rx="5.43"/><rect x="199.54" y="575.04" width="14.99" height="14.99" rx="5.43"/><rect x="243.87" y="575.04" width="14.99" height="14.99" rx="5.43"/><rect x="222.18" y="575.04" width="14.99" height="14.99" rx="5.43"/><rect x="287.8" y="575.04" width="14.99" height="14.99" rx="5.43"/><rect x="266.11" y="575.04" width="14.99" height="14.99" rx="5.43"/><rect x="332.13" y="575.04" width="14.99" height="14.99" rx="5.43"/><rect x="310.43" y="575.04" width="14.99" height="14.99" rx="5.43"/><rect x="33.87" y="594.87" width="14.99" height="14.99" rx="5.43"/><rect x="12.18" y="594.87" width="14.99" height="14.99" rx="5.43"/><rect x="78.2" y="594.87" width="14.99" height="14.99" rx="5.43"/><rect x="56.51" y="594.87" width="14.99" height="14.99" rx="5.43"/><rect x="122.13" y="594.87" width="14.99" height="14.99" rx="5.43"/><rect x="100.44" y="594.87" width="14.99" height="14.99" rx="5.43"/><rect x="166.46" y="594.87" width="14.99" height="14.99" rx="5.43"/><rect x="144.76" y="594.87" width="14.99" height="14.99" rx="5.43"/><rect x="187.84" y="594.87" width="14.99" height="14.99" rx="5.43"/><rect x="232.16" y="594.87" width="14.99" height="14.99" rx="5.43"/><rect x="210.47" y="594.87" width="14.99" height="14.99" rx="5.43"/><rect x="276.1" y="594.87" width="14.99" height="14.99" rx="5.43"/><rect x="254.41" y="594.87" width="14.99" height="14.99" rx="5.43"/><rect x="320.42" y="594.87" width="14.99" height="14.99" rx="5.43"/><rect x="298.73" y="594.87" width="14.99" height="14.99" rx="5.43"/><rect x="45.15" y="614.7" width="14.99" height="14.99" rx="5.43"/><rect x="23.46" y="614.7" width="14.99" height="14.99" rx="5.43"/><rect x="2.07" y="614.7" width="14.99" height="14.99" rx="5.43"/><rect x="89.47" y="614.7" width="14.99" height="14.99" rx="5.43"/><rect x="67.78" y="614.7" width="14.99" height="14.99" rx="5.43"/><rect x="133.41" y="614.7" width="14.99" height="14.99" rx="5.43"/><rect x="111.72" y="614.7" width="14.99" height="14.99" rx="5.43"/><rect x="177.73" y="614.7" width="14.99" height="14.99" rx="5.43"/><rect x="156.04" y="614.7" width="14.99" height="14.99" rx="5.43"/><rect x="199.11" y="614.7" width="14.99" height="14.99" rx="5.43"/><rect x="243.44" y="614.7" width="14.99" height="14.99" rx="5.43"/><rect x="221.75" y="614.7" width="14.99" height="14.99" rx="5.43"/><rect x="287.37" y="614.7" width="14.99" height="14.99" rx="5.43"/><rect x="265.68" y="614.7" width="14.99" height="14.99" rx="5.43"/><rect x="331.7" y="614.7" width="14.99" height="14.99" rx="5.43"/><rect x="310" y="614.7" width="14.99" height="14.99" rx="5.43"/><rect x="32.87" y="634.53" width="14.99" height="14.99" rx="5.43"/><rect x="11.18" y="634.53" width="14.99" height="14.99" rx="5.43"/><rect x="77.2" y="634.53" width="14.99" height="14.99" rx="5.43"/><rect x="55.51" y="634.53" width="14.99" height="14.99" rx="5.43"/><rect x="121.13" y="634.53" width="14.99" height="14.99" rx="5.43"/><rect x="99.44" y="634.53" width="14.99" height="14.99" rx="5.43"/><rect x="165.46" y="634.53" width="14.99" height="14.99" rx="5.43"/><rect x="143.76" y="634.53" width="14.99" height="14.99" rx="5.43"/><rect x="186.84" y="634.53" width="14.99" height="14.99" rx="5.43"/><rect x="231.16" y="634.53" width="14.99" height="14.99" rx="5.43"/><rect x="209.47" y="634.53" width="14.99" height="14.99" rx="5.43"/><rect x="275.1" y="634.53" width="14.99" height="14.99" rx="5.43"/><rect x="253.41" y="634.53" width="14.99" height="14.99" rx="5.43"/><rect x="319.42" y="634.53" width="14.99" height="14.99" rx="5.43"/><rect x="297.73" y="634.53" width="14.99" height="14.99" rx="5.43"/><rect x="44.15" y="654.35" width="14.99" height="14.99" rx="5.43"/><rect x="22.46" y="654.35" width="14.99" height="14.99" rx="5.43"/><rect x="1.07" y="654.35" width="14.99" height="14.99" rx="5.43"/><rect x="88.47" y="654.35" width="14.99" height="14.99" rx="5.43"/><rect x="66.78" y="654.35" width="14.99" height="14.99" rx="5.43"/><rect x="132.41" y="654.35" width="14.99" height="14.99" rx="5.43"/><rect x="110.72" y="654.35" width="14.99" height="14.99" rx="5.43"/><rect x="176.73" y="654.35" width="14.99" height="14.99" rx="5.43"/><rect x="155.04" y="654.35" width="14.99" height="14.99" rx="5.43"/><rect x="198.11" y="654.35" width="14.99" height="14.99" rx="5.43"/><rect x="242.44" y="654.35" width="14.99" height="14.99" rx="5.43"/><rect x="220.75" y="654.35" width="14.99" height="14.99" rx="5.43"/><rect x="286.37" y="654.35" width="14.99" height="14.99" rx="5.43"/><rect x="264.68" y="654.35" width="14.99" height="14.99" rx="5.43"/><rect x="330.7" y="654.35" width="14.99" height="14.99" rx="5.43"/><rect x="309" y="654.35" width="14.99" height="14.99" rx="5.43"/><rect x="32.44" y="674.18" width="14.99" height="14.99" rx="5.43"/><rect x="10.75" y="674.18" width="14.99" height="14.99" rx="5.43"/><rect x="76.77" y="674.18" width="14.99" height="14.99" rx="5.43"/><rect x="55.08" y="674.18" width="14.99" height="14.99" rx="5.43"/><rect x="120.7" y="674.18" width="14.99" height="14.99" rx="5.43"/><rect x="99.01" y="674.18" width="14.99" height="14.99" rx="5.43"/><rect x="165.03" y="674.18" width="14.99" height="14.99" rx="5.43"/><rect x="143.33" y="674.18" width="14.99" height="14.99" rx="5.43"/><rect x="186.41" y="674.18" width="14.99" height="14.99" rx="5.43"/><rect x="230.73" y="674.18" width="14.99" height="14.99" rx="5.43"/><rect x="209.04" y="674.18" width="14.99" height="14.99" rx="5.43"/><rect x="274.67" y="674.18" width="14.99" height="14.99" rx="5.43"/><rect x="252.98" y="674.18" width="14.99" height="14.99" rx="5.43"/><rect x="318.99" y="674.18" width="14.99" height="14.99" rx="5.43"/><rect x="297.3" y="674.18" width="14.99" height="14.99" rx="5.43"/><rect x="43.72" y="694.01" width="14.99" height="14.99" rx="5.43"/><rect x="22.03" y="694.01" width="14.99" height="14.99" rx="5.43"/><rect x="0.64" y="694.01" width="14.99" height="14.99" rx="5.43"/><rect x="88.04" y="694.01" width="14.99" height="14.99" rx="5.43"/><rect x="66.35" y="694.01" width="14.99" height="14.99" rx="5.43"/><rect x="131.98" y="694.01" width="14.99" height="14.99" rx="5.43"/><rect x="110.29" y="694.01" width="14.99" height="14.99" rx="5.43"/><rect x="176.3" y="694.01" width="14.99" height="14.99" rx="5.43"/><rect x="154.61" y="694.01" width="14.99" height="14.99" rx="5.43"/><rect x="197.69" y="694.01" width="14.99" height="14.99" rx="5.43"/><rect x="242.01" y="694.01" width="14.99" height="14.99" rx="5.43"/><rect x="220.32" y="694.01" width="14.99" height="14.99" rx="5.43"/><rect x="285.94" y="694.01" width="14.99" height="14.99" rx="5.43"/><rect x="264.25" y="694.01" width="14.99" height="14.99" rx="5.43"/><rect x="330.27" y="694.01" width="14.99" height="14.99" rx="5.43"/><rect x="308.58" y="694.01" width="14.99" height="14.99" rx="5.43"/><rect x="32.23" y="713.84" width="14.99" height="14.99" rx="5.43"/><rect x="10.54" y="713.84" width="14.99" height="14.99" rx="5.43"/><rect x="76.55" y="713.84" width="14.99" height="14.99" rx="5.43"/><rect x="54.86" y="713.84" width="14.99" height="14.99" rx="5.43"/><rect x="120.49" y="713.84" width="14.99" height="14.99" rx="5.43"/><rect x="98.8" y="713.84" width="14.99" height="14.99" rx="5.43"/><rect x="164.81" y="713.84" width="14.99" height="14.99" rx="5.43"/><rect x="143.12" y="713.84" width="14.99" height="14.99" rx="5.43"/><rect x="186.2" y="713.84" width="14.99" height="14.99" rx="5.43"/><rect x="230.52" y="713.84" width="14.99" height="14.99" rx="5.43"/><rect x="208.83" y="713.84" width="14.99" height="14.99" rx="5.43"/><rect x="274.45" y="713.84" width="14.99" height="14.99" rx="5.43"/><rect x="252.76" y="713.84" width="14.99" height="14.99" rx="5.43"/><rect x="318.78" y="713.84" width="14.99" height="14.99" rx="5.43"/><rect x="297.09" y="713.84" width="14.99" height="14.99" rx="5.43"/><rect x="43.51" y="733.67" width="14.99" height="14.99" rx="5.43"/><rect x="21.81" y="733.67" width="14.99" height="14.99" rx="5.43"/><rect x="0.43" y="733.67" width="14.99" height="14.99" rx="5.43"/><rect x="87.83" y="733.67" width="14.99" height="14.99" rx="5.43"/><rect x="66.14" y="733.67" width="14.99" height="14.99" rx="5.43"/><rect x="131.76" y="733.67" width="14.99" height="14.99" rx="5.43"/><rect x="110.07" y="733.67" width="14.99" height="14.99" rx="5.43"/><rect x="176.09" y="733.67" width="14.99" height="14.99" rx="5.43"/><rect x="154.39" y="733.67" width="14.99" height="14.99" rx="5.43"/><rect x="197.47" y="733.67" width="14.99" height="14.99" rx="5.43"/><rect x="241.79" y="733.67" width="14.99" height="14.99" rx="5.43"/><rect x="220.1" y="733.67" width="14.99" height="14.99" rx="5.43"/><rect x="285.73" y="733.67" width="14.99" height="14.99" rx="5.43"/><rect x="264.04" y="733.67" width="14.99" height="14.99" rx="5.43"/><rect x="330.05" y="733.67" width="14.99" height="14.99" rx="5.43"/><rect x="308.36" y="733.67" width="14.99" height="14.99" rx="5.43"/><rect x="31.8" y="753.5" width="14.99" height="14.99" rx="5.43"/><rect x="10.11" y="753.5" width="14.99" height="14.99" rx="5.43"/><rect x="76.12" y="753.5" width="14.99" height="14.99" rx="5.43"/><rect x="54.43" y="753.5" width="14.99" height="14.99" rx="5.43"/><rect x="120.06" y="753.5" width="14.99" height="14.99" rx="5.43"/><rect x="98.37" y="753.5" width="14.99" height="14.99" rx="5.43"/><rect x="164.38" y="753.5" width="14.99" height="14.99" rx="5.43"/><rect x="142.69" y="753.5" width="14.99" height="14.99" rx="5.43"/><rect x="185.77" y="753.5" width="14.99" height="14.99" rx="5.43"/><rect x="230.09" y="753.5" width="14.99" height="14.99" rx="5.43"/><rect x="208.4" y="753.5" width="14.99" height="14.99" rx="5.43"/><rect x="274.02" y="753.5" width="14.99" height="14.99" rx="5.43"/><rect x="252.33" y="753.5" width="14.99" height="14.99" rx="5.43"/><rect x="318.35" y="753.5" width="14.99" height="14.99" rx="5.43"/><rect x="296.66" y="753.5" width="14.99" height="14.99" rx="5.43"/><rect x="43.08" y="773.33" width="14.99" height="14.99" rx="5.43"/><rect x="21.38" y="773.33" width="14.99" height="14.99" rx="5.43"/><rect y="773.33" width="14.99" height="14.99" rx="5.43"/><rect x="87.4" y="773.33" width="14.99" height="14.99" rx="5.43"/><rect x="65.71" y="773.33" width="14.99" height="14.99" rx="5.43"/><rect x="131.33" y="773.33" width="14.99" height="14.99" rx="5.43"/><rect x="109.64" y="773.33" width="14.99" height="14.99" rx="5.43"/><rect x="175.66" y="773.33" width="14.99" height="14.99" rx="5.43"/><rect x="153.97" y="773.33" width="14.99" height="14.99" rx="5.43"/><rect x="197.04" y="773.33" width="14.99" height="14.99" rx="5.43"/><rect x="241.37" y="773.33" width="14.99" height="14.99" rx="5.43"/><rect x="219.67" y="773.33" width="14.99" height="14.99" rx="5.43"/><rect x="285.3" y="773.33" width="14.99" height="14.99" rx="5.43"/><rect x="263.61" y="773.33" width="14.99" height="14.99" rx="5.43"/><rect x="329.62" y="773.33" width="14.99" height="14.99" rx="5.43"/><rect x="307.93" y="773.33" width="14.99" height="14.99" rx="5.43"/></g></g></g></g></svg>