<svg xmlns="http://www.w3.org/2000/svg" xmlns:xlink="http://www.w3.org/1999/xlink" viewBox="0 0 331.15 728.56"><defs><style>.cls-1{fill:none;}.cls-2{fill:#555;}.cls-3{opacity:0.1;}.cls-4{clip-path:url(#clip-path);}</style><clipPath id="clip-path" transform="translate(0 -0.09)"><rect class="cls-1" x="8.36" width="314.43" height="728.56" rx="72.55"/></clipPath></defs><title>Asset 73</title><g id="Layer_2" data-name="Layer 2"><g id="Layer_1-2" data-name="Layer 1"><rect class="cls-2" x="8.72" width="314.43" height="728.56" rx="72.55"/><g class="cls-3"><g class="cls-4"><rect y="4.62" width="331.15" height="18.56"/><rect y="37.47" width="331.15" height="18.56"/><rect y="68.13" width="331.15" height="18.56"/><rect y="100.98" width="331.15" height="18.56"/><rect y="132.02" width="331.15" height="18.56"/><rect y="164.87" width="331.15" height="18.56"/><rect y="195.53" width="331.15" height="18.56"/><rect y="228.38" width="331.15" height="18.56"/><rect y="258.16" width="331.15" height="18.56"/><rect y="291" width="331.15" height="18.56"/><rect y="321.67" width="331.15" height="18.56"/><rect y="354.51" width="331.15" height="18.56"/><rect y="385.56" width="331.15" height="18.56"/><rect y="418.4" width="331.15" height="18.56"/><rect y="449.07" width="331.15" height="18.56"/><rect y="481.91" width="331.15" height="18.56"/><rect y="514.76" width="331.15" height="18.56"/><rect y="547.61" width="331.15" height="18.56"/><rect y="578.27" width="331.15" height="18.56"/><rect y="611.12" width="331.15" height="18.56"/><rect y="642.16" width="331.15" height="18.56"/><rect y="675.01" width="331.15" height="18.56"/><rect y="705.67" width="331.15" height="18.56"/></g></g></g></g></svg>