<svg xmlns="http://www.w3.org/2000/svg" xmlns:xlink="http://www.w3.org/1999/xlink" viewBox="0 0 359 69"><defs><style>.cls-1,.cls-2{fill:none;}.cls-1{clip-rule:evenodd;}.cls-3{opacity:0.5;}.cls-4{clip-path:url(#clip-path);}.cls-5{clip-path:url(#clip-path-2);}.cls-6{fill:#4479fa;}</style><clipPath id="clip-path"><path class="cls-1" d="M17.82,5H341.18c4.46,0,6.07.46,7.7,1.34a9.06,9.06,0,0,1,3.78,3.78c.88,1.63,1.34,3.24,1.34,7.7V51.18c0,4.46-.46,6.07-1.34,7.7a9.06,9.06,0,0,1-3.78,3.78c-1.63.88-3.24,1.34-7.7,1.34H17.82c-4.46,0-6.07-.46-7.7-1.34a9.06,9.06,0,0,1-3.78-3.78C5.46,57.25,5,55.64,5,51.18V17.82c0-4.46.46-6.07,1.34-7.7a9.06,9.06,0,0,1,3.78-3.78C11.75,5.46,13.36,5,17.82,5Z"/></clipPath><clipPath id="clip-path-2"><rect class="cls-2" x="5" y="5" width="349" height="59"/></clipPath></defs><title>Asset 9</title><g id="Layer_2" data-name="Layer 2"><g id="Layer_1-2" data-name="Layer 1"><g class="cls-3"><g class="cls-4"><g class="cls-5"><rect class="cls-6" width="359" height="69"/></g></g></g></g></g></svg>