<svg xmlns="http://www.w3.org/2000/svg" viewBox="0 0 431.48 447.7"><defs><style>.cls-1{fill:#1b3310;}.cls-2,.cls-7{fill:#aff29c;}.cls-3,.cls-9{opacity:0.3;}.cls-4,.cls-9{fill:#538e3d;}.cls-5{fill:#fff;opacity:0.4;}.cls-6{fill:#264235;}.cls-7{opacity:0.23;}.cls-8{fill:#26421c;}.cls-10{opacity:0.25;}.cls-11{opacity:0.15;}</style></defs><title>Asset 20</title><g id="Layer_2" data-name="Layer 2"><g id="Layer_1-2" data-name="Layer 1"><path class="cls-1" d="M208.93,447.7a206.6,206.6,0,0,1-81.17-16.5A210.77,210.77,0,0,1,16.5,319.93a207.89,207.89,0,0,1,1.83-166.52V45.57A45.62,45.62,0,0,1,63.9,0H367.59a45.62,45.62,0,0,1,45.56,45.57V153.41A207.94,207.94,0,0,1,415,319.93,210.84,210.84,0,0,1,303.72,431.2a206.6,206.6,0,0,1-81.17,16.5Z"/><path class="cls-2" d="M397.47,156.65V45.16a29.05,29.05,0,0,0-29-29H64.82a29.05,29.05,0,0,0-29,29V156.65a190.53,190.53,0,0,0-18.34,81.7h0c0,105.78,86.55,192.33,192.34,192.33h13.61c105.79,0,192.33-86.55,192.33-192.33h0A190.52,190.52,0,0,0,397.47,156.65Z"/><g class="cls-3"><path class="cls-4" d="M397.91,156.7V45.21a29,29,0,0,0-15.66-25.7A28.82,28.82,0,0,1,389,38.09V149.58a190.56,190.56,0,0,1,18.34,81.7h0c0,105.78-86.55,192.33-192.34,192.33H201.43A191.15,191.15,0,0,1,85.86,384.77a191.4,191.4,0,0,0,124.43,46h13.62c105.78,0,192.33-86.55,192.33-192.33h0A190.67,190.67,0,0,0,397.91,156.7Z"/></g><rect class="cls-5" x="78.25" y="9.24" width="21.42" height="68.38" rx="10.52" transform="translate(45.53 132.38) rotate(-90)"/><circle class="cls-5" cx="151.21" cy="43.43" r="11.76"/><path class="cls-1" d="M224.4,290a39,39,0,0,1-38.92-38.92v-13a36,36,0,0,0-7.21-.73,33.42,33.42,0,0,0-6,.54v13.15A39,39,0,0,1,133.34,290H86.5a39,39,0,0,1-38.93-38.92V230.77A39,39,0,0,1,86.5,191.85h46.84A38.79,38.79,0,0,1,168.94,215a39.42,39.42,0,0,1,9.8-1.24,37.07,37.07,0,0,1,10,1.36,39.49,39.49,0,0,1,12.37-15.57,38.54,38.54,0,0,1,23.28-7.74h46.84a39,39,0,0,1,38.93,38.92v20.34A39,39,0,0,1,271.24,290Zm0-79.42a20.18,20.18,0,0,0-20.16,20.16v20.34a20.19,20.19,0,0,0,20.16,20.17h46.84a20.2,20.2,0,0,0,20.17-20.17V230.77a20.19,20.19,0,0,0-20.17-20.16Zm-137.9,0a20.19,20.19,0,0,0-20.17,20.16v20.34A20.2,20.2,0,0,0,86.5,271.28h46.84a20.19,20.19,0,0,0,20.16-20.17V230.77a20.18,20.18,0,0,0-20.16-20.16Z"/><rect class="cls-6" x="66.33" y="210.61" width="87.17" height="60.67" rx="20.17"/><path class="cls-7" d="M108.37,271.28h13L138,211.17a19.78,19.78,0,0,0-4.71-.56h-8.13Z"/><path class="cls-7" d="M75.8,268.24a20,20,0,0,0,10.62,3h17.09l16.77-60.67H91.72Z"/><rect class="cls-6" x="204.24" y="210.61" width="87.17" height="60.67" rx="20.17"/><path class="cls-7" d="M246.27,271.28h13l16.61-60.11a19.81,19.81,0,0,0-4.72-.56H263Z"/><path class="cls-7" d="M213.7,268.24a20.07,20.07,0,0,0,10.62,3h17.1l16.76-60.67H229.63Z"/><path class="cls-2" d="M59.14,159.3s84.92-8.1,87.32,4.53"/><path class="cls-8" d="M59.14,174.25a508.78,508.78,0,0,1,54.5-2.54,159.5,159.5,0,0,1,19,1.14l-4-.54a39,39,0,0,1,9.9,2.33l-3.57-1.5a11.14,11.14,0,0,1,2.33,1.31l-3-2.34a5.78,5.78,0,0,1,.93.92l-2.34-3a4.1,4.1,0,0,1,.46.78l-1.51-3.57a3.18,3.18,0,0,1,.18.6c1.63,7.65,11,12.81,18.38,10.43,8.09-2.61,12.18-10.17,10.44-18.38-1.06-5-5.08-9.35-9.4-11.86a34.83,34.83,0,0,0-9.9-3.67A132,132,0,0,0,117,141.89c-15.68-.39-31.41.43-47,1.58-3.62.27-7.24.55-10.86.89-4,.39-7.59,1.41-10.56,4.38A15.17,15.17,0,0,0,44.2,159.3c.17,3.87,1.44,7.88,4.38,10.57,2.76,2.53,6.67,4.75,10.56,4.38Z"/><path class="cls-2" d="M282.74,157.18s-82.62,21.25-87,9.14"/><path class="cls-8" d="M278.77,142.77c-12.95,3.33-26,6.19-39.18,8.63-5.69,1-11.39,2-17.13,2.78l4-.53c-7.78,1-16,2.13-23.81,1.13l4,.54a17.28,17.28,0,0,1-4.18-1L206,155.8a7.16,7.16,0,0,1-1.5-.85l3,2.34a4.25,4.25,0,0,1-.68-.66l2.34,3a3.55,3.55,0,0,1-.45-.75l1.51,3.57-.05-.12c-1.43-3.73-3.3-6.84-6.86-8.93a15.31,15.31,0,0,0-11.52-1.51c-3.61,1.17-7.1,3.41-8.93,6.87s-2.92,7.81-1.5,11.51c1.2,3.15,2.34,5.63,4.84,8a22.57,22.57,0,0,0,8.42,4.89A36.92,36.92,0,0,0,205,184.89c7,.45,14.09-.4,21-1.31,16.87-2.22,33.54-5.54,50.11-9.42,3.52-.83,7.05-1.67,10.56-2.57,7.57-2,12.89-10.79,10.44-18.38-2.53-7.81-10.27-12.52-18.38-10.44Z"/><rect class="cls-9" x="160.23" y="152.86" width="23.22" height="6.5" rx="3.19" transform="translate(15.72 327.95) rotate(-90)"/><path class="cls-6" d="M165.43,312.46s82.62-15.57,71.3,0"/><path class="cls-6" d="M166.09,314.86c8.6-1.62,17.25-3,25.91-4.16,7.09-1,14.21-1.79,21.34-2.28,3.29-.23,6.59-.39,9.88-.39,1.43,0,2.86,0,4.29.11l1.73.12.88.09a3.67,3.67,0,0,1,.53.07,22.3,22.3,0,0,1,3.22.71c.22.07.43.15.65.24-.66-.26,0,0,.12.08l.5.29c.57.33-.35-.24.06.05s.12.35.17.15,0,0,0-.07c-.31-.43.12.05,0,.17.33-.4-.35-.24,0-.09.13.06,0-.27,0-.05s-.24.67-.08.3-.12.21-.2.33-.28.45-.44.67c-1.86,2.62,2.46,5.11,4.3,2.51,2.78-3.9.85-7.75-3.36-9.27-5.06-1.81-11.09-1.5-16.38-1.32-14.63.52-29.24,2.71-43.67,5.07-3.57.59-7.14,1.19-10.7,1.86-3.15.6-1.82,5.4,1.32,4.81Z"/><g class="cls-10"><path class="cls-4" d="M257.07,305.89s5.25,4.86,0,13.16"/><path class="cls-4" d="M254.75,308.21c.15.15.61.77.23.23a6.46,6.46,0,0,1,.82,1.56c.92,2.57-.25,5.19-1.56,7.39-2.17,3.64,3.51,6.95,5.67,3.31,3.07-5.14,4.29-12.53-.51-17.13-3.06-2.93-7.71,1.71-4.65,4.64Z"/></g><g class="cls-11"><path class="cls-4" d="M186.08,333.84s7.51-8.09,20.33,0"/><path class="cls-4" d="M189.67,337.43c.22-.23,1.18-.93.34-.34a9.82,9.82,0,0,1,2.42-1.27c4-1.43,8,.38,11.41,2.41,5.63,3.35,10.74-5.42,5.13-8.77-7.95-4.74-19.37-6.63-26.48.8-4.52,4.71,2.65,11.9,7.18,7.17Z"/></g></g></g></svg>