<svg xmlns="http://www.w3.org/2000/svg" viewBox="0 0 431.43 447.64"><defs><style>.cls-1{fill:#1b3310;}.cls-2,.cls-7{fill:#aff29c;}.cls-3{opacity:0.3;}.cls-4{fill:#538e3d;}.cls-11,.cls-5{fill:#fff;}.cls-5{opacity:0.4;}.cls-6{fill:#264235;}.cls-7{opacity:0.23;}.cls-8{fill:#112b08;}.cls-9{fill:#26631a;}.cls-10{fill:#37a56e;}</style></defs><title>Asset 19</title><g id="Layer_2" data-name="Layer 2"><g id="Layer_1-2" data-name="Layer 1"><path class="cls-1" d="M208.91,447.64a206.51,206.51,0,0,1-81.16-16.49A210.73,210.73,0,0,1,16.5,319.89a207.84,207.84,0,0,1,1.83-166.5V45.56A45.61,45.61,0,0,1,63.89,0H367.54A45.61,45.61,0,0,1,413.1,45.56V153.39a207.9,207.9,0,0,1,1.84,166.5A210.83,210.83,0,0,1,303.69,431.15a206.59,206.59,0,0,1-81.17,16.49Z"/><path class="cls-2" d="M397.43,156.63V45.15a29.05,29.05,0,0,0-29-29H64.81a29,29,0,0,0-29,29V156.63a190.51,190.51,0,0,0-18.33,81.69h0c0,105.77,86.54,192.31,192.31,192.31h13.62c105.77,0,192.3-86.54,192.3-192.31h0A190.65,190.65,0,0,0,397.43,156.63Z"/><g class="cls-3"><path class="cls-4" d="M397.86,156.68V45.2A29.06,29.06,0,0,0,382.2,19.5,28.8,28.8,0,0,1,389,38.09V149.56a190.52,190.52,0,0,1,18.33,81.7h0C407.33,337,320.79,423.57,215,423.57H201.4A191.11,191.11,0,0,1,85.85,384.72a191.35,191.35,0,0,0,124.41,46h13.62c105.77,0,192.31-86.54,192.31-192.31h0A190.51,190.51,0,0,0,397.86,156.68Z"/></g><rect class="cls-5" x="78.24" y="9.24" width="21.42" height="68.37" rx="10.52" transform="translate(45.52 132.37) rotate(-90)"/><circle class="cls-5" cx="151.19" cy="43.42" r="11.76"/><path class="cls-1" d="M224.38,290a39,39,0,0,1-38.93-38.92v-13a36.57,36.57,0,0,0-7.2-.73,33.42,33.42,0,0,0-6,.54v13.15A39,39,0,0,1,133.32,290H86.49a39,39,0,0,1-38.93-38.92V230.75a39,39,0,0,1,38.93-38.93h46.83A38.79,38.79,0,0,1,168.92,215a39.89,39.89,0,0,1,9.8-1.24,37.13,37.13,0,0,1,10,1.37,39.35,39.35,0,0,1,12.37-15.57,38.55,38.55,0,0,1,23.28-7.75h46.83a39,39,0,0,1,38.92,38.93v20.33A39,39,0,0,1,271.21,290Zm0-79.42a20.2,20.2,0,0,0-20.17,20.17v20.33a20.19,20.19,0,0,0,20.17,20.16h46.83a20.18,20.18,0,0,0,20.16-20.16V230.75a20.19,20.19,0,0,0-20.16-20.17Zm-137.89,0a20.2,20.2,0,0,0-20.17,20.17v20.33a20.19,20.19,0,0,0,20.17,20.16h46.83a20.18,20.18,0,0,0,20.16-20.16V230.75a20.19,20.19,0,0,0-20.16-20.17Z"/><path class="cls-6" d="M86.49,210.58h46.83a20.16,20.16,0,0,1,20.16,20.16v20.33a20.17,20.17,0,0,1-20.17,20.17H86.49a20.17,20.17,0,0,1-20.17-20.17V230.74a20.16,20.16,0,0,1,20.16-20.16Z"/><path class="cls-7" d="M108.35,271.24h13L138,211.14a20.4,20.4,0,0,0-4.72-.56h-8.12Z"/><path class="cls-7" d="M75.79,268.21a20,20,0,0,0,10.62,3H103.5l16.76-60.66H91.71Z"/><path class="cls-6" d="M224.38,210.58h46.83a20.16,20.16,0,0,1,20.16,20.16v20.33a20.17,20.17,0,0,1-20.17,20.17H224.38a20.17,20.17,0,0,1-20.17-20.17V230.75A20.16,20.16,0,0,1,224.38,210.58Z"/><path class="cls-7" d="M246.24,271.24h13l16.61-60.1a20.4,20.4,0,0,0-4.72-.56H263Z"/><path class="cls-7" d="M213.68,268.21a20,20,0,0,0,10.62,3h17.09l16.76-60.66H229.6Z"/><path class="cls-8" d="M220.83,122.45l.07-.07-2.7,2.7a45.7,45.7,0,0,1,9.16-6.77L224,120.25a58.36,58.36,0,0,1,14.2-5.86l-3.88,1a57.86,57.86,0,0,1,14.87-1.83l-4,0a64.48,64.48,0,0,1,16.22,2.36l-3.73-1a85.43,85.43,0,0,1,19.76,8.59l-3.29-1.93c3.36,2,6.6,4.17,9.75,6.49,6.3,4.63,16.22,4,21-2.66,4.59-6.46,4.07-16-2.65-21C284.36,91.27,263.44,82.54,241,84.08a71.44,71.44,0,0,0-36.3,13.44,55.72,55.72,0,0,0-7.45,6.62c-2.5,2.57-3.45,7.66-3,11a15.23,15.23,0,0,0,5.67,9.94c3.15,2.23,7.11,3.69,11,3l3.87-1a14.83,14.83,0,0,0,6.06-4.64Z"/><path class="cls-8" d="M151.49,120.84a33.24,33.24,0,0,0-3.77-3.54,73.29,73.29,0,0,0-13.4-9.18,75.21,75.21,0,0,0-50.07-6.42C71.81,104.28,59.89,110,49.34,117a15.82,15.82,0,0,0-7,9,15.2,15.2,0,0,0,1.42,11.34c4.07,6.49,13.41,10.2,20.38,5.59a106.73,106.73,0,0,1,17.73-9.57l-3.54,1.45a75.66,75.66,0,0,1,18.6-5.08l-3.84.51a61.29,61.29,0,0,1,15.37,0l-4-.54a57.5,57.5,0,0,1,14.68,4l-3.68-1.57a57.94,57.94,0,0,1,12.87,7.61l-3-2.39a35.61,35.61,0,0,1,4.81,4.37c5.17,5.89,15.81,5.91,21.13.25,5.79-6.17,5.76-14.85.24-21.14Z"/><path class="cls-9" d="M248.3,303.6H178.59a10.12,10.12,0,0,0-10.1,10.09v44.56a10.12,10.12,0,0,0,10.1,10.1h49.58c13,2.51,30.17-41.66,30.68-54.17S248.3,303.6,248.3,303.6Z"/><path class="cls-10" d="M171.48,365.41s14.59-33.08,46.1-36.86,37.55,1.37,37.55,1.37-13.65,40.63-27,38.43H178.59S174.18,368.42,171.48,365.41Z"/><path class="cls-11" d="M246.08,307H178.15c-1.19,0-2.16.49-2.16,1.08v4.14c0,.6,1,1.08,2.16,1.08h67.93c1.18,0,2.15-.48,2.15-1.08V308C248.23,307.45,247.26,307,246.08,307Z"/></g></g></svg>