<svg xmlns="http://www.w3.org/2000/svg" xmlns:xlink="http://www.w3.org/1999/xlink" viewBox="0 0 363.12 760.02"><defs><style>.cls-1{fill:none;}.cls-2{fill:#6c87f9;}.cls-3{opacity:0.1;}.cls-4{clip-path:url(#clip-path);}</style><clipPath id="clip-path"><rect class="cls-1" x="20.11" y="15.73" width="314.43" height="728.56" rx="72.55"/></clipPath></defs><title>Asset 63</title><g id="Layer_2" data-name="Layer 2"><g id="Layer_1-2" data-name="Layer 1"><rect class="cls-2" x="24.46" y="15.73" width="314.43" height="728.56" rx="72.55"/><g class="cls-3"><g class="cls-4"><polygon points="31.91 0 36.24 8.79 45.95 10.2 38.93 17.05 40.58 26.71 31.91 22.15 23.23 26.71 24.88 17.05 17.86 10.2 27.57 8.79 31.91 0"/><polygon points="68.68 0 73.02 8.79 82.72 10.2 75.7 17.05 77.36 26.71 68.68 22.15 60 26.71 61.66 17.05 54.64 10.2 64.34 8.79 68.68 0"/><polygon points="105.45 0 109.79 8.79 119.5 10.2 112.47 17.05 114.13 26.71 105.45 22.15 96.77 26.71 98.43 17.05 91.41 10.2 101.11 8.79 105.45 0"/><polygon points="140.15 0 144.48 8.79 154.19 10.2 147.17 17.05 148.82 26.71 140.15 22.15 131.47 26.71 133.12 17.05 126.1 10.2 135.81 8.79 140.15 0"/><polygon points="176.92 0 181.26 8.79 190.96 10.2 183.94 17.05 185.6 26.71 176.92 22.15 168.24 26.71 169.9 17.05 162.88 10.2 172.58 8.79 176.92 0"/><polygon points="213.69 0 218.03 8.79 227.74 10.2 220.71 17.05 222.37 26.71 213.69 22.15 205.01 26.71 206.67 17.05 199.65 10.2 209.35 8.79 213.69 0"/><polygon points="248.69 0 253.03 8.79 262.73 10.2 255.71 17.05 257.37 26.71 248.69 22.15 240.01 26.71 241.67 17.05 234.65 10.2 244.35 8.79 248.69 0"/><polygon points="285.46 0 289.8 8.79 299.51 10.2 292.49 17.05 294.14 26.71 285.46 22.15 276.79 26.71 278.44 17.05 271.42 10.2 281.13 8.79 285.46 0"/><polygon points="322.24 0 326.58 8.79 336.28 10.2 329.26 17.05 330.92 26.71 322.24 22.15 313.56 26.71 315.22 17.05 308.19 10.2 317.9 8.79 322.24 0"/><polygon points="49.86 31.93 54.2 40.72 63.91 42.13 56.88 48.97 58.54 58.64 49.86 54.08 41.19 58.64 42.84 48.97 35.82 42.13 45.52 40.72 49.86 31.93"/><polygon points="14.45 31.93 18.79 40.72 28.49 42.13 21.47 48.97 23.12 58.64 14.45 54.08 5.77 58.64 7.42 48.97 0.4 42.13 10.11 40.72 14.45 31.93"/><polygon points="86.64 31.93 90.98 40.72 100.68 42.13 93.66 48.97 95.32 58.64 86.64 54.08 77.96 58.64 79.62 48.97 72.59 42.13 82.3 40.72 86.64 31.93"/><polygon points="123.41 31.93 127.75 40.72 137.45 42.13 130.43 48.97 132.09 58.64 123.41 54.08 114.73 58.64 116.39 48.97 109.37 42.13 119.07 40.72 123.41 31.93"/><polygon points="158.1 31.93 162.44 40.72 172.15 42.13 165.13 48.97 166.78 58.64 158.1 54.08 149.42 58.64 151.08 48.97 144.06 42.13 153.76 40.72 158.1 31.93"/><polygon points="194.88 31.93 199.22 40.72 208.92 42.13 201.9 48.97 203.56 58.64 194.88 54.08 186.2 58.64 187.86 48.97 180.83 42.13 190.54 40.72 194.88 31.93"/><polygon points="231.65 31.93 235.99 40.72 245.69 42.13 238.67 48.97 240.33 58.64 231.65 54.08 222.97 58.64 224.63 48.97 217.61 42.13 227.31 40.72 231.65 31.93"/><polygon points="266.65 31.93 270.99 40.72 280.69 42.13 273.67 48.97 275.33 58.64 266.65 54.08 257.97 58.64 259.63 48.97 252.61 42.13 262.31 40.72 266.65 31.93"/><polygon points="303.42 31.93 307.76 40.72 317.47 42.13 310.44 48.97 312.1 58.64 303.42 54.08 294.74 58.64 296.4 48.97 289.38 42.13 299.08 40.72 303.42 31.93"/><polygon points="340.2 31.93 344.54 40.72 354.24 42.13 347.22 48.97 348.88 58.64 340.2 54.08 331.52 58.64 333.18 48.97 326.15 42.13 335.86 40.72 340.2 31.93"/><polygon points="31.5 63.85 35.84 72.64 45.55 74.06 38.52 80.9 40.18 90.56 31.5 86 22.82 90.56 24.48 80.9 17.46 74.06 27.16 72.64 31.5 63.85"/><polygon points="68.28 63.85 72.62 72.64 82.32 74.06 75.3 80.9 76.95 90.56 68.28 86 59.6 90.56 61.26 80.9 54.23 74.06 63.94 72.64 68.28 63.85"/><polygon points="105.05 63.85 109.39 72.64 119.09 74.06 112.07 80.9 113.73 90.56 105.05 86 96.37 90.56 98.03 80.9 91.01 74.06 100.71 72.64 105.05 63.85"/><polygon points="139.74 63.85 144.08 72.64 153.78 74.06 146.76 80.9 148.42 90.56 139.74 86 131.06 90.56 132.72 80.9 125.7 74.06 135.4 72.64 139.74 63.85"/><polygon points="176.52 63.85 180.85 72.64 190.56 74.06 183.54 80.9 185.19 90.56 176.52 86 167.84 90.56 169.5 80.9 162.47 74.06 172.18 72.64 176.52 63.85"/><polygon points="213.29 63.85 217.63 72.64 227.33 74.06 220.31 80.9 221.97 90.56 213.29 86 204.61 90.56 206.27 80.9 199.25 74.06 208.95 72.64 213.29 63.85"/><polygon points="248.29 63.85 252.63 72.64 262.33 74.06 255.31 80.9 256.97 90.56 248.29 86 239.61 90.56 241.27 80.9 234.25 74.06 243.95 72.64 248.29 63.85"/><polygon points="285.06 63.85 289.4 72.64 299.11 74.06 292.08 80.9 293.74 90.56 285.06 86 276.38 90.56 278.04 80.9 271.02 74.06 280.72 72.64 285.06 63.85"/><polygon points="321.84 63.85 326.18 72.64 335.88 74.06 328.86 80.9 330.51 90.56 321.84 86 313.16 90.56 314.81 80.9 307.79 74.06 317.5 72.64 321.84 63.85"/><polygon points="49.46 95.78 53.8 104.57 63.5 105.98 56.48 112.83 58.14 122.49 49.46 117.93 40.78 122.49 42.44 112.83 35.42 105.98 45.12 104.57 49.46 95.78"/><polygon points="14.04 95.78 18.38 104.57 28.09 105.98 21.06 112.83 22.72 122.49 14.04 117.93 5.36 122.49 7.02 112.83 0 105.98 9.7 104.57 14.04 95.78"/><polygon points="86.23 95.78 90.57 104.57 100.28 105.98 93.26 112.83 94.91 122.49 86.23 117.93 77.56 122.49 79.21 112.83 72.19 105.98 81.89 104.57 86.23 95.78"/><polygon points="123.01 95.78 127.35 104.57 137.05 105.98 130.03 112.83 131.69 122.49 123.01 117.93 114.33 122.49 115.99 112.83 108.97 105.98 118.67 104.57 123.01 95.78"/><polygon points="157.7 95.78 162.04 104.57 171.74 105.98 164.72 112.83 166.38 122.49 157.7 117.93 149.02 122.49 150.68 112.83 143.66 105.98 153.36 104.57 157.7 95.78"/><polygon points="194.47 95.78 198.81 104.57 208.52 105.98 201.5 112.83 203.15 122.49 194.47 117.93 185.8 122.49 187.45 112.83 180.43 105.98 190.13 104.57 194.47 95.78"/><polygon points="231.25 95.78 235.59 104.57 245.29 105.98 238.27 112.83 239.93 122.49 231.25 117.93 222.57 122.49 224.23 112.83 217.21 105.98 226.91 104.57 231.25 95.78"/><polygon points="266.25 95.78 270.59 104.57 280.29 105.98 273.27 112.83 274.93 122.49 266.25 117.93 257.57 122.49 259.23 112.83 252.2 105.98 261.91 104.57 266.25 95.78"/><polygon points="303.02 95.78 307.36 104.57 317.06 105.98 310.04 112.83 311.7 122.49 303.02 117.93 294.34 122.49 296 112.83 288.98 105.98 298.68 104.57 303.02 95.78"/><polygon points="339.79 95.78 344.13 104.57 353.84 105.98 346.82 112.83 348.47 122.49 339.79 117.93 331.12 122.49 332.77 112.83 325.75 105.98 335.45 104.57 339.79 95.78"/><polygon points="35.62 127.7 39.96 136.5 49.66 137.91 42.64 144.75 44.3 154.42 35.62 149.85 26.94 154.42 28.6 144.75 21.58 137.91 31.28 136.5 35.62 127.7"/><polygon points="72.39 127.7 76.73 136.5 86.44 137.91 79.42 144.75 81.07 154.42 72.39 149.85 63.71 154.42 65.37 144.75 58.35 137.91 68.05 136.5 72.39 127.7"/><polygon points="109.17 127.7 113.51 136.5 123.21 137.91 116.19 144.75 117.85 154.42 109.17 149.85 100.49 154.42 102.15 144.75 95.12 137.91 104.83 136.5 109.17 127.7"/><polygon points="143.86 127.7 148.2 136.5 157.9 137.91 150.88 144.75 152.54 154.42 143.86 149.85 135.18 154.42 136.84 144.75 129.82 137.91 139.52 136.5 143.86 127.7"/><polygon points="180.63 127.7 184.97 136.5 194.68 137.91 187.65 144.75 189.31 154.42 180.63 149.85 171.95 154.42 173.61 144.75 166.59 137.91 176.29 136.5 180.63 127.7"/><polygon points="217.41 127.7 221.75 136.5 231.45 137.91 224.43 144.75 226.09 154.42 217.41 149.85 208.73 154.42 210.38 144.75 203.36 137.91 213.07 136.5 217.41 127.7"/><polygon points="252.41 127.7 256.75 136.5 266.45 137.91 259.43 144.75 261.08 154.42 252.41 149.85 243.73 154.42 245.38 144.75 238.36 137.91 248.07 136.5 252.41 127.7"/><polygon points="289.18 127.7 293.52 136.5 303.22 137.91 296.2 144.75 297.86 154.42 289.18 149.85 280.5 154.42 282.16 144.75 275.14 137.91 284.84 136.5 289.18 127.7"/><polygon points="325.95 127.7 330.29 136.5 340 137.91 332.97 144.75 334.63 154.42 325.95 149.85 317.27 154.42 318.93 144.75 311.91 137.91 321.61 136.5 325.95 127.7"/><polygon points="53.58 159.63 57.92 168.42 67.62 169.83 60.6 176.68 62.26 186.34 53.58 181.78 44.9 186.34 46.56 176.68 39.53 169.83 49.24 168.42 53.58 159.63"/><polygon points="18.16 159.63 22.5 168.42 32.2 169.83 25.18 176.68 26.84 186.34 18.16 181.78 9.48 186.34 11.14 176.68 4.12 169.83 13.82 168.42 18.16 159.63"/><polygon points="90.35 159.63 94.69 168.42 104.39 169.83 97.37 176.68 99.03 186.34 90.35 181.78 81.67 186.34 83.33 176.68 76.31 169.83 86.01 168.42 90.35 159.63"/><polygon points="127.13 159.63 131.47 168.42 141.17 169.83 134.15 176.68 135.81 186.34 127.13 181.78 118.45 186.34 120.1 176.68 113.08 169.83 122.79 168.42 127.13 159.63"/><polygon points="161.82 159.63 166.16 168.42 175.86 169.83 168.84 176.68 170.5 186.34 161.82 181.78 153.14 186.34 154.8 176.68 147.78 169.83 157.48 168.42 161.82 159.63"/><polygon points="198.59 159.63 202.93 168.42 212.63 169.83 205.61 176.68 207.27 186.34 198.59 181.78 189.91 186.34 191.57 176.68 184.55 169.83 194.25 168.42 198.59 159.63"/><polygon points="235.37 159.63 239.71 168.42 249.41 169.83 242.39 176.68 244.04 186.34 235.37 181.78 226.69 186.34 228.34 176.68 221.32 169.83 231.03 168.42 235.37 159.63"/><polygon points="270.36 159.63 274.7 168.42 284.41 169.83 277.38 176.68 279.04 186.34 270.36 181.78 261.69 186.34 263.34 176.68 256.32 169.83 266.02 168.42 270.36 159.63"/><polygon points="307.14 159.63 311.48 168.42 321.18 169.83 314.16 176.68 315.82 186.34 307.14 181.78 298.46 186.34 300.12 176.68 293.1 169.83 302.8 168.42 307.14 159.63"/><polygon points="343.91 159.63 348.25 168.42 357.95 169.83 350.93 176.68 352.59 186.34 343.91 181.78 335.23 186.34 336.89 176.68 329.87 169.83 339.57 168.42 343.91 159.63"/><polygon points="35.22 191.56 39.56 200.35 49.26 201.76 42.24 208.6 43.9 218.27 35.22 213.71 26.54 218.27 28.2 208.6 21.17 201.76 30.88 200.35 35.22 191.56"/><polygon points="71.99 191.56 76.33 200.35 86.03 201.76 79.01 208.6 80.67 218.27 71.99 213.71 63.31 218.27 64.97 208.6 57.95 201.76 67.65 200.35 71.99 191.56"/><polygon points="108.77 191.56 113.1 200.35 122.81 201.76 115.79 208.6 117.44 218.27 108.77 213.71 100.09 218.27 101.74 208.6 94.72 201.76 104.42 200.35 108.77 191.56"/><polygon points="143.46 191.56 147.8 200.35 157.5 201.76 150.48 208.6 152.14 218.27 143.46 213.71 134.78 218.27 136.44 208.6 129.41 201.76 139.12 200.35 143.46 191.56"/><polygon points="180.23 191.56 184.57 200.35 194.27 201.76 187.25 208.6 188.91 218.27 180.23 213.71 171.55 218.27 173.21 208.6 166.19 201.76 175.89 200.35 180.23 191.56"/><polygon points="217 191.56 221.34 200.35 231.05 201.76 224.03 208.6 225.68 218.27 217 213.71 208.32 218.27 209.98 208.6 202.96 201.76 212.66 200.35 217 191.56"/><polygon points="252 191.56 256.34 200.35 266.05 201.76 259.02 208.6 260.68 218.27 252 213.71 243.32 218.27 244.98 208.6 237.96 201.76 247.66 200.35 252 191.56"/><polygon points="288.78 191.56 293.12 200.35 302.82 201.76 295.8 208.6 297.45 218.27 288.78 213.71 280.1 218.27 281.75 208.6 274.73 201.76 284.44 200.35 288.78 191.56"/><polygon points="325.55 191.56 329.89 200.35 339.59 201.76 332.57 208.6 334.23 218.27 325.55 213.71 316.87 218.27 318.53 208.6 311.51 201.76 321.21 200.35 325.55 191.56"/><polygon points="53.18 223.48 57.52 232.28 67.22 233.69 60.2 240.53 61.85 250.19 53.18 245.63 44.5 250.19 46.15 240.53 39.13 233.69 48.84 232.28 53.18 223.48"/><polygon points="17.76 223.48 22.1 232.28 31.8 233.69 24.78 240.53 26.44 250.19 17.76 245.63 9.08 250.19 10.74 240.53 3.71 233.69 13.42 232.28 17.76 223.48"/><polygon points="89.95 223.48 94.29 232.28 103.99 233.69 96.97 240.53 98.63 250.19 89.95 245.63 81.27 250.19 82.93 240.53 75.91 233.69 85.61 232.28 89.95 223.48"/><polygon points="126.72 223.48 131.06 232.28 140.77 233.69 133.74 240.53 135.4 250.19 126.72 245.63 118.04 250.19 119.7 240.53 112.68 233.69 122.38 232.28 126.72 223.48"/><polygon points="161.41 223.48 165.75 232.28 175.46 233.69 168.44 240.53 170.09 250.19 161.41 245.63 152.74 250.19 154.39 240.53 147.37 233.69 157.08 232.28 161.41 223.48"/><polygon points="198.19 223.48 202.53 232.28 212.23 233.69 205.21 240.53 206.87 250.19 198.19 245.63 189.51 250.19 191.17 240.53 184.15 233.69 193.85 232.28 198.19 223.48"/><polygon points="234.96 223.48 239.3 232.28 249.01 233.69 241.98 240.53 243.64 250.19 234.96 245.63 226.28 250.19 227.94 240.53 220.92 233.69 230.62 232.28 234.96 223.48"/><polygon points="269.96 223.48 274.3 232.28 284 233.69 276.98 240.53 278.64 250.19 269.96 245.63 261.28 250.19 262.94 240.53 255.92 233.69 265.62 232.28 269.96 223.48"/><polygon points="306.74 223.48 311.07 232.28 320.78 233.69 313.76 240.53 315.41 250.19 306.74 245.63 298.06 250.19 299.71 240.53 292.69 233.69 302.39 232.28 306.74 223.48"/><polygon points="343.51 223.48 347.85 232.28 357.55 233.69 350.53 240.53 352.19 250.19 343.51 245.63 334.83 250.19 336.49 240.53 329.47 233.69 339.17 232.28 343.51 223.48"/><polygon points="33.76 255.41 38.1 264.2 47.8 265.61 40.78 272.46 42.44 282.12 33.76 277.56 25.08 282.12 26.74 272.46 19.72 265.61 29.42 264.2 33.76 255.41"/><polygon points="70.54 255.41 74.88 264.2 84.58 265.61 77.56 272.46 79.22 282.12 70.54 277.56 61.86 282.12 63.52 272.46 56.49 265.61 66.2 264.2 70.54 255.41"/><polygon points="107.31 255.41 111.65 264.2 121.35 265.61 114.33 272.46 115.99 282.12 107.31 277.56 98.63 282.12 100.29 272.46 93.27 265.61 102.97 264.2 107.31 255.41"/><polygon points="142 255.41 146.34 264.2 156.04 265.61 149.02 272.46 150.68 282.12 142 277.56 133.32 282.12 134.98 272.46 127.96 265.61 137.66 264.2 142 255.41"/><polygon points="178.78 255.41 183.12 264.2 192.82 265.61 185.8 272.46 187.46 282.12 178.78 277.56 170.1 282.12 171.75 272.46 164.73 265.61 174.44 264.2 178.78 255.41"/><polygon points="215.55 255.41 219.89 264.2 229.59 265.61 222.57 272.46 224.23 282.12 215.55 277.56 206.87 282.12 208.53 272.46 201.51 265.61 211.21 264.2 215.55 255.41"/><polygon points="250.55 255.41 254.89 264.2 264.59 265.61 257.57 272.46 259.23 282.12 250.55 277.56 241.87 282.12 243.53 272.46 236.5 265.61 246.21 264.2 250.55 255.41"/><polygon points="287.32 255.41 291.66 264.2 301.36 265.61 294.34 272.46 296 282.12 287.32 277.56 278.64 282.12 280.3 272.46 273.28 265.61 282.98 264.2 287.32 255.41"/><polygon points="324.1 255.41 328.44 264.2 338.14 265.61 331.12 272.46 332.77 282.12 324.1 277.56 315.42 282.12 317.07 272.46 310.05 265.61 319.76 264.2 324.1 255.41"/><polygon points="51.72 287.34 56.06 296.13 65.76 297.54 58.74 304.38 60.4 314.05 51.72 309.49 43.04 314.05 44.7 304.38 37.68 297.54 47.38 296.13 51.72 287.34"/><polygon points="16.3 287.34 20.64 296.13 30.34 297.54 23.32 304.38 24.98 314.05 16.3 309.49 7.62 314.05 9.28 304.38 2.26 297.54 11.96 296.13 16.3 287.34"/><polygon points="88.5 287.34 92.83 296.13 102.54 297.54 95.52 304.38 97.17 314.05 88.5 309.49 79.82 314.05 81.47 304.38 74.45 297.54 84.16 296.13 88.5 287.34"/><polygon points="125.27 287.34 129.61 296.13 139.31 297.54 132.29 304.38 133.95 314.05 125.27 309.49 116.59 314.05 118.25 304.38 111.23 297.54 120.93 296.13 125.27 287.34"/><polygon points="159.96 287.34 164.3 296.13 174 297.54 166.98 304.38 168.64 314.05 159.96 309.49 151.28 314.05 152.94 304.38 145.92 297.54 155.62 296.13 159.96 287.34"/><polygon points="196.73 287.34 201.07 296.13 210.78 297.54 203.76 304.38 205.41 314.05 196.73 309.49 188.06 314.05 189.71 304.38 182.69 297.54 192.4 296.13 196.73 287.34"/><polygon points="233.51 287.34 237.85 296.13 247.55 297.54 240.53 304.38 242.19 314.05 233.51 309.49 224.83 314.05 226.49 304.38 219.47 297.54 229.17 296.13 233.51 287.34"/><polygon points="268.51 287.34 272.85 296.13 282.55 297.54 275.53 304.38 277.19 314.05 268.51 309.49 259.83 314.05 261.49 304.38 254.46 297.54 264.17 296.13 268.51 287.34"/><polygon points="305.28 287.34 309.62 296.13 319.32 297.54 312.3 304.38 313.96 314.05 305.28 309.49 296.6 314.05 298.26 304.38 291.24 297.54 300.94 296.13 305.28 287.34"/><polygon points="342.05 287.34 346.39 296.13 356.1 297.54 349.07 304.38 350.73 314.05 342.05 309.49 333.38 314.05 335.03 304.38 328.01 297.54 337.71 296.13 342.05 287.34"/><polygon points="33.36 319.26 37.7 328.06 47.4 329.47 40.38 336.31 42.04 345.97 33.36 341.41 24.68 345.97 26.34 336.31 19.32 329.47 29.02 328.06 33.36 319.26"/><polygon points="70.13 319.26 74.47 328.06 84.18 329.47 77.16 336.31 78.81 345.97 70.13 341.41 61.45 345.97 63.11 336.31 56.09 329.47 65.79 328.06 70.13 319.26"/><polygon points="106.91 319.26 111.25 328.06 120.95 329.47 113.93 336.31 115.59 345.97 106.91 341.41 98.23 345.97 99.89 336.31 92.86 329.47 102.57 328.06 106.91 319.26"/><polygon points="141.6 319.26 145.94 328.06 155.64 329.47 148.62 336.31 150.28 345.97 141.6 341.41 132.92 345.97 134.58 336.31 127.56 329.47 137.26 328.06 141.6 319.26"/><polygon points="178.37 319.26 182.71 328.06 192.42 329.47 185.4 336.31 187.05 345.97 178.37 341.41 169.69 345.97 171.35 336.31 164.33 329.47 174.03 328.06 178.37 319.26"/><polygon points="215.15 319.26 219.49 328.06 229.19 329.47 222.17 336.31 223.83 345.97 215.15 341.41 206.47 345.97 208.13 336.31 201.1 329.47 210.81 328.06 215.15 319.26"/><polygon points="250.15 319.26 254.49 328.06 264.19 329.47 257.17 336.31 258.82 345.97 250.15 341.41 241.47 345.97 243.12 336.31 236.1 329.47 245.81 328.06 250.15 319.26"/><polygon points="286.92 319.26 291.26 328.06 300.96 329.47 293.94 336.31 295.6 345.97 286.92 341.41 278.24 345.97 279.9 336.31 272.88 329.47 282.58 328.06 286.92 319.26"/><polygon points="323.69 319.26 328.03 328.06 337.74 329.47 330.71 336.31 332.37 345.97 323.69 341.41 315.01 345.97 316.67 336.31 309.65 329.47 319.35 328.06 323.69 319.26"/><polygon points="51.32 351.19 55.66 359.98 65.36 361.39 58.34 368.24 60 377.9 51.32 373.34 42.64 377.9 44.3 368.24 37.28 361.39 46.98 359.98 51.32 351.19"/><polygon points="15.9 351.19 20.24 359.98 29.94 361.39 22.92 368.24 24.58 377.9 15.9 373.34 7.22 377.9 8.88 368.24 1.86 361.39 11.56 359.98 15.9 351.19"/><polygon points="88.09 351.19 92.43 359.98 102.14 361.39 95.11 368.24 96.77 377.9 88.09 373.34 79.41 377.9 81.07 368.24 74.05 361.39 83.75 359.98 88.09 351.19"/><polygon points="124.87 351.19 129.21 359.98 138.91 361.39 131.89 368.24 133.54 377.9 124.87 373.34 116.19 377.9 117.84 368.24 110.82 361.39 120.53 359.98 124.87 351.19"/><polygon points="159.56 351.19 163.9 359.98 173.6 361.39 166.58 368.24 168.24 377.9 159.56 373.34 150.88 377.9 152.54 368.24 145.51 361.39 155.22 359.98 159.56 351.19"/><polygon points="196.33 351.19 200.67 359.98 210.38 361.39 203.35 368.24 205.01 377.9 196.33 373.34 187.65 377.9 189.31 368.24 182.29 361.39 191.99 359.98 196.33 351.19"/><polygon points="233.11 351.19 237.44 359.98 247.15 361.39 240.13 368.24 241.78 377.9 233.11 373.34 224.43 377.9 226.08 368.24 219.06 361.39 228.77 359.98 233.11 351.19"/><polygon points="268.1 351.19 272.44 359.98 282.15 361.39 275.13 368.24 276.78 377.9 268.1 373.34 259.43 377.9 261.08 368.24 254.06 361.39 263.76 359.98 268.1 351.19"/><polygon points="304.88 351.19 309.22 359.98 318.92 361.39 311.9 368.24 313.56 377.9 304.88 373.34 296.2 377.9 297.86 368.24 290.83 361.39 300.54 359.98 304.88 351.19"/><polygon points="341.65 351.19 345.99 359.98 355.69 361.39 348.67 368.24 350.33 377.9 341.65 373.34 332.97 377.9 334.63 368.24 327.61 361.39 337.31 359.98 341.65 351.19"/><polygon points="37.48 383.12 41.82 391.91 51.52 393.32 44.5 400.16 46.16 409.83 37.48 405.26 28.8 409.83 30.45 400.16 23.43 393.32 33.14 391.91 37.48 383.12"/><polygon points="74.25 383.12 78.59 391.91 88.29 393.32 81.27 400.16 82.93 409.83 74.25 405.26 65.57 409.83 67.23 400.16 60.21 393.32 69.91 391.91 74.25 383.12"/><polygon points="111.02 383.12 115.36 391.91 125.07 393.32 118.05 400.16 119.7 409.83 111.02 405.26 102.34 409.83 104 400.16 96.98 393.32 106.69 391.91 111.02 383.12"/><polygon points="145.72 383.12 150.06 391.91 159.76 393.32 152.74 400.16 154.4 409.83 145.72 405.26 137.04 409.83 138.69 400.16 131.67 393.32 141.38 391.91 145.72 383.12"/><polygon points="182.49 383.12 186.83 391.91 196.53 393.32 189.51 400.16 191.17 409.83 182.49 405.26 173.81 409.83 175.47 400.16 168.45 393.32 178.15 391.91 182.49 383.12"/><polygon points="219.26 383.12 223.6 391.91 233.31 393.32 226.28 400.16 227.94 409.83 219.26 405.26 210.59 409.83 212.24 400.16 205.22 393.32 214.92 391.91 219.26 383.12"/><polygon points="254.26 383.12 258.6 391.91 268.31 393.32 261.28 400.16 262.94 409.83 254.26 405.26 245.58 409.83 247.24 400.16 240.22 393.32 249.92 391.91 254.26 383.12"/><polygon points="291.04 383.12 295.38 391.91 305.08 393.32 298.06 400.16 299.71 409.83 291.04 405.26 282.36 409.83 284.01 400.16 276.99 393.32 286.7 391.91 291.04 383.12"/><polygon points="327.81 383.12 332.15 391.91 341.85 393.32 334.83 400.16 336.49 409.83 327.81 405.26 319.13 409.83 320.79 400.16 313.77 393.32 323.47 391.91 327.81 383.12"/><polygon points="55.44 415.04 59.77 423.83 69.48 425.25 62.46 432.09 64.11 441.75 55.44 437.19 46.76 441.75 48.41 432.09 41.39 425.25 51.1 423.83 55.44 415.04"/><polygon points="20.02 415.04 24.36 423.83 34.06 425.25 27.04 432.09 28.7 441.75 20.02 437.19 11.34 441.75 13 432.09 5.97 425.25 15.68 423.83 20.02 415.04"/><polygon points="92.21 415.04 96.55 423.83 106.25 425.25 99.23 432.09 100.89 441.75 92.21 437.19 83.53 441.75 85.19 432.09 78.17 425.25 87.87 423.83 92.21 415.04"/><polygon points="128.98 415.04 133.32 423.83 143.03 425.25 136 432.09 137.66 441.75 128.98 437.19 120.3 441.75 121.96 432.09 114.94 425.25 124.64 423.83 128.98 415.04"/><polygon points="163.68 415.04 168.01 423.83 177.72 425.25 170.7 432.09 172.35 441.75 163.68 437.19 155 441.75 156.65 432.09 149.63 425.25 159.34 423.83 163.68 415.04"/><polygon points="200.45 415.04 204.79 423.83 214.49 425.25 207.47 432.09 209.13 441.75 200.45 437.19 191.77 441.75 193.43 432.09 186.41 425.25 196.11 423.83 200.45 415.04"/><polygon points="237.22 415.04 241.56 423.83 251.26 425.25 244.24 432.09 245.9 441.75 237.22 437.19 228.54 441.75 230.2 432.09 223.18 425.25 232.88 423.83 237.22 415.04"/><polygon points="272.22 415.04 276.56 423.83 286.26 425.25 279.24 432.09 280.9 441.75 272.22 437.19 263.54 441.75 265.2 432.09 258.18 425.25 267.88 423.83 272.22 415.04"/><polygon points="309 415.04 313.33 423.83 323.04 425.25 316.02 432.09 317.67 441.75 309 437.19 300.32 441.75 301.97 432.09 294.95 425.25 304.65 423.83 309 415.04"/><polygon points="345.77 415.04 350.11 423.83 359.81 425.25 352.79 432.09 354.45 441.75 345.77 437.19 337.09 441.75 338.75 432.09 331.73 425.25 341.43 423.83 345.77 415.04"/><polygon points="37.07 446.97 41.41 455.76 51.12 457.17 44.1 464.02 45.75 473.68 37.07 469.12 28.39 473.68 30.05 464.02 23.03 457.17 32.73 455.76 37.07 446.97"/><polygon points="73.85 446.97 78.19 455.76 87.89 457.17 80.87 464.02 82.53 473.68 73.85 469.12 65.17 473.68 66.83 464.02 59.8 457.17 69.51 455.76 73.85 446.97"/><polygon points="110.62 446.97 114.96 455.76 124.67 457.17 117.64 464.02 119.3 473.68 110.62 469.12 101.94 473.68 103.6 464.02 96.58 457.17 106.28 455.76 110.62 446.97"/><polygon points="145.31 446.97 149.65 455.76 159.36 457.17 152.34 464.02 153.99 473.68 145.31 469.12 136.63 473.68 138.29 464.02 131.27 457.17 140.97 455.76 145.31 446.97"/><polygon points="182.09 446.97 186.43 455.76 196.13 457.17 189.11 464.02 190.77 473.68 182.09 469.12 173.41 473.68 175.07 464.02 168.04 457.17 177.75 455.76 182.09 446.97"/><polygon points="218.86 446.97 223.2 455.76 232.9 457.17 225.88 464.02 227.54 473.68 218.86 469.12 210.18 473.68 211.84 464.02 204.82 457.17 214.52 455.76 218.86 446.97"/><polygon points="253.86 446.97 258.2 455.76 267.9 457.17 260.88 464.02 262.54 473.68 253.86 469.12 245.18 473.68 246.84 464.02 239.82 457.17 249.52 455.76 253.86 446.97"/><polygon points="290.63 446.97 294.97 455.76 304.68 457.17 297.65 464.02 299.31 473.68 290.63 469.12 281.95 473.68 283.61 464.02 276.59 457.17 286.29 455.76 290.63 446.97"/><polygon points="327.41 446.97 331.75 455.76 341.45 457.17 334.43 464.02 336.09 473.68 327.41 469.12 318.73 473.68 320.39 464.02 313.36 457.17 323.07 455.76 327.41 446.97"/><polygon points="55.03 478.89 59.37 487.69 69.08 489.1 62.05 495.94 63.71 505.61 55.03 501.04 46.35 505.61 48.01 495.94 40.99 489.1 50.69 487.69 55.03 478.89"/><polygon points="19.61 478.89 23.95 487.69 33.66 489.1 26.64 495.94 28.29 505.61 19.61 501.04 10.94 505.61 12.59 495.94 5.57 489.1 15.28 487.69 19.61 478.89"/><polygon points="91.81 478.89 96.15 487.69 105.85 489.1 98.83 495.94 100.49 505.61 91.81 501.04 83.13 505.61 84.78 495.94 77.76 489.1 87.47 487.69 91.81 478.89"/><polygon points="128.58 478.89 132.92 487.69 142.62 489.1 135.6 495.94 137.26 505.61 128.58 501.04 119.9 505.61 121.56 495.94 114.54 489.1 124.24 487.69 128.58 478.89"/><polygon points="163.27 478.89 167.61 487.69 177.31 489.1 170.29 495.94 171.95 505.61 163.27 501.04 154.59 505.61 156.25 495.94 149.23 489.1 158.93 487.69 163.27 478.89"/><polygon points="200.05 478.89 204.39 487.69 214.09 489.1 207.07 495.94 208.72 505.61 200.05 501.04 191.37 505.61 193.03 495.94 186 489.1 195.71 487.69 200.05 478.89"/><polygon points="236.82 478.89 241.16 487.69 250.86 489.1 243.84 495.94 245.5 505.61 236.82 501.04 228.14 505.61 229.8 495.94 222.78 489.1 232.48 487.69 236.82 478.89"/><polygon points="271.82 478.89 276.16 487.69 285.86 489.1 278.84 495.94 280.5 505.61 271.82 501.04 263.14 505.61 264.8 495.94 257.78 489.1 267.48 487.69 271.82 478.89"/><polygon points="308.59 478.89 312.93 487.69 322.63 489.1 315.61 495.94 317.27 505.61 308.59 501.04 299.91 505.61 301.57 495.94 294.55 489.1 304.25 487.69 308.59 478.89"/><polygon points="345.37 478.89 349.7 487.69 359.41 489.1 352.39 495.94 354.05 505.61 345.37 501.04 336.69 505.61 338.34 495.94 331.32 489.1 341.03 487.69 345.37 478.89"/><polygon points="37.07 509.82 41.41 518.61 51.12 520.02 44.1 526.87 45.75 536.53 37.07 531.97 28.39 536.53 30.05 526.87 23.03 520.02 32.73 518.61 37.07 509.82"/><polygon points="73.85 509.82 78.19 518.61 87.89 520.02 80.87 526.87 82.53 536.53 73.85 531.97 65.17 536.53 66.83 526.87 59.8 520.02 69.51 518.61 73.85 509.82"/><polygon points="110.62 509.82 114.96 518.61 124.67 520.02 117.64 526.87 119.3 536.53 110.62 531.97 101.94 536.53 103.6 526.87 96.58 520.02 106.28 518.61 110.62 509.82"/><polygon points="145.31 509.82 149.65 518.61 159.36 520.02 152.34 526.87 153.99 536.53 145.31 531.97 136.63 536.53 138.29 526.87 131.27 520.02 140.97 518.61 145.31 509.82"/><polygon points="182.09 509.82 186.43 518.61 196.13 520.02 189.11 526.87 190.77 536.53 182.09 531.97 173.41 536.53 175.07 526.87 168.04 520.02 177.75 518.61 182.09 509.82"/><polygon points="218.86 509.82 223.2 518.61 232.9 520.02 225.88 526.87 227.54 536.53 218.86 531.97 210.18 536.53 211.84 526.87 204.82 520.02 214.52 518.61 218.86 509.82"/><polygon points="253.86 509.82 258.2 518.61 267.9 520.02 260.88 526.87 262.54 536.53 253.86 531.97 245.18 536.53 246.84 526.87 239.82 520.02 249.52 518.61 253.86 509.82"/><polygon points="290.63 509.82 294.97 518.61 304.68 520.02 297.65 526.87 299.31 536.53 290.63 531.97 281.95 536.53 283.61 526.87 276.59 520.02 286.29 518.61 290.63 509.82"/><polygon points="327.41 509.82 331.75 518.61 341.45 520.02 334.43 526.87 336.09 536.53 327.41 531.97 318.73 536.53 320.39 526.87 313.36 520.02 323.07 518.61 327.41 509.82"/><polygon points="55.03 541.75 59.37 550.54 69.08 551.95 62.05 558.79 63.71 568.46 55.03 563.9 46.35 568.46 48.01 558.79 40.99 551.95 50.69 550.54 55.03 541.75"/><polygon points="19.61 541.75 23.95 550.54 33.66 551.95 26.64 558.79 28.29 568.46 19.61 563.9 10.94 568.46 12.59 558.79 5.57 551.95 15.28 550.54 19.61 541.75"/><polygon points="91.81 541.75 96.15 550.54 105.85 551.95 98.83 558.79 100.49 568.46 91.81 563.9 83.13 568.46 84.78 558.79 77.76 551.95 87.47 550.54 91.81 541.75"/><polygon points="128.58 541.75 132.92 550.54 142.62 551.95 135.6 558.79 137.26 568.46 128.58 563.9 119.9 568.46 121.56 558.79 114.54 551.95 124.24 550.54 128.58 541.75"/><polygon points="163.27 541.75 167.61 550.54 177.31 551.95 170.29 558.79 171.95 568.46 163.27 563.9 154.59 568.46 156.25 558.79 149.23 551.95 158.93 550.54 163.27 541.75"/><polygon points="200.05 541.75 204.39 550.54 214.09 551.95 207.07 558.79 208.72 568.46 200.05 563.9 191.37 568.46 193.03 558.79 186 551.95 195.71 550.54 200.05 541.75"/><polygon points="236.82 541.75 241.16 550.54 250.86 551.95 243.84 558.79 245.5 568.46 236.82 563.9 228.14 568.46 229.8 558.79 222.78 551.95 232.48 550.54 236.82 541.75"/><polygon points="271.82 541.75 276.16 550.54 285.86 551.95 278.84 558.79 280.5 568.46 271.82 563.9 263.14 568.46 264.8 558.79 257.78 551.95 267.48 550.54 271.82 541.75"/><polygon points="308.59 541.75 312.93 550.54 322.63 551.95 315.61 558.79 317.27 568.46 308.59 563.9 299.91 568.46 301.57 558.79 294.55 551.95 304.25 550.54 308.59 541.75"/><polygon points="345.37 541.75 349.7 550.54 359.41 551.95 352.39 558.79 354.05 568.46 345.37 563.9 336.69 568.46 338.34 558.79 331.32 551.95 341.03 550.54 345.37 541.75"/><polygon points="36.67 573.67 41.01 582.47 50.72 583.88 43.69 590.72 45.35 600.38 36.67 595.82 27.99 600.38 29.65 590.72 22.63 583.88 32.33 582.47 36.67 573.67"/><polygon points="73.45 573.67 77.78 582.47 87.49 583.88 80.47 590.72 82.12 600.38 73.45 595.82 64.77 600.38 66.42 590.72 59.4 583.88 69.11 582.47 73.45 573.67"/><polygon points="110.22 573.67 114.56 582.47 124.26 583.88 117.24 590.72 118.9 600.38 110.22 595.82 101.54 600.38 103.2 590.72 96.18 583.88 105.88 582.47 110.22 573.67"/><polygon points="144.91 573.67 149.25 582.47 158.95 583.88 151.93 590.72 153.59 600.38 144.91 595.82 136.23 600.38 137.89 590.72 130.87 583.88 140.57 582.47 144.91 573.67"/><polygon points="181.69 573.67 186.03 582.47 195.73 583.88 188.71 590.72 190.36 600.38 181.69 595.82 173.01 600.38 174.66 590.72 167.64 583.88 177.35 582.47 181.69 573.67"/><polygon points="218.46 573.67 222.8 582.47 232.5 583.88 225.48 590.72 227.14 600.38 218.46 595.82 209.78 600.38 211.44 590.72 204.42 583.88 214.12 582.47 218.46 573.67"/><polygon points="253.46 573.67 257.8 582.47 267.5 583.88 260.48 590.72 262.14 600.38 253.46 595.82 244.78 600.38 246.44 590.72 239.41 583.88 249.12 582.47 253.46 573.67"/><polygon points="290.23 573.67 294.57 582.47 304.27 583.88 297.25 590.72 298.91 600.38 290.23 595.82 281.55 600.38 283.21 590.72 276.19 583.88 285.89 582.47 290.23 573.67"/><polygon points="327 573.67 331.34 582.47 341.05 583.88 334.03 590.72 335.68 600.38 327 595.82 318.33 600.38 319.98 590.72 312.96 583.88 322.67 582.47 327 573.67"/><polygon points="54.63 605.6 58.97 614.39 68.67 615.8 61.65 622.65 63.31 632.31 54.63 627.75 45.95 632.31 47.61 622.65 40.59 615.8 50.29 614.39 54.63 605.6"/><polygon points="19.21 605.6 23.55 614.39 33.26 615.8 26.23 622.65 27.89 632.31 19.21 627.75 10.53 632.31 12.19 622.65 5.17 615.8 14.87 614.39 19.21 605.6"/><polygon points="91.4 605.6 95.74 614.39 105.45 615.8 98.42 622.65 100.08 632.31 91.4 627.75 82.72 632.31 84.38 622.65 77.36 615.8 87.06 614.39 91.4 605.6"/><polygon points="128.18 605.6 132.52 614.39 142.22 615.8 135.2 622.65 136.86 632.31 128.18 627.75 119.5 632.31 121.16 622.65 114.14 615.8 123.84 614.39 128.18 605.6"/><polygon points="162.87 605.6 167.21 614.39 176.91 615.8 169.89 622.65 171.55 632.31 162.87 627.75 154.19 632.31 155.85 622.65 148.83 615.8 158.53 614.39 162.87 605.6"/><polygon points="199.64 605.6 203.98 614.39 213.69 615.8 206.66 622.65 208.32 632.31 199.64 627.75 190.97 632.31 192.62 622.65 185.6 615.8 195.3 614.39 199.64 605.6"/><polygon points="236.42 605.6 240.76 614.39 250.46 615.8 243.44 622.65 245.1 632.31 236.42 627.75 227.74 632.31 229.4 622.65 222.38 615.8 232.08 614.39 236.42 605.6"/><polygon points="271.42 605.6 275.75 614.39 285.46 615.8 278.44 622.65 280.1 632.31 271.42 627.75 262.74 632.31 264.39 622.65 257.37 615.8 267.08 614.39 271.42 605.6"/><polygon points="308.19 605.6 312.53 614.39 322.23 615.8 315.21 622.65 316.87 632.31 308.19 627.75 299.51 632.31 301.17 622.65 294.15 615.8 303.85 614.39 308.19 605.6"/><polygon points="344.96 605.6 349.3 614.39 359.01 615.8 351.99 622.65 353.64 632.31 344.96 627.75 336.28 632.31 337.94 622.65 330.92 615.8 340.62 614.39 344.96 605.6"/><polygon points="40.79 637.53 45.13 646.32 54.83 647.73 47.81 654.57 49.47 664.24 40.79 659.67 32.11 664.24 33.77 654.57 26.75 647.73 36.45 646.32 40.79 637.53"/><polygon points="77.56 637.53 81.9 646.32 91.61 647.73 84.58 654.57 86.24 664.24 77.56 659.67 68.88 664.24 70.54 654.57 63.52 647.73 73.22 646.32 77.56 637.53"/><polygon points="114.34 637.53 118.68 646.32 128.38 647.73 121.36 654.57 123.02 664.24 114.34 659.67 105.66 664.24 107.31 654.57 100.29 647.73 110 646.32 114.34 637.53"/><polygon points="149.03 637.53 153.37 646.32 163.07 647.73 156.05 654.57 157.71 664.24 149.03 659.67 140.35 664.24 142.01 654.57 134.99 647.73 144.69 646.32 149.03 637.53"/><polygon points="185.8 637.53 190.14 646.32 199.84 647.73 192.82 654.57 194.48 664.24 185.8 659.67 177.12 664.24 178.78 654.57 171.76 647.73 181.46 646.32 185.8 637.53"/><polygon points="222.58 637.53 226.91 646.32 236.62 647.73 229.6 654.57 231.25 664.24 222.58 659.67 213.9 664.24 215.56 654.57 208.53 647.73 218.24 646.32 222.58 637.53"/><polygon points="257.57 637.53 261.91 646.32 271.62 647.73 264.6 654.57 266.25 664.24 257.57 659.67 248.9 664.24 250.55 654.57 243.53 647.73 253.24 646.32 257.57 637.53"/><polygon points="294.35 637.53 298.69 646.32 308.39 647.73 301.37 654.57 303.03 664.24 294.35 659.67 285.67 664.24 287.33 654.57 280.31 647.73 290.01 646.32 294.35 637.53"/><polygon points="331.12 637.53 335.46 646.32 345.17 647.73 338.14 654.57 339.8 664.24 331.12 659.67 322.44 664.24 324.1 654.57 317.08 647.73 326.78 646.32 331.12 637.53"/><polygon points="58.75 669.45 63.09 678.25 72.79 679.66 65.77 686.5 67.43 696.16 58.75 691.6 50.07 696.16 51.73 686.5 44.7 679.66 54.41 678.25 58.75 669.45"/><polygon points="23.33 669.45 27.67 678.25 37.37 679.66 30.35 686.5 32.01 696.16 23.33 691.6 14.65 696.16 16.31 686.5 9.29 679.66 18.99 678.25 23.33 669.45"/><polygon points="95.52 669.45 99.86 678.25 109.56 679.66 102.54 686.5 104.2 696.16 95.52 691.6 86.84 696.16 88.5 686.5 81.48 679.66 91.18 678.25 95.52 669.45"/><polygon points="132.29 669.45 136.63 678.25 146.34 679.66 139.32 686.5 140.97 696.16 132.29 691.6 123.62 696.16 125.27 686.5 118.25 679.66 127.95 678.25 132.29 669.45"/><polygon points="166.99 669.45 171.33 678.25 181.03 679.66 174.01 686.5 175.67 696.16 166.99 691.6 158.31 696.16 159.97 686.5 152.94 679.66 162.65 678.25 166.99 669.45"/><polygon points="203.76 669.45 208.1 678.25 217.8 679.66 210.78 686.5 212.44 696.16 203.76 691.6 195.08 696.16 196.74 686.5 189.72 679.66 199.42 678.25 203.76 669.45"/><polygon points="240.53 669.45 244.87 678.25 254.58 679.66 247.56 686.5 249.21 696.16 240.53 691.6 231.86 696.16 233.51 686.5 226.49 679.66 236.19 678.25 240.53 669.45"/><polygon points="275.53 669.45 279.87 678.25 289.58 679.66 282.55 686.5 284.21 696.16 275.53 691.6 266.85 696.16 268.51 686.5 261.49 679.66 271.19 678.25 275.53 669.45"/><polygon points="312.31 669.45 316.65 678.25 326.35 679.66 319.33 686.5 320.99 696.16 312.31 691.6 303.63 696.16 305.29 686.5 298.26 679.66 307.97 678.25 312.31 669.45"/><polygon points="349.08 669.45 353.42 678.25 363.12 679.66 356.1 686.5 357.76 696.16 349.08 691.6 340.4 696.16 342.06 686.5 335.04 679.66 344.74 678.25 349.08 669.45"/><polygon points="40.39 701.38 44.73 710.17 54.43 711.58 47.41 718.43 49.06 728.09 40.39 723.53 31.71 728.09 33.37 718.43 26.34 711.58 36.05 710.17 40.39 701.38"/><polygon points="77.16 701.38 81.5 710.17 91.2 711.58 84.18 718.43 85.84 728.09 77.16 723.53 68.48 728.09 70.14 718.43 63.12 711.58 72.82 710.17 77.16 701.38"/><polygon points="113.93 701.38 118.27 710.17 127.98 711.58 120.95 718.43 122.61 728.09 113.93 723.53 105.25 728.09 106.91 718.43 99.89 711.58 109.59 710.17 113.93 701.38"/><polygon points="148.63 701.38 152.97 710.17 162.67 711.58 155.65 718.43 157.31 728.09 148.63 723.53 139.95 728.09 141.6 718.43 134.58 711.58 144.29 710.17 148.63 701.38"/><polygon points="185.4 701.38 189.74 710.17 199.44 711.58 192.42 718.43 194.08 728.09 185.4 723.53 176.72 728.09 178.38 718.43 171.36 711.58 181.06 710.17 185.4 701.38"/><polygon points="222.17 701.38 226.51 710.17 236.22 711.58 229.19 718.43 230.85 728.09 222.17 723.53 213.49 728.09 215.15 718.43 208.13 711.58 217.83 710.17 222.17 701.38"/><polygon points="257.17 701.38 261.51 710.17 271.21 711.58 264.19 718.43 265.85 728.09 257.17 723.53 248.49 728.09 250.15 718.43 243.13 711.58 252.83 710.17 257.17 701.38"/><polygon points="293.95 701.38 298.29 710.17 307.99 711.58 300.97 718.43 302.63 728.09 293.95 723.53 285.27 728.09 286.92 718.43 279.9 711.58 289.61 710.17 293.95 701.38"/><polygon points="330.72 701.38 335.06 710.17 344.76 711.58 337.74 718.43 339.4 728.09 330.72 723.53 322.04 728.09 323.7 718.43 316.68 711.58 326.38 710.17 330.72 701.38"/><polygon points="58.34 733.31 62.68 742.1 72.39 743.51 65.37 750.35 67.02 760.02 58.34 755.45 49.67 760.02 51.32 750.35 44.3 743.51 54.01 742.1 58.34 733.31"/><polygon points="22.93 733.31 27.27 742.1 36.97 743.51 29.95 750.35 31.61 760.02 22.93 755.45 14.25 760.02 15.9 750.35 8.88 743.51 18.59 742.1 22.93 733.31"/><polygon points="95.12 733.31 99.46 742.1 109.16 743.51 102.14 750.35 103.8 760.02 95.12 755.45 86.44 760.02 88.1 750.35 81.08 743.51 90.78 742.1 95.12 733.31"/><polygon points="131.89 733.31 136.23 742.1 145.94 743.51 138.91 750.35 140.57 760.02 131.89 755.45 123.21 760.02 124.87 750.35 117.85 743.51 127.55 742.1 131.89 733.31"/><polygon points="166.58 733.31 170.92 742.1 180.63 743.51 173.61 750.35 175.26 760.02 166.58 755.45 157.91 760.02 159.56 750.35 152.54 743.51 162.25 742.1 166.58 733.31"/><polygon points="203.36 733.31 207.7 742.1 217.4 743.51 210.38 750.35 212.04 760.02 203.36 755.45 194.68 760.02 196.34 750.35 189.31 743.51 199.02 742.1 203.36 733.31"/><polygon points="240.13 733.31 244.47 742.1 254.18 743.51 247.15 750.35 248.81 760.02 240.13 755.45 231.45 760.02 233.11 750.35 226.09 743.51 235.79 742.1 240.13 733.31"/><polygon points="275.13 733.31 279.47 742.1 289.17 743.51 282.15 750.35 283.81 760.02 275.13 755.45 266.45 760.02 268.11 750.35 261.09 743.51 270.79 742.1 275.13 733.31"/><polygon points="311.9 733.31 316.24 742.1 325.95 743.51 318.93 750.35 320.58 760.02 311.9 755.45 303.23 760.02 304.88 750.35 297.86 743.51 307.56 742.1 311.9 733.31"/><polygon points="348.68 733.31 353.02 742.1 362.72 743.51 355.7 750.35 357.36 760.02 348.68 755.45 340 760.02 341.66 750.35 334.63 743.51 344.34 742.1 348.68 733.31"/></g></g></g></g></svg>