<svg xmlns="http://www.w3.org/2000/svg" viewBox="0 0 740.28 266.69"><defs><style>.cls-1{fill:#eae9e8;}.cls-2{fill:#7fdef7;}.cls-3{fill:#5fa3b2;opacity:0.5;}.cls-4{fill:#29825e;}.cls-5{fill:#39c976;}.cls-6{fill:#a32b34;}.cls-7{fill:#5b584d;}.cls-8{fill:#726f65;}.cls-9{fill:#ad3846;}.cls-10{fill:#842837;}</style></defs><title>Asset 13</title><g id="Layer_2" data-name="Layer 2"><g id="Layer_1-2" data-name="Layer 1"><path class="cls-1" d="M59.71,266.69a58.66,58.66,0,0,1-42.18-17.93A61.37,61.37,0,0,1,0,205.62V61.06A61.35,61.35,0,0,1,17.53,17.93,58.66,58.66,0,0,1,59.71,0H680.57a58.66,58.66,0,0,1,42.18,17.93,61.31,61.31,0,0,1,17.53,43.13V205.62a61.33,61.33,0,0,1-17.53,43.14,58.66,58.66,0,0,1-42.18,17.93Z"/><rect class="cls-2" x="8.8" y="9" width="722.68" height="248.68" rx="52.06"/><ellipse class="cls-3" cx="349.43" cy="225.36" rx="213.92" ry="32.32"/><path class="cls-4" d="M14.93,112.3s21,74.26,75.73,107.21,79,22.38,79,22.38Z"/><path class="cls-5" d="M14.69,112.58s76.79,7.63,118.83,55.76,35.87,73.83,35.87,73.83Z"/><path class="cls-4" d="M212.4,13.27S164.86,74.05,170.62,137.7s28.59,76.94,28.59,76.94Z"/><path class="cls-5" d="M212,13.25s39.2,66.46,25.19,128.82-38.37,72.54-38.37,72.54Z"/><path class="cls-4" d="M457.59,21.23s-21.24,82.52,12.72,144.39,62.93,65.22,62.93,65.22Z"/><path class="cls-5" d="M457.21,21.37s69,49.93,82.43,119.23S532.86,231,532.86,231Z"/><path class="cls-4" d="M721.88,149.92s-47.36,70.84-116.12,86.76-90.57-3.45-90.57-3.45Z"/><path class="cls-5" d="M722,150.3s-83.25-18.2-143.83,18-62.86,65.29-62.86,65.29Z"/><path class="cls-6" d="M196.48,58a32.37,32.37,0,0,0-41.85-10.49c-10.83.52-29.69,8.53-49,21.56S71.73,96.6,67.17,106.44a32.37,32.37,0,0,0-6,42.72l26.93,40a31.84,31.84,0,0,0,2.7,3.47q1.69,3.06,3.69,6a81.58,81.58,0,1,0,135.33-91.13c-1.33-2-2.73-3.87-4.2-5.68a31.58,31.58,0,0,0-2.2-3.81Z"/><path class="cls-7" d="M118.73,86.68S108.21,52.21,130,35.53"/><path class="cls-7" d="M132.33,82.12c-.48-1.6-.83-3.25-1.15-4.88l.71,3.65a70.5,70.5,0,0,1-1.26-17.81l-.24,3.66a49.15,49.15,0,0,1,2.24-12.08l-1.15,3.49a36.76,36.76,0,0,1,4-8.35l-2,3.11A33.15,33.15,0,0,1,139,46.46L136.07,49c.62-.55,1.25-1.07,1.91-1.58a10.73,10.73,0,0,0,3.89-4.11,10.78,10.78,0,0,0,2.18-5,10.86,10.86,0,0,0-.12-5.49,10.88,10.88,0,0,0-2.06-5.28c-2.22-3-5.38-5.49-9.16-6.06-3.62-.55-7.76-.14-10.76,2.18a49.58,49.58,0,0,0-8.36,7.89,51.13,51.13,0,0,0-5.83,9,58.82,58.82,0,0,0-3.67,9.87,45.71,45.71,0,0,0-1.45,6.74A79.28,79.28,0,0,0,102,73.35a100.35,100.35,0,0,0,2,13.34c.31,1.53.64,3.06,1.09,4.56a10.85,10.85,0,0,0,3,4.88,12.84,12.84,0,0,0,9.71,4.75,10.81,10.81,0,0,0,5.48-.59c3.52-1.36,6.83-3.81,8.36-7.38a15.27,15.27,0,0,0,.68-10.79Z"/><path class="cls-8" d="M113.48,97.06c-.46-1.49-.79-3-1.1-4.56a103.32,103.32,0,0,1-2-13.33A79.35,79.35,0,0,1,111,62.94a46.58,46.58,0,0,1,1.44-6.73,59.85,59.85,0,0,1,3.68-9.88,51.05,51.05,0,0,1,5.83-9,49.26,49.26,0,0,1,8.36-7.9c3-2.32,7.13-2.73,10.76-2.18l.7.13c-2.21-2.93-5.33-5.38-9.06-5.94S125,21.31,122,23.63a49.58,49.58,0,0,0-8.36,7.89,51.13,51.13,0,0,0-5.83,9,58.82,58.82,0,0,0-3.67,9.87,45.71,45.71,0,0,0-1.45,6.74A79.28,79.28,0,0,0,102,73.35a100.35,100.35,0,0,0,2,13.34c.31,1.53.64,3.06,1.09,4.56a10.85,10.85,0,0,0,3,4.88,10.68,10.68,0,0,0,4.4,3.48,11.16,11.16,0,0,0,2.77,1A10.9,10.9,0,0,1,113.48,97.06Z"/><path class="cls-9" d="M155.75,112.3s-23.45,27.36-49.2,18"/><path class="cls-9" d="M144.6,103.26a49.55,49.55,0,0,1-3.5,3.6l2.7-2.56a70.37,70.37,0,0,1-14.36,10.61l3.22-1.76a48.75,48.75,0,0,1-11.4,4.58l3.56-.89a36.78,36.78,0,0,1-9.17,1.12l3.72.05a33.31,33.31,0,0,1-8.42-1.2l3.7,1c-.79-.22-1.58-.48-2.36-.76a10.77,10.77,0,0,0-5.56-1.08,12.93,12.93,0,0,0-10,3.91,10.85,10.85,0,0,0-3.34,4.57c-1.34,3.47-1.76,7.48-.21,11s4,6.62,7.61,7.91A49.86,49.86,0,0,0,112,146.22a51.81,51.81,0,0,0,10.71.09A59.49,59.49,0,0,0,133,144.12a46.34,46.34,0,0,0,6.46-2.39,80.3,80.3,0,0,0,14-8.18,101.8,101.8,0,0,0,10.18-8.85c1.12-1.08,2.24-2.18,3.26-3.37a10.81,10.81,0,0,0,2.52-5.14,10.64,10.64,0,0,0,.58-5.57,10.82,10.82,0,0,0-1.78-5.16,10.68,10.68,0,0,0-3.44-4.31c-3-2.24-6.88-3.72-10.71-3.1a15.27,15.27,0,0,0-9.47,5.21Z"/><path class="cls-6" d="M643.13,168.73a32.37,32.37,0,0,0,1.07-43.13c-2.88-10.46-14.82-27.11-31.78-43.14s-34.25-27-44.85-29.3a32.38,32.38,0,0,0-43,3.49l-33.11,35a30.7,30.7,0,0,0-2.8,3.39q-2.61,2.34-5.07,4.93A81.58,81.58,0,0,0,602.16,212.08q2.45-2.6,4.62-5.34a31.34,31.34,0,0,0,3.24-3Z"/><path class="cls-7" d="M598.15,99.14s31.32-17.82,52.37-.25"/><path class="cls-7" d="M605.58,111.41c1.45-.82,3-1.52,4.51-2.2l-3.41,1.5a70.09,70.09,0,0,1,17.1-5.13l-3.62.57a49,49,0,0,1,12.27-.46l-3.65-.36a36.75,36.75,0,0,1,9,2l-3.49-1.3a32.76,32.76,0,0,1,7.51,4l-3.12-2.25c.67.49,1.32,1,2,1.52a14.73,14.73,0,0,0,20.28-.57c2.43-2.81,4.19-6.45,3.92-10.26-.26-3.66-1.56-7.6-4.49-10A49.5,49.5,0,0,0,650.84,82a50.74,50.74,0,0,0-10.05-3.71,59.45,59.45,0,0,0-10.44-1.43,46.6,46.6,0,0,0-6.89.07,78.83,78.83,0,0,0-16,2.94,103.06,103.06,0,0,0-12.57,4.88c-1.43.64-2.85,1.3-4.21,2.07a10.84,10.84,0,0,0-4.11,4,12.85,12.85,0,0,0-2.51,10.51,10.73,10.73,0,0,0,1.78,5.22c2.09,3.13,5.21,5.83,9,6.54a15.32,15.32,0,0,0,10.68-1.7Z"/><path class="cls-8" d="M586.87,96.29c1.36-.77,2.78-1.43,4.21-2.07a100.84,100.84,0,0,1,12.57-4.88,79.41,79.41,0,0,1,16-3,46.48,46.48,0,0,1,6.88-.06,58.27,58.27,0,0,1,10.44,1.42A51.49,51.49,0,0,1,647,91.47a49.45,49.45,0,0,1,9.53,6.42c2.92,2.43,4.23,6.37,4.49,10l0,.71c2.37-2.8,4.08-6.38,3.81-10.14s-1.56-7.6-4.49-10A49.5,49.5,0,0,0,650.84,82a50.74,50.74,0,0,0-10.05-3.71,59.45,59.45,0,0,0-10.44-1.43,46.6,46.6,0,0,0-6.89.07,78.83,78.83,0,0,0-16,2.94,103.06,103.06,0,0,0-12.57,4.88c-1.43.64-2.85,1.3-4.21,2.07a10.94,10.94,0,0,0-4.12,4,10.77,10.77,0,0,0-2.42,5,11,11,0,0,0-.39,2.93A10.92,10.92,0,0,1,586.87,96.29Z"/><path class="cls-9" d="M594,179.71s32.34-15.91,29.62-43.19"/><path class="cls-9" d="M588,166.66c1.5-.74,2.94-1.61,4.35-2.49l-3.15,2a70.1,70.1,0,0,0,13.85-11.26l-2.51,2.68a48.64,48.64,0,0,0,7.27-9.9l-1.74,3.23a37.21,37.21,0,0,0,3.37-8.61l-.88,3.61a32.93,32.93,0,0,0,.92-8.45l.11,3.85c0-.83-.07-1.65-.15-2.48a10.82,10.82,0,0,1,.33-5.65,12.93,12.93,0,0,1,6.27-8.7,10.92,10.92,0,0,1,5.26-2.11c3.69-.43,7.69.16,10.69,2.53s5.41,5.56,5.77,9.34a49.15,49.15,0,0,1,0,11.5,51,51,0,0,1-2.57,10.4,58.44,58.44,0,0,1-4.69,9.44,46.76,46.76,0,0,1-3.92,5.66,79.41,79.41,0,0,1-11.41,11.56,101.68,101.68,0,0,1-11.1,7.65c-1.33.82-2.67,1.63-4.07,2.32a16.15,16.15,0,0,1-11.15.35,11,11,0,0,1-4.56-3,10.75,10.75,0,0,1-3.32-4.4c-1.41-3.5-1.89-7.59-.34-11.15a15.31,15.31,0,0,1,7.41-7.88Z"/><path class="cls-10" d="M228.7,107.59q-2-3-4.19-5.69a31.87,31.87,0,0,0-2.21-3.81L204.44,71.57a42.76,42.76,0,0,0-9.07,4.33,32.37,32.37,0,0,0-27.58,33.18l1.89,48.17a33.15,33.15,0,0,0,.47,4.38q-.17,3.5,0,7.06a81.32,81.32,0,0,0,27.1,57.58A81.63,81.63,0,0,0,228.7,107.59Z"/><path class="cls-10" d="M197.52,61.28l-1.88-2.79A10.3,10.3,0,0,0,197.52,61.28Z"/><path class="cls-10" d="M508,158.69c-.09-2.38-.29-4.73-.58-7a32.2,32.2,0,0,0,.13-4.4l-1.89-48.17a31.92,31.92,0,0,0-5.77-17.14l-8.78,9.28a34.35,34.35,0,0,0-2.8,3.4q-2.61,2.34-5.07,4.92a81.58,81.58,0,0,0,3.25,115.32l1.12,1A81.25,81.25,0,0,0,508,158.69Z"/><path class="cls-6" d="M355.41,106.14A32.37,32.37,0,0,0,327.83,73c-9-6-29-10.66-52.3-11.57S232,63.58,222.47,68.83a32.37,32.37,0,0,0-30.09,30.92l-1.88,48.17a32.11,32.11,0,0,0,.13,4.4c-.29,2.32-.49,4.66-.58,7a81.57,81.57,0,1,0,163,6.39q.15-3.57,0-7.06a33.15,33.15,0,0,0,.47-4.38Z"/><path class="cls-7" d="M275.74,83.33s11.87-34,39.28-34.64"/><path class="cls-7" d="M289.42,87.69a49.31,49.31,0,0,1,1.95-4.63l-1.58,3.37a70,70,0,0,1,9.5-15.11l-2.36,2.81a49.2,49.2,0,0,1,8.94-8.42l-3,2.13A36.9,36.9,0,0,1,311,63.45l-3.48,1.31a32.73,32.73,0,0,1,8.28-1.94l-3.84.36c.83-.08,1.65-.13,2.48-.15A10.82,10.82,0,0,0,320,62a10.72,10.72,0,0,0,4.73-2.78,10.73,10.73,0,0,0,3.15-4.5,10.81,10.81,0,0,0,1.45-5.47c0-3.72-1.09-7.61-3.8-10.31s-6.18-4.69-10-4.59a49.39,49.39,0,0,0-11.41,1.43,51.38,51.38,0,0,0-10,3.82,59.13,59.13,0,0,0-8.8,5.79A47.62,47.62,0,0,0,280.22,50a79.42,79.42,0,0,0-10.09,12.73,101.25,101.25,0,0,0-6.25,11.95A45.3,45.3,0,0,0,262.07,79a10.92,10.92,0,0,0-.48,5.71,10.71,10.71,0,0,0,1.49,5.4,10.89,10.89,0,0,0,3.53,4.16A10.89,10.89,0,0,0,271.39,97c3.64,1,7.76,1,11.1-1a15.35,15.35,0,0,0,6.93-8.31Z"/><path class="cls-8" d="M265.38,88.61a45.3,45.3,0,0,1,1.81-4.32,101.25,101.25,0,0,1,6.25-12,79.42,79.42,0,0,1,10.09-12.73A45.58,45.58,0,0,1,288.67,55a59.13,59.13,0,0,1,8.8-5.79,50.75,50.75,0,0,1,10-3.82A50,50,0,0,1,318.89,44c3.8-.09,7.38,2,10,4.6.17.17.33.34.49.52A14.47,14.47,0,0,0,325.56,39c-2.6-2.58-6.18-4.69-10-4.59a49.39,49.39,0,0,0-11.41,1.43,51.38,51.38,0,0,0-10,3.82,59.13,59.13,0,0,0-8.8,5.79A47.62,47.62,0,0,0,280.22,50a79.42,79.42,0,0,0-10.09,12.73,101.25,101.25,0,0,0-6.25,11.95A45.3,45.3,0,0,0,262.07,79a10.92,10.92,0,0,0-.48,5.71,10.71,10.71,0,0,0,1.49,5.4,11,11,0,0,0,1.64,2.46A10.81,10.81,0,0,1,265.38,88.61Z"/><path class="cls-9" d="M218.65,147.58s-9.39-34.79,12.9-50.76"/><path class="cls-9" d="M232.4,143.47c-.43-1.62-.73-3.27-1-4.92l.6,3.67a70.13,70.13,0,0,1-.68-17.84L231,128a48.8,48.8,0,0,1,2.64-12l-1.27,3.44a36.59,36.59,0,0,1,4.24-8.22l-2.14,3a33.17,33.17,0,0,1,5.74-6.27l-3,2.46c.64-.53,1.29-1,2-1.52a10.77,10.77,0,0,0,4-4,12.9,12.9,0,0,0,2.4-10.46,10.9,10.9,0,0,0-1.89-5.34c-2.11-3-5.19-5.67-9-6.36-3.61-.67-7.75-.39-10.83,1.83a48.76,48.76,0,0,0-8.61,7.62,50.9,50.9,0,0,0-6.12,8.8,58.74,58.74,0,0,0-4,9.75,46.25,46.25,0,0,0-1.66,6.68,78.46,78.46,0,0,0-1.15,16.2A100.6,100.6,0,0,0,204,147.11c.26,1.54.54,3.08.94,4.59a10.83,10.83,0,0,0,2.83,5A10.59,10.59,0,0,0,212,160.3a16,16,0,0,0,10.77,1c3.56-1.24,6.95-3.58,8.6-7.1a15.34,15.34,0,0,0,1-10.76Z"/><path class="cls-10" d="M353.07,165.88q.15-3.57,0-7.07a33.18,33.18,0,0,0,.47-4.37l1.89-48.17a32.36,32.36,0,0,0-27.58-33.18l-.46-.31-.47.31a32.36,32.36,0,0,0-27.58,33.18l1.89,48.17a31.58,31.58,0,0,0,.48,4.37q-.17,3.49,0,7.07a81.27,81.27,0,0,0,25.71,56.3A81.31,81.31,0,0,0,353.07,165.88Z"/><path class="cls-6" d="M329.7,99.36a32.36,32.36,0,0,1,27.57-33.18c9.05-6,29-10.66,52.31-11.58s43.57,2.19,53.05,7.45A32.37,32.37,0,0,1,492.72,93l1.89,48.17a32.16,32.16,0,0,1-.13,4.4q.43,3.47.58,7A81.58,81.58,0,0,1,332,159c-.09-2.37-.08-4.73,0-7.06a31.58,31.58,0,0,1-.48-4.37Z"/><path class="cls-7" d="M409.36,76.55s-11.86-34-39.28-34.64"/><path class="cls-7" d="M395.69,80.9a49.13,49.13,0,0,0-1.95-4.62l1.58,3.37a70.45,70.45,0,0,0-9.5-15.12l2.36,2.82a49.25,49.25,0,0,0-8.95-8.42l3,2.13a37,37,0,0,0-8.14-4.4L377.57,58A32.84,32.84,0,0,0,369.29,56l3.83.37c-.82-.08-1.65-.13-2.48-.15a10.84,10.84,0,0,1-5.57-1,10.87,10.87,0,0,1-4.73-2.78A10.83,10.83,0,0,1,357.2,48a10.75,10.75,0,0,1-1.45-5.48c0-3.71,1.08-7.61,3.8-10.3s6.18-4.69,10-4.6A49.26,49.26,0,0,1,380.93,29a51.11,51.11,0,0,1,10,3.81,58.42,58.42,0,0,1,8.8,5.8,45.68,45.68,0,0,1,5.15,4.58A79.36,79.36,0,0,1,415,55.93a101.18,101.18,0,0,1,6.26,11.94c.65,1.42,1.29,2.86,1.81,4.33a10.92,10.92,0,0,1,.48,5.71A10.65,10.65,0,0,1,422,83.3a10.87,10.87,0,0,1-3.54,4.17,10.86,10.86,0,0,1-4.77,2.76c-3.64,1-7.77,1-11.11-1a15.31,15.31,0,0,1-6.92-8.31Z"/><path class="cls-8" d="M419.73,81.83c-.52-1.48-1.16-2.91-1.81-4.33a102.76,102.76,0,0,0-6.25-12,79.9,79.9,0,0,0-10.09-12.72,45.68,45.68,0,0,0-5.15-4.58,58.42,58.42,0,0,0-8.8-5.8,51.78,51.78,0,0,0-10-3.82,49.8,49.8,0,0,0-11.41-1.43c-3.79-.1-7.37,2-10,4.6l-.49.51c.05-3.66,1.12-7.48,3.8-10.14s6.18-4.69,10-4.6A49.26,49.26,0,0,1,380.93,29a51.11,51.11,0,0,1,10,3.81,58.42,58.42,0,0,1,8.8,5.8,45.68,45.68,0,0,1,5.15,4.58A79.36,79.36,0,0,1,415,55.93a101.18,101.18,0,0,1,6.26,11.94c.65,1.42,1.29,2.86,1.81,4.33a10.92,10.92,0,0,1,.48,5.71A10.65,10.65,0,0,1,422,83.3a11.34,11.34,0,0,1-1.64,2.46A11.19,11.19,0,0,0,419.73,81.83Z"/><path class="cls-9" d="M433.51,205.94s34-12,34.54-39.37"/><path class="cls-9" d="M429.12,192.27a48.11,48.11,0,0,0,4.62-2l-3.36,1.59a70.42,70.42,0,0,0,15.09-9.54l-2.81,2.37a48.86,48.86,0,0,0,8.39-9l-2.12,3a36.74,36.74,0,0,0,4.38-8.14L452,174.09a32.71,32.71,0,0,0,1.93-8.28l-.36,3.83c.08-.82.13-1.65.14-2.47a10.87,10.87,0,0,1,1-5.58,14.77,14.77,0,0,1,12.73-9.36c3.72,0,7.61,1.07,10.31,3.78s4.71,6.17,4.63,10A49.78,49.78,0,0,1,481,177.38a51.46,51.46,0,0,1-3.79,10,59.62,59.62,0,0,1-5.77,8.81,47.62,47.62,0,0,1-4.57,5.16,79.93,79.93,0,0,1-12.7,10.12,102.7,102.7,0,0,1-11.93,6.28c-1.42.66-2.85,1.3-4.32,1.82a10.83,10.83,0,0,1-5.71.49,10.69,10.69,0,0,1-5.4-1.47,16.08,16.08,0,0,1-7-8.3c-1-3.63-1-7.76,1-11.1a15.32,15.32,0,0,1,8.29-6.95Z"/></g></g></svg>