<svg xmlns="http://www.w3.org/2000/svg" viewBox="0 0 480.52 451.11"><defs><style>.cls-1,.cls-5{fill:#42705b;}.cls-2,.cls-9{fill:#86eabf;}.cls-3,.cls-7{fill:#264235;}.cls-3,.cls-5,.cls-8{opacity:0.2;}.cls-4{fill:#292d2b;stroke:#000;stroke-miterlimit:10;}.cls-11,.cls-6{fill:#fff;}.cls-6{opacity:0.4;}.cls-9{opacity:0.5;}.cls-10{fill:#061103;}.cls-12{fill:#e5e5e5;}</style></defs><title>Asset 18</title><g id="Layer_2" data-name="Layer 2"><g id="Layer_1-2" data-name="Layer 1"><path class="cls-1" d="M172.93,451.11a171,171,0,0,1-67.19-13.66,174.52,174.52,0,0,1-92.08-92.08A171,171,0,0,1,0,278.17V213.59A172,172,0,0,1,25.53,123.4a70.86,70.86,0,0,1-13.07-15.16A70.31,70.31,0,0,1,71.73,0H231.16a70.59,70.59,0,0,1,66.4,47.1A174.12,174.12,0,0,1,413.47,154.77a171.34,171.34,0,0,1,10.36,58.82v39.09a89.87,89.87,0,0,1,56.69,83.52A89.87,89.87,0,0,1,352.8,417.69a172.07,172.07,0,0,1-101.91,33.42Z"/><path class="cls-2" d="M407.52,265V214c0-74.67-53-137.58-123.18-153a54.28,54.28,0,0,0-53.18-44.27H71.73A54.23,54.23,0,0,0,17.66,70.78h0a54.25,54.25,0,0,0,30.6,48.69A155.61,155.61,0,0,0,16.31,214v64.58c0,86.15,70.48,156.63,156.62,156.63h78a155.77,155.77,0,0,0,100.29-36.56A73.55,73.55,0,1,0,407.52,265Z"/><path class="cls-3" d="M207.76,289.69a38.28,38.28,0,0,1-38.24-38.24V238.72a35.37,35.37,0,0,0-7.08-.72,33.11,33.11,0,0,0-5.9.53v12.92a38.28,38.28,0,0,1-38.24,38.24h-46a38.28,38.28,0,0,1-38.24-38.24v-20A38.28,38.28,0,0,1,72.3,193.24h46a38.1,38.1,0,0,1,35,22.78,38.91,38.91,0,0,1,9.62-1.22,36.61,36.61,0,0,1,9.84,1.34,38.6,38.6,0,0,1,12.15-15.29,37.87,37.87,0,0,1,22.87-7.61h46A38.28,38.28,0,0,1,292,231.48v20a38.28,38.28,0,0,1-38.24,38.24Zm0-78A19.82,19.82,0,0,0,188,231.48v20a19.83,19.83,0,0,0,19.8,19.81h46a19.83,19.83,0,0,0,19.81-19.81v-20a19.82,19.82,0,0,0-19.81-19.81Zm-135.45,0a19.82,19.82,0,0,0-19.81,19.81v20A19.83,19.83,0,0,0,72.3,271.26h46a19.83,19.83,0,0,0,19.81-19.81v-20a19.82,19.82,0,0,0-19.81-19.81Z"/><rect class="cls-4" x="68.89" y="213.32" width="48.59" height="48.59" rx="24.3"/><rect class="cls-4" x="190.21" y="212.93" width="48.59" height="48.59" rx="24.3"/><path class="cls-5" d="M390.67,400.79a73.18,73.18,0,0,1-39.49-11.5,155.77,155.77,0,0,1-100.29,36.56h-78c-86.14,0-156.62-70.48-156.62-156.63v10.1C16.31,365.47,86.79,436,172.93,436h78a155.77,155.77,0,0,0,100.29-36.56,73.54,73.54,0,0,0,113-62c0-1.71-.06-3.4-.17-5.08A73.55,73.55,0,0,1,390.67,400.79Z"/><circle class="cls-6" cx="433.99" cy="311.55" r="11.55"/><rect class="cls-6" x="84.78" y="6.87" width="21.04" height="67.16" rx="10.52" transform="translate(54.85 135.75) rotate(-90)"/><circle class="cls-6" cx="156.45" cy="40.45" r="11.55"/><path class="cls-7" d="M201.18,285.45a38.28,38.28,0,0,1-38.24-38.24V234.49a35.37,35.37,0,0,0-7.08-.72,33.11,33.11,0,0,0-5.9.52v12.92a38.28,38.28,0,0,1-38.23,38.24h-46a38.28,38.28,0,0,1-38.24-38.24v-20A38.28,38.28,0,0,1,65.72,189h46a38.1,38.1,0,0,1,35,22.78,38.91,38.91,0,0,1,9.62-1.22,36.61,36.61,0,0,1,9.84,1.34,38.74,38.74,0,0,1,12.15-15.29A37.87,37.87,0,0,1,201.18,189h46a38.28,38.28,0,0,1,38.24,38.24v20a38.28,38.28,0,0,1-38.24,38.24Zm0-78a19.83,19.83,0,0,0-19.81,19.81v20A19.82,19.82,0,0,0,201.18,267h46A19.82,19.82,0,0,0,267,247.21v-20a19.83,19.83,0,0,0-19.81-19.81Zm-135.46,0a19.82,19.82,0,0,0-19.81,19.81v20A19.82,19.82,0,0,0,65.72,267h46a19.82,19.82,0,0,0,19.8-19.81v-20a19.82,19.82,0,0,0-19.8-19.81Z"/><g class="cls-8"><path class="cls-1" d="M34.09,99.26c-10.3-8.77-16.28-21.57-17.53-34.94-1.6,17,4.51,34.5,17.53,45.59l24,20.42a54,54,0,0,1-6.15-15.89Z"/></g><circle class="cls-9" cx="79.97" cy="225.23" r="3.68"/><circle class="cls-9" cx="87.59" cy="228.37" r="1.99"/><circle class="cls-9" cx="202.6" cy="225.98" r="3.68"/><circle class="cls-9" cx="210.23" cy="229.12" r="1.99"/><path class="cls-10" d="M205.1,134.39l.08-.06-3,2.3a44.63,44.63,0,0,1,9.77-5.47l-3.51,1.48a57,57,0,0,1,14.56-4l-3.9.53a56.67,56.67,0,0,1,14.72,0l-3.91-.53a63.25,63.25,0,0,1,15.51,4.3l-3.5-1.48a84.12,84.12,0,0,1,18.2,10.82l-3-2.3c3,2.37,5.92,4.88,8.7,7.53,5.57,5.3,15.31,5.94,20.76,0,5.27-5.73,5.94-15.1,0-20.75-15.78-15-35.09-26.1-57.17-27.37a70.13,70.13,0,0,0-37,8.62,54.27,54.27,0,0,0-8.08,5.54c-2.75,2.19-4.3,7-4.3,10.37a14.94,14.94,0,0,0,4.3,10.38c2.79,2.57,6.47,4.48,10.38,4.3l3.9-.52a14.7,14.7,0,0,0,6.47-3.78Z"/><path class="cls-10" d="M123.87,111.14a33.29,33.29,0,0,0-4.5-2.37,72,72,0,0,0-15.08-5.22,73.88,73.88,0,0,0-49.1,6.94c-11.11,5.68-20.92,14.2-29.1,23.55a15.57,15.57,0,0,0-4.3,10.38,14.9,14.9,0,0,0,4.3,10.37c5.54,5.09,15.36,6.17,20.76,0a105.1,105.1,0,0,1,14.3-13.68l-3,2.29a74.61,74.61,0,0,1,16.3-9.64L71,135.24a60.31,60.31,0,0,1,14.55-4l-3.9.52a57.12,57.12,0,0,1,15,0l-3.9-.52a57,57,0,0,1,14.18,3.86l-3.5-1.48a35.84,35.84,0,0,1,5.69,2.9c6.43,4.23,16.52,1.49,20.08-5.27,3.89-7.35,1.59-15.56-5.26-20.08Z"/><path class="cls-11" d="M123.89,307.06s62.2,5.18,98.66,0c0,0-45.14,19.45-52.32,18.56S143.47,324,123.89,307.06Z"/><path class="cls-12" d="M212.77,311c5.79-2.39,9.78-4.11,9.78-4.11-36.46,5.18-98.66,0-98.66,0,2,1.69,3.91,3.22,5.85,4.6C149.12,312.64,186.58,314.21,212.77,311Z"/><g class="cls-8"><path class="cls-1" d="M223.35,300.46s5.15,4.78,0,12.93"/><path class="cls-1" d="M221.07,302.74c.15.15.59.76.22.22a6.48,6.48,0,0,1,.81,1.54c.9,2.52-.25,5.1-1.54,7.26-2.13,3.57,3.45,6.82,5.58,3.25,3-5.05,4.21-12.31-.51-16.83-3-2.87-7.57,1.68-4.56,4.56Z"/></g></g></g></svg>