<svg xmlns="http://www.w3.org/2000/svg" viewBox="0 0 480.52 451.11"><defs><style>.cls-1,.cls-5{fill:#42705b;}.cls-10,.cls-2{fill:#86eabf;}.cls-3,.cls-8{fill:#264235;}.cls-3,.cls-5,.cls-9{opacity:0.2;}.cls-4{fill:#292d2b;stroke:#000;stroke-miterlimit:10;}.cls-6,.cls-7{fill:#fff;}.cls-6{opacity:0.4;}.cls-10{opacity:0.5;}</style></defs><title>Asset 17</title><g id="Layer_2" data-name="Layer 2"><g id="Layer_1-2" data-name="Layer 1"><path class="cls-1" d="M172.93,451.11a171,171,0,0,1-67.19-13.66,174.52,174.52,0,0,1-92.08-92.08A171,171,0,0,1,0,278.17V213.59A172,172,0,0,1,25.53,123.4a70.86,70.86,0,0,1-13.07-15.16A70.31,70.31,0,0,1,71.73,0H231.16a70.59,70.59,0,0,1,66.4,47.1A174.12,174.12,0,0,1,413.47,154.77a171.34,171.34,0,0,1,10.36,58.82v39.09a89.87,89.87,0,0,1,56.69,83.52A89.87,89.87,0,0,1,352.8,417.69a172.07,172.07,0,0,1-101.91,33.42Z"/><path class="cls-2" d="M407.52,265V214c0-74.67-53-137.58-123.18-153a54.28,54.28,0,0,0-53.18-44.27H71.73A54.23,54.23,0,0,0,17.66,70.78h0a54.25,54.25,0,0,0,30.6,48.69A155.61,155.61,0,0,0,16.31,214v64.58c0,86.15,70.48,156.63,156.62,156.63h78a155.77,155.77,0,0,0,100.29-36.56A73.55,73.55,0,1,0,407.52,265Z"/><path class="cls-3" d="M207.76,289.69a38.28,38.28,0,0,1-38.24-38.24V238.72a35.37,35.37,0,0,0-7.08-.72,33.11,33.11,0,0,0-5.9.53v12.92a38.28,38.28,0,0,1-38.24,38.24h-46a38.28,38.28,0,0,1-38.24-38.24v-20A38.28,38.28,0,0,1,72.3,193.24h46a38.1,38.1,0,0,1,35,22.78,38.91,38.91,0,0,1,9.62-1.22,36.61,36.61,0,0,1,9.84,1.34,38.6,38.6,0,0,1,12.15-15.29,37.87,37.87,0,0,1,22.87-7.61h46A38.28,38.28,0,0,1,292,231.48v20a38.28,38.28,0,0,1-38.24,38.24Zm0-78A19.82,19.82,0,0,0,188,231.48v20a19.83,19.83,0,0,0,19.8,19.81h46a19.83,19.83,0,0,0,19.81-19.81v-20a19.82,19.82,0,0,0-19.81-19.81Zm-135.45,0a19.82,19.82,0,0,0-19.81,19.81v20A19.83,19.83,0,0,0,72.3,271.26h46a19.83,19.83,0,0,0,19.81-19.81v-20a19.82,19.82,0,0,0-19.81-19.81Z"/><rect class="cls-4" x="68.89" y="213.32" width="48.59" height="48.59" rx="24.3"/><rect class="cls-4" x="190.21" y="212.93" width="48.59" height="48.59" rx="24.3"/><path class="cls-5" d="M390.67,400.79a73.18,73.18,0,0,1-39.49-11.5,155.77,155.77,0,0,1-100.29,36.56h-78c-86.14,0-156.62-70.48-156.62-156.63v10.1C16.31,365.47,86.79,436,172.93,436h78a155.77,155.77,0,0,0,100.29-36.56,73.54,73.54,0,0,0,113-62c0-1.71-.06-3.4-.17-5.08A73.55,73.55,0,0,1,390.67,400.79Z"/><circle class="cls-6" cx="433.99" cy="311.55" r="11.55"/><rect class="cls-6" x="84.78" y="6.87" width="21.04" height="67.16" rx="10.52" transform="translate(54.85 135.75) rotate(-90)"/><circle class="cls-6" cx="156.45" cy="40.45" r="11.55"/><path class="cls-7" d="M48.41,184.19s95.77-7.7,85.63-21.08"/><path d="M48.41,196.42c11-.89,22-2.11,32.91-3.55,9.92-1.3,19.83-2.7,29.64-4.65,8.11-1.62,16.07-3.6,23.66-7a22.15,22.15,0,0,0,10-8.1c3-4.72,3.4-11.56,0-16.23-1.95-2.65-4-4.71-7.31-5.62a12.56,12.56,0,0,0-9.43,1.23c-5.08,3.28-8.44,11.23-4.38,16.74a4.93,4.93,0,0,1,.52.89l-1.23-2.92a3.37,3.37,0,0,1,.21.77l-.44-3.25a3.42,3.42,0,0,1,0,.64l.43-3.25a3.33,3.33,0,0,1-.2.75L124,160a4.77,4.77,0,0,1-.34.63c-.57.91,2.75-3,1.37-1.81-.19.17-.4.37-.58.56-1.18,1.19,3.24-2.27,1.57-1.22a30.17,30.17,0,0,1-4.18,2.18l2.92-1.23c-10.54,4.38-22.36,6.11-33.56,7.87-3.74.59-7.5,1.13-11.25,1.64l3.25-.44Q67,170.34,50.65,171.77l-2.24.19a13,13,0,0,0-8.65,3.58,12.41,12.41,0,0,0-3.58,8.65c.28,6.19,5.4,12.78,12.23,12.23Z"/><path class="cls-7" d="M262.18,184.19s-95.76-7.7-85.62-21.08"/><path d="M262.18,172c-7.68-.62-15.35-1.43-23-2.32q-5.89-.69-11.77-1.48l3.25.44c-12.47-1.68-25.07-3.52-37.2-6.94a68.23,68.23,0,0,1-7.62-2.57l2.92,1.23a31.18,31.18,0,0,1-4.17-2.18c-1.64-1,2.32,2.05,1.62,1.27a6.21,6.21,0,0,0-.59-.56c-1.4-1.21,1.59,2.14,1.32,1.76a4.77,4.77,0,0,1-.34-.63l1.23,2.93a4,4,0,0,1-.2-.75l.44,3.25a2.74,2.74,0,0,1,0-.64l-.43,3.25a2.91,2.91,0,0,1,.2-.77l-1.23,2.92a4.45,4.45,0,0,1,.53-.89c1.76-2.4,2-6.68,1.23-9.43a12.52,12.52,0,0,0-5.62-7.31,12.35,12.35,0,0,0-9.43-1.23,14.19,14.19,0,0,0-7.31,5.62c-3.36,4.58-2.91,11.07-.31,15.82,1.83,3.33,5.2,5.95,8.51,7.67,6.94,3.58,14.68,5.52,22.27,7.14,17.61,3.76,35.61,5.89,53.5,7.72,4.07.41,8.14.81,12.22,1.14,6.4.51,12.51-6,12.23-12.23-.31-7.07-5.38-11.68-12.23-12.23Z"/><rect class="cls-5" x="145.05" y="147.98" width="22.81" height="6.39" rx="3.19" transform="translate(5.27 307.63) rotate(-90)"/><path class="cls-8" d="M201.18,285.45a38.28,38.28,0,0,1-38.24-38.24V234.49a35.37,35.37,0,0,0-7.08-.72,33.11,33.11,0,0,0-5.9.52v12.92a38.28,38.28,0,0,1-38.23,38.24h-46a38.28,38.28,0,0,1-38.24-38.24v-20A38.28,38.28,0,0,1,65.72,189h46a38.1,38.1,0,0,1,35,22.78,38.91,38.91,0,0,1,9.62-1.22,36.61,36.61,0,0,1,9.84,1.34,38.74,38.74,0,0,1,12.15-15.29A37.87,37.87,0,0,1,201.18,189h46a38.28,38.28,0,0,1,38.24,38.24v20a38.28,38.28,0,0,1-38.24,38.24Zm0-78a19.83,19.83,0,0,0-19.81,19.81v20A19.82,19.82,0,0,0,201.18,267h46A19.82,19.82,0,0,0,267,247.21v-20a19.83,19.83,0,0,0-19.81-19.81Zm-135.46,0a19.82,19.82,0,0,0-19.81,19.81v20A19.82,19.82,0,0,0,65.72,267h46a19.82,19.82,0,0,0,19.8-19.81v-20a19.82,19.82,0,0,0-19.8-19.81Z"/><g class="cls-9"><path class="cls-1" d="M34.09,99.26c-10.3-8.77-16.28-21.57-17.53-34.94-1.6,17,4.51,34.5,17.53,45.59l24,20.42a54,54,0,0,1-6.15-15.89Z"/></g><circle class="cls-10" cx="79.97" cy="225.23" r="3.68"/><circle class="cls-10" cx="87.59" cy="228.37" r="1.99"/><circle class="cls-10" cx="202.6" cy="225.98" r="3.68"/><circle class="cls-10" cx="210.23" cy="229.12" r="1.99"/><path class="cls-8" d="M128.88,323.1s81.15-15.29,70,0"/><path class="cls-8" d="M129.53,325.46c8.44-1.59,16.94-2.92,25.45-4.08,7-1,14-1.76,21-2.25,3.23-.22,6.47-.38,9.71-.38,1.4,0,2.81,0,4.21.11l1.7.12c.29,0,.58,0,.86.09a4.26,4.26,0,0,1,.52.06,22.54,22.54,0,0,1,3.16.7c.22.07.43.15.64.24-.64-.26,0,0,.12.07l.49.29c.57.32-.34-.23.07.05s.11.34.16.14,0,0,0-.06c-.3-.42.12.05,0,.17.33-.39-.34-.24,0-.09.12.05,0-.27,0-.05s-.23.66-.08.29-.12.21-.19.32-.28.45-.43.66c-1.83,2.57,2.41,5,4.22,2.47,2.73-3.83.84-7.62-3.3-9.1-5-1.79-10.9-1.48-16.09-1.3-14.37.51-28.72,2.66-42.89,5-3.51.58-7,1.17-10.52,1.83-3.09.58-1.78,5.3,1.3,4.72Z"/><rect class="cls-5" x="152.98" y="331.11" width="22.81" height="6.39" rx="3.19" transform="translate(328.78 668.6) rotate(180)"/><g class="cls-9"><path class="cls-1" d="M239.17,311.53s5.15,4.78,0,12.93"/><path class="cls-1" d="M236.89,313.82c.15.14.6.75.22.22a6.41,6.41,0,0,1,.81,1.53c.91,2.52-.25,5.1-1.53,7.26-2.14,3.57,3.44,6.82,5.57,3.26,3-5,4.21-12.31-.51-16.84-3-2.87-7.57,1.69-4.56,4.57Z"/></g></g></g></svg>